<?xml version="1.0" standalone="no"?>
<!DOCTYPE svg PUBLIC "-//W3C//DTD SVG 20010904//EN"
 "http://www.w3.org/TR/2001/REC-SVG-20010904/DTD/svg10.dtd">
<svg version="1.0" xmlns="http://www.w3.org/2000/svg"
 width="1024.000000pt" height="1024.000000pt" viewBox="0 0 1024.000000 1024.000000"
 preserveAspectRatio="xMidYMid meet">

<g transform="translate(0.000000,1024.000000) scale(0.100000,-0.100000)"
fill="#000000" stroke="none">
<path d="M0 8321 l0 -1918 680 -5 c437 -3 684 -8 691 -15 6 -6 -4 -11 -33 -14
-56 -5 -888 -5 -1138 0 l-195 4 -3 -207 -2 -207 29 17 c42 25 107 1 122 -45 3
-9 150 -13 569 -17 311 -3 572 -7 580 -11 43 -17 -104 -22 -602 -22 -537 0
-548 -1 -568 -21 -35 -35 -108 -23 -123 20 -3 8 -6 -15 -6 -52 l-1 -68 573 0
c598 0 736 -5 717 -24 -8 -8 -196 -10 -651 -9 l-639 3 0 -150 0 -150 75 0 c63
0 80 4 111 25 20 14 46 25 58 24 l21 0 -21 -9 c-25 -10 -54 -47 -54 -70 0 -8
11 -28 24 -44 22 -28 25 -29 55 -16 33 13 61 45 61 68 0 7 -13 25 -30 40 l-29
27 212 -3 c144 -2 207 1 197 8 -12 8 -9 10 12 10 14 0 28 5 30 12 3 9 50 12
170 13 162 0 167 -1 192 -24 22 -21 39 -25 118 -30 l93 -6 3 -57 3 -58 -73 -1
c-72 -1 -201 -15 -163 -18 18 -1 17 -3 -5 -18 -32 -23 -179 -23 -335 -1 -91
12 -103 16 -70 20 22 3 -68 5 -201 5 -211 -1 -244 1 -267 16 -14 9 -28 26 -32
37 -6 18 -15 20 -81 20 l-74 0 0 -160 0 -160 593 -1 c325 -1 619 -4 652 -8
l60 -6 -79 -8 c-43 -4 -337 -7 -653 -7 l-573 0 0 -60 0 -60 657 0 c526 0 655
-3 645 -12 -10 -10 -159 -14 -657 -16 l-645 -3 0 -143 0 -144 37 13 c37 13 71
7 100 -17 9 -7 164 -8 522 -3 280 4 538 4 573 0 143 -18 -12 -27 -539 -32
l-542 -6 -12 -29 c-6 -16 -20 -33 -30 -38 -38 -21 -88 -6 -102 30 -3 8 -6
-1008 -6 -2257 l-1 -2273 5120 0 5120 0 0 1710 0 1710 -21 0 c-36 0 -59 19
-59 48 0 47 37 74 65 46 13 -14 15 14 15 269 l0 284 -28 -5 c-35 -5 -53 15
-54 59 -1 37 25 62 60 56 l22 -4 0 163 c0 141 -2 164 -15 164 -9 0 -25 15 -36
34 l-20 34 -572 5 c-315 3 -585 9 -602 14 -62 20 128 25 655 18 l527 -8 32 24
31 23 0 128 0 128 -562 0 c-547 0 -703 5 -648 21 14 4 292 7 618 8 l592 1 0
60 0 60 -597 0 c-551 0 -702 6 -577 24 26 3 300 6 610 6 l564 0 0 160 0 160
-35 0 c-19 0 -35 -4 -35 -10 0 -13 -48 -60 -63 -61 -7 -1 -136 -1 -287 -1
-156 0 -253 -3 -225 -7 l50 -8 -57 -1 c-66 -2 -58 -1 -117 -19 -61 -18 -202
-17 -227 2 -10 8 -27 15 -37 15 -10 0 -16 4 -13 9 7 11 -43 21 -110 21 l-54 0
0 54 c0 59 7 65 80 66 52 0 82 11 76 26 -3 7 0 16 5 20 20 12 184 32 199 24 8
-4 44 -10 80 -13 75 -7 147 -32 114 -40 -23 -6 260 -12 375 -8 l83 3 -21 -21
c-30 -30 -25 -77 10 -104 34 -24 64 -16 85 25 12 24 13 36 5 54 -12 28 -12 28
26 13 15 -6 43 -13 61 -14 l32 -3 0 153 0 153 -597 -1 c-561 -2 -663 2 -607
24 10 4 286 8 612 8 l592 1 0 35 c0 19 -4 35 -9 35 -4 0 -19 11 -33 25 l-25
25 -576 2 c-316 2 -579 6 -583 11 -4 4 -4 10 0 15 4 4 265 6 580 4 l573 -2 11
24 c6 14 23 32 37 42 24 16 25 21 25 109 0 92 0 92 -24 88 -18 -4 -29 2 -42
22 l-17 27 -552 -8 c-549 -7 -669 -3 -630 19 14 7 207 12 600 15 l579 5 18 23
c10 12 28 24 41 26 18 2 23 10 25 42 3 36 2 38 -20 32 -34 -10 -1131 -20
-1212 -11 -57 6 -66 9 -51 18 13 7 228 12 652 15 l633 5 0 136 0 137 -37 2
c-20 2 -40 5 -45 8 -16 10 -9 80 10 97 24 22 59 22 65 0 3 -10 5 107 6 259 1
227 -1 276 -12 272 -8 -3 -26 0 -40 5 -22 9 -27 17 -27 45 0 39 27 62 61 53
19 -5 19 25 19 1409 l0 1414 -5120 0 -5120 0 0 -1919z m5012 1432 c34 -30 16
-103 -25 -103 -32 0 -47 18 -47 56 0 23 7 38 22 48 28 20 27 20 50 -1z m335
-5 c27 -25 29 -45 7 -76 -29 -42 -86 -21 -86 33 0 26 27 65 45 65 6 0 21 -10
34 -22z m-2887 -17 c5 -11 10 -28 10 -37 0 -24 -29 -54 -51 -54 -34 0 -53 72
-27 98 18 18 56 14 68 -7z m261 -5 c15 -33 4 -73 -23 -82 -26 -8 -48 17 -48
56 0 51 52 69 71 26z m271 7 c20 -18 24 -63 6 -81 -16 -16 -53 -15 -66 1 -22
28 -23 56 -3 76 25 25 39 26 63 4z m4340 0 c20 -18 24 -63 6 -81 -19 -19 -55
-14 -72 10 -21 30 -20 44 4 68 24 24 38 25 62 3z m309 -4 c14 -14 18 -27 13
-42 -15 -49 -43 -60 -76 -30 -22 20 -23 56 -2 77 21 21 40 20 65 -5z m267 9
c17 -17 15 -64 -4 -82 -34 -34 -74 -9 -74 46 0 30 17 48 45 48 12 0 26 -5 33
-12z m-4583 -25 c9 -21 16 -23 98 -23 52 0 95 5 107 12 16 10 24 10 40 0 14
-9 87 -12 264 -12 214 0 248 2 276 18 30 16 32 16 44 0 11 -15 29 -18 96 -18
75 0 85 2 106 25 13 14 32 25 43 25 11 0 28 -11 39 -25 19 -23 26 -25 110 -25
85 0 91 1 106 25 20 30 47 32 71 5 28 -31 10 -74 -33 -78 -22 -2 -34 2 -38 12
-9 23 -196 23 -214 1 -14 -17 -66 -20 -75 -5 -9 15 -191 13 -215 -2 -16 -10
-24 -10 -40 0 -28 17 -522 17 -550 0 -15 -9 -23 -10 -28 -2 -4 6 -50 14 -104
17 -78 5 -98 4 -108 -8 -17 -20 -62 -19 -80 3 -16 18 -15 48 3 70 17 21 70 11
82 -15z m2324 0 c19 -23 20 -29 8 -47 -29 -43 -87 -28 -87 23 0 54 45 68 79
24z m297 2 c23 -23 32 -25 112 -25 58 1 93 5 105 14 18 14 57 11 57 -5 0 -13
497 -12 505 1 9 15 41 12 55 -5 8 -10 34 -16 79 -17 l66 -2 -64 -3 c-35 -2
-73 -10 -84 -18 -15 -10 -25 -11 -39 -4 -12 7 -125 10 -301 10 -155 -1 -326
-1 -381 -1 -58 1 -103 -3 -109 -9 -17 -17 -62 -13 -81 8 -13 14 -14 24 -7 44
17 43 51 48 87 12z m1120 0 c15 -23 15 -27 0 -50 -22 -34 -68 -34 -86 0 -11
20 -10 28 4 50 22 33 60 33 82 0z m-3903 -42 c-7 -2 -21 -2 -30 0 -10 3 -4 5
12 5 17 0 24 -2 18 -5z m2635 0 c-15 -2 -42 -2 -60 0 -18 2 -6 4 27 4 33 0 48
-2 33 -4z m-4894 -159 c19 -50 -6 -91 -49 -80 -29 7 -42 44 -25 75 13 26 65
29 74 5z m270 -17 c13 -35 -1 -61 -34 -65 -27 -4 -50 20 -50 53 0 52 67 61 84
12z m260 17 c18 -48 -4 -88 -46 -82 -18 2 -24 10 -26 36 -2 19 -1 40 2 48 7
19 62 18 70 -2z m254 4 c7 -7 12 -24 12 -38 0 -52 -62 -72 -80 -25 -20 53 30
101 68 63z m251 -2 c7 -8 11 -30 9 -48 -3 -29 -7 -33 -36 -36 -27 -3 -34 1
-43 25 -14 38 2 73 35 73 13 0 29 -6 35 -14z m259 2 c17 -17 15 -63 -3 -78 -8
-7 -25 -10 -39 -6 -29 7 -45 58 -26 81 15 18 52 19 68 3z m6002 -13 c14 -37
-3 -75 -34 -75 -37 0 -60 38 -45 78 12 33 66 31 79 -3z m254 9 c17 -46 -1 -84
-40 -84 -33 0 -48 62 -22 88 17 17 55 15 62 -4z m244 4 c17 -17 15 -63 -2 -78
-8 -6 -25 -10 -38 -8 -18 2 -24 10 -26 36 -2 19 -1 40 2 48 7 17 48 18 64 2z
m250 0 c18 -18 14 -63 -7 -82 -30 -28 -61 -6 -61 43 0 21 3 41 7 44 11 11 48
8 61 -5z m276 -21 c13 -36 -2 -61 -38 -65 -21 -3 -28 2 -37 25 -15 41 3 75 38
71 20 -2 30 -11 37 -31z m262 8 c15 -23 15 -27 0 -50 -18 -27 -45 -32 -64 -13
-13 13 -17 70 -5 81 15 16 53 6 69 -18z m-6332 -3 l416 3 6 -28 c7 -32 -9 -57
-37 -57 -14 0 -19 7 -19 25 l0 25 -397 0 c-332 -1 -401 -3 -417 -15 -22 -17
-46 -4 -46 24 0 29 19 40 50 29 17 -5 192 -8 444 -6z m1266 -13 c24 -45 -1
-119 -40 -119 -25 0 -40 29 -40 77 0 42 7 57 30 65 21 7 39 -1 50 -23z m288
23 c21 -14 30 -65 18 -102 -9 -27 -17 -36 -39 -38 -23 -3 -30 2 -42 32 -29 68
13 139 63 108z m322 -11 c17 -33 12 -99 -10 -121 -25 -25 -32 -25 -54 -1 -26
28 -32 86 -12 116 20 30 61 33 76 6z m310 0 c24 -46 2 -141 -34 -141 -41 0
-70 92 -42 135 20 30 61 33 76 6z m2308 -24 c-2 -11 -11 -25 -21 -31 -14 -9
-21 -7 -31 7 -12 16 -44 17 -410 17 l-396 0 0 -24 c0 -13 -6 -26 -14 -29 -21
-8 -48 27 -44 58 l3 28 425 -1 c234 -1 434 3 445 7 25 11 47 -6 43 -32z
m-5176 8 c10 -22 9 -29 -10 -47 -17 -18 -23 -19 -36 -8 -16 12 -22 61 -9 73
15 15 44 5 55 -18z m1332 9 c21 -20 20 -53 0 -61 -36 -13 -68 33 -44 62 16 19
25 19 44 -1z m1844 4 c19 -19 15 -92 -7 -119 -18 -22 -19 -22 -44 -6 -31 20
-43 70 -28 110 8 21 17 27 39 27 15 0 33 -5 40 -12z m316 -10 c33 -46 11 -118
-35 -118 -33 0 -49 24 -49 74 0 61 53 88 84 44z m586 7 c15 -18 5 -65 -14 -65
-29 0 -46 13 -46 34 0 41 36 60 60 31z m1356 -10 c8 -31 -10 -55 -41 -55 -26
0 -36 25 -24 58 12 32 57 30 65 -3z m-3804 -2 c22 -20 23 -70 1 -95 -21 -24
-39 -23 -57 4 -21 29 -20 67 1 90 20 22 31 23 55 1z m2159 7 c22 -12 27 -78 7
-98 -47 -47 -107 39 -61 90 19 21 27 22 54 8z m-826 -180 c659 -40 1120 -176
1710 -507 108 -60 226 -143 220 -153 -3 -6 0 -8 7 -5 7 3 25 -5 40 -17 14 -13
64 -51 110 -85 101 -74 358 -320 467 -447 295 -344 594 -886 755 -1371 82
-245 155 -581 187 -865 18 -158 15 -623 -5 -812 -16 -157 -45 -337 -72 -458
-32 -146 -117 -429 -127 -423 -6 3 -7 1 -4 -5 4 -5 3 -21 -2 -34 -6 -13 -10
-17 -11 -8 -1 9 -5 5 -11 -9 -5 -13 -12 -21 -15 -19 -3 3 2 22 10 42 8 20 12
44 9 53 -5 12 -2 15 9 10 11 -4 17 2 21 19 3 18 0 24 -12 22 -9 -2 -20 -7 -24
-13 -5 -6 -7 -4 -4 5 2 8 10 14 16 13 6 -2 11 3 11 11 0 8 3 23 7 33 6 15 4
16 -9 5 -12 -9 -8 17 18 115 38 145 97 483 113 648 36 379 18 775 -53 1151
-106 560 -313 1069 -640 1569 -111 170 -304 410 -418 522 -100 98 -329 282
-453 365 -49 33 -89 64 -87 69 1 6 -2 8 -8 4 -6 -4 -39 11 -74 33 -94 60 -335
178 -471 232 -290 115 -557 190 -795 224 -259 37 -320 41 -660 41 -298 -1
-368 -4 -515 -23 -471 -62 -849 -175 -1285 -385 -188 -90 -214 -101 -206 -88
4 5 1 11 -6 13 -21 7 234 140 423 221 424 181 813 269 1349 306 169 12 294 12
485 1z m-2156 -31 c43 -43 43 -98 1 -141 -27 -26 -36 -30 -68 -25 -47 8 -92
55 -92 98 0 22 10 41 34 65 44 44 83 45 125 3z m3887 -3 c57 -57 40 -135 -36
-157 -33 -10 -43 -9 -71 7 -61 36 -65 129 -6 164 46 29 74 25 113 -14z m-5728
-43 c10 -17 5 -50 -11 -70 -29 -39 -86 21 -68 70 6 14 16 27 23 30 17 6 45 -9
56 -30z m260 -18 c4 -30 -22 -65 -48 -65 -18 0 -40 39 -40 70 0 10 10 26 22
34 19 13 25 14 43 2 11 -7 21 -26 23 -41z m6188 47 c26 -17 35 -51 22 -80 -16
-33 -43 -40 -69 -16 -25 22 -24 59 1 84 22 22 29 24 46 12z m558 -8 c17 -17
21 -61 7 -82 -14 -23 -55 -10 -65 20 -7 20 -5 33 8 52 19 30 29 32 50 10z
m-7544 -13 c15 -29 12 -66 -7 -84 -27 -23 -29 -24 -52 -3 -23 21 -28 75 -9 94
18 18 56 14 68 -7z m270 0 c24 -45 6 -91 -35 -91 -12 0 -26 5 -33 12 -16 16
-16 70 0 86 18 18 56 14 68 -7z m776 -6 c16 -63 -32 -109 -68 -65 -35 43 -20
90 28 90 28 0 35 -5 40 -25z m252 13 c20 -20 15 -75 -10 -92 -42 -30 -84 26
-59 80 12 26 48 33 69 12z m273 -14 c7 -21 6 -31 -7 -45 -10 -11 -22 -19 -29
-19 -18 0 -33 42 -24 68 12 31 47 29 60 -4z m244 -2 c10 -22 13 -22 197 -22
119 0 188 -4 188 -10 0 -6 -68 -10 -184 -10 -101 0 -197 -3 -215 -6 -35 -7
-47 9 -37 52 8 31 36 29 51 -4z m813 16 c7 -7 12 -22 12 -35 0 -33 -37 -31
-50 3 -13 33 -13 33 13 27 18 -4 19 -3 7 6 -8 6 -10 11 -4 11 5 0 15 -5 22
-12z m3286 6 c-7 -3 -10 -13 -7 -22 5 -20 -21 -75 -30 -65 -9 8 -9 78 0 86 3
4 16 7 27 6 12 0 16 -3 10 -5z m1384 -15 c28 -44 -15 -112 -57 -89 -24 12 -36
62 -21 89 14 28 61 28 78 0z m500 9 c20 -20 15 -76 -7 -88 -40 -21 -71 19 -57
75 7 27 42 35 64 13z m250 0 c17 -17 15 -73 -3 -88 -36 -30 -84 24 -65 74 10
28 46 36 68 14z m270 0 c29 -29 1 -103 -37 -96 -26 5 -45 56 -32 84 12 26 48
33 69 12z m270 0 c7 -7 12 -28 12 -48 0 -57 -34 -77 -72 -43 -34 30 -16 103
25 103 13 0 28 -5 35 -12z m-1843 -32 l0 -30 -210 3 c-115 1 -214 7 -219 12
-6 5 63 9 181 9 185 0 191 1 196 21 4 15 12 20 29 17 18 -2 23 -9 23 -32z
m-2205 -31 c230 -20 302 -30 502 -71 808 -166 1527 -591 1968 -1162 659 -856
948 -1758 880 -2752 -11 -155 -18 -210 -55 -417 -38 -210 -130 -547 -146 -537
-5 3 -6 -1 -3 -9 7 -18 -55 -188 -67 -181 -5 3 -6 -1 -3 -9 3 -8 -6 -41 -20
-73 -14 -33 -25 -53 -26 -46 0 7 7 27 16 43 8 17 13 33 10 36 -6 6 -56 -95
-56 -114 0 -8 4 -11 10 -8 6 3 7 -1 3 -10 -4 -13 -8 -14 -14 -4 -10 16 -10 17
-42 -50 -48 -98 -28 -38 34 104 156 356 270 814 309 1235 22 253 10 623 -31
880 -85 539 -272 1021 -604 1554 -105 168 -273 375 -437 538 -568 562 -1358
919 -2153 974 -55 3 -96 3 -92 -2 4 -4 -16 -16 -45 -25 l-53 -16 85 -7 c743
-61 1348 -290 1915 -725 284 -218 509 -462 747 -811 470 -690 685 -1515 613
-2358 -22 -254 -53 -432 -122 -687 -66 -247 -229 -655 -254 -639 -8 4 -9 3 -5
-4 4 -6 -1 -28 -10 -49 -13 -30 -18 -34 -22 -19 -3 14 -6 16 -12 6 -5 -8 -8
-4 -7 13 2 28 17 38 17 12 0 -8 5 -15 10 -15 15 0 12 11 -7 33 -17 18 -17 20
2 34 20 14 19 15 -10 39 l-30 24 -13 -30 c-8 -19 -17 -28 -24 -24 -7 5 -9 2
-5 -8 3 -9 -3 -24 -14 -33 -10 -10 -32 -42 -49 -71 -17 -30 -32 -54 -35 -54
-3 0 9 24 26 53 17 28 33 60 36 70 3 9 10 17 16 17 6 0 7 3 4 6 -10 11 13 45
25 38 6 -4 8 -3 4 4 -9 15 45 143 57 135 6 -3 7 -1 3 5 -3 6 13 62 38 124 87
225 163 487 205 713 63 336 68 835 10 1175 -65 385 -152 654 -319 985 -256
511 -563 902 -945 1206 -370 293 -791 499 -1263 619 -295 75 -388 85 -802 85
-414 -1 -510 -11 -820 -86 -205 -49 -312 -84 -510 -166 -426 -176 -779 -411
-1095 -728 -447 -448 -769 -1016 -915 -1610 -79 -322 -104 -532 -104 -860 0
-292 10 -390 64 -657 57 -279 121 -482 236 -746 25 -56 50 -117 56 -135 6 -18
14 -34 17 -37 9 -8 61 -89 61 -95 0 -4 -4 -3 -10 0 -7 4 -7 -2 -1 -18 6 -14 7
-28 3 -32 -3 -3 0 -3 9 0 10 4 25 -9 45 -38 31 -43 34 -67 8 -67 -8 0 -23 -6
-34 -12 -17 -11 -22 -10 -29 1 -5 7 -14 10 -20 7 -6 -4 -11 -1 -11 8 0 10 6
13 17 9 11 -4 14 -3 9 6 -4 6 -16 9 -27 6 -15 -5 -19 -1 -20 22 -1 15 -1 31 0
35 0 4 -5 5 -13 2 -7 -3 -19 2 -26 11 -10 12 -10 15 0 15 8 0 11 2 8 5 -9 10
-38 -7 -31 -18 4 -6 1 -7 -6 -3 -7 5 -10 19 -7 34 3 15 1 34 -5 42 -8 12 -9 9
-4 -10 6 -24 6 -24 -9 -5 -8 11 -20 25 -26 32 -5 7 -10 15 -10 18 0 3 -24 57
-54 119 -29 62 -57 123 -61 137 -4 13 -11 29 -15 34 -14 17 -97 274 -130 398
-90 341 -105 481 -105 947 1 413 4 441 71 750 104 476 278 881 550 1283 346
510 753 872 1285 1142 421 214 799 324 1309 379 69 7 105 14 80 15 -25 1 -40
5 -35 9 6 4 11 13 13 21 6 30 -310 -6 -578 -65 -435 -97 -946 -329 -1339 -608
-147 -104 -252 -193 -395 -334 -326 -322 -540 -618 -736 -1017 -151 -307 -227
-545 -284 -890 -65 -387 -79 -917 -36 -1330 22 -210 89 -531 145 -693 27 -79
32 -116 10 -67 -8 17 -14 24 -15 18 -1 -30 -19 -9 -26 30 -5 34 -8 38 -15 22
-11 -28 -11 -37 1 -30 6 3 10 -4 11 -17 0 -13 2 -35 4 -50 6 -44 -2 -33 -24
35 -16 48 -19 70 -12 88 5 13 10 18 10 10 1 -8 3 -12 6 -9 3 3 2 13 -1 23 -6
16 -8 15 -19 -5 -12 -22 -14 -19 -33 41 -113 349 -166 738 -165 1214 0 362 22
569 95 895 127 572 425 1130 866 1624 355 397 865 741 1408 951 345 133 631
202 1017 245 314 34 397 36 647 15z m-2584 -209 c26 -26 34 -42 34 -70 0 -54
-23 -91 -69 -109 -76 -31 -151 16 -151 94 0 75 42 118 114 119 30 0 45 -7 72
-34z m4740 0 c28 -28 34 -41 34 -78 0 -52 -21 -85 -66 -104 -46 -19 -89 -8
-124 33 -44 49 -42 103 4 149 28 28 42 34 76 34 34 0 48 -6 76 -34z m-6073 -7
c58 -30 75 -103 35 -146 -32 -34 -99 -32 -127 3 -37 47 -20 117 34 140 37 16
32 16 58 3z m628 -18 c21 -21 29 -39 29 -65 0 -86 -95 -121 -152 -57 -32 35
-35 59 -13 101 30 58 89 67 136 21z m6120 0 c62 -62 26 -151 -60 -151 -86 0
-118 124 -43 165 41 22 71 18 103 -14z m593 -12 c51 -60 18 -140 -58 -142 -32
-1 -44 5 -68 32 -24 27 -29 39 -24 64 16 79 101 105 150 46z m-7967 -35 c15
-24 15 -29 2 -53 -10 -17 -23 -26 -39 -26 -16 0 -29 9 -39 26 -13 24 -13 29 2
53 10 14 26 26 37 26 11 0 27 -12 37 -26z m258 2 c28 -42 -14 -97 -59 -80 -17
7 -20 86 -4 96 23 14 47 8 63 -16z m8084 -8 c14 -24 14 -28 -2 -46 -21 -23
-73 -24 -87 -2 -20 32 16 83 55 78 10 -2 26 -15 34 -30z m249 19 c21 -25 24
-63 6 -81 -39 -39 -99 17 -75 70 12 26 51 33 69 11z m-7503 -37 c4 -7 -49 -9
-152 -8 -105 1 -141 3 -108 8 80 11 253 11 260 0z m6610 1 c79 -7 68 -8 -92
-9 -117 -1 -183 2 -183 8 0 11 138 12 275 1z m-6089 -162 c46 -43 53 -110 15
-153 -65 -73 -179 -43 -197 52 -19 99 109 170 182 101z m5414 16 c40 -21 60
-53 60 -98 0 -49 -30 -92 -74 -107 -96 -31 -184 88 -126 170 35 50 87 63 140
35z m-2766 -30 c31 -31 27 -84 -8 -107 -56 -37 -107 52 -63 110 13 17 52 15
71 -3z m194 -47 c-2 -50 -6 -63 -20 -66 -16 -3 -18 5 -18 62 0 60 2 66 20 66
19 0 21 -5 18 -62z m-434 30 c12 -47 7 -106 -11 -112 -24 -10 -30 2 -38 72 -7
61 -7 62 18 62 17 0 26 -7 31 -22z m616 -43 c0 -57 -2 -65 -19 -65 -30 0 -36
50 -15 118 2 6 10 12 19 12 12 0 15 -13 15 -65z m-800 19 c6 -14 10 -43 10
-65 0 -36 -2 -40 -22 -37 -19 2 -24 12 -31 52 -4 27 -6 55 -3 63 9 22 36 15
46 -13z m975 -44 c0 -58 -2 -65 -20 -65 -17 0 -21 8 -23 44 -5 61 5 93 26 89
14 -3 17 -15 17 -68z m-1151 18 c3 -13 7 -35 10 -50 8 -35 -2 -58 -24 -58 -19
0 -30 36 -30 96 0 27 4 34 20 34 12 0 21 -8 24 -22z m4950 16 c14 -5 16 -52
16 -418 0 -226 -4 -416 -8 -423 -6 -9 -115 -13 -439 -15 l-432 -3 -1 426 c0
234 3 428 6 432 9 9 836 9 858 1z m-3619 -14 c4 -6 3 -35 0 -65 -6 -44 -11
-55 -26 -55 -27 0 -31 14 -24 75 6 44 11 55 26 55 10 0 21 -5 24 -10z m-1495
-51 c6 -22 10 -50 8 -61 -3 -23 -33 -46 -44 -35 -10 9 -18 103 -11 122 12 29
36 16 47 -26z m1695 -4 c28 -27 29 -33 14 -72 -26 -70 -99 -52 -99 24 0 38 23
73 47 73 8 0 25 -11 38 -25z m-4377 7 c10 -7 12 -90 10 -400 -2 -244 -7 -394
-13 -400 -5 -5 -26 -12 -45 -16 -32 -6 -33 -5 -15 8 19 14 18 15 -20 17 l-40
2 45 6 45 6 3 200 c2 110 0 278 -3 373 l-7 172 -362 0 c-198 0 -371 -3 -383
-6 l-23 -6 0 -363 c0 -302 2 -365 14 -374 9 -7 73 -16 153 -20 l138 -8 -151
-2 c-138 -1 -152 1 -168 18 -25 28 -33 122 -40 473 -5 261 -4 298 10 312 13
14 66 16 427 16 227 0 418 -4 425 -8z m2503 -42 c21 -77 -3 -138 -35 -87 -22
34 -30 98 -14 108 21 14 42 6 49 -21z m1289 -25 c162 -21 376 -60 465 -86 595
-172 1046 -441 1450 -870 319 -337 590 -800 710 -1214 46 -159 105 -494 105
-596 0 -28 -1 -29 -53 -29 l-53 0 -18 138 c-72 570 -296 1064 -694 1531 -244
285 -591 561 -899 715 -128 64 -129 58 -3 -12 247 -137 475 -306 660 -492 145
-144 156 -156 266 -293 335 -414 557 -947 603 -1447 17 -177 15 -217 -9 -223
-11 -3 -23 -1 -26 4 -3 5 -10 7 -15 3 -5 -3 -16 0 -24 6 -8 7 -15 9 -15 5 0
-4 -7 -2 -15 5 -8 6 -18 9 -23 6 -5 -3 -12 36 -16 87 -24 330 -115 669 -260
972 -162 339 -413 658 -732 931 -218 187 -456 330 -734 438 -52 21 -105 41
-117 46 -119 48 -357 101 -566 126 l-148 17 7 59 7 58 -147 0 -146 0 0 -59 0
-59 -82 -7 c-506 -40 -870 -160 -1306 -427 -267 -165 -536 -400 -728 -638
-212 -262 -385 -597 -490 -948 -19 -64 -32 -99 -28 -77 17 110 150 465 231
615 19 36 27 56 18 45 -21 -26 -138 -267 -155 -319 -12 -37 -14 -38 -26 -21
-17 22 -18 12 -3 -18 9 -19 7 -18 -10 3 -15 18 -21 20 -21 9 0 -8 6 -21 13
-29 6 -8 2 -6 -10 4 -21 17 -28 15 -24 -7 1 -5 -8 -6 -19 -2 -11 3 -20 5 -20
3 0 -2 -12 -35 -26 -73 -34 -95 -101 -365 -124 -500 -10 -60 -18 -96 -19 -80
-2 50 37 271 75 424 167 682 584 1255 1224 1682 130 87 319 192 452 250 42 18
75 35 73 37 -7 7 -186 -73 -315 -140 -585 -308 -1092 -851 -1347 -1443 -107
-249 -185 -538 -216 -805 l-12 -105 -54 -3 -54 -3 6 93 c8 114 28 233 67 398
97 404 279 774 560 1140 156 202 485 502 732 668 326 218 757 397 1119 466 78
15 350 53 429 60 89 8 407 -4 530 -19z m-4157 5 l307 0 0 -277 c0 -153 -3
-308 -7 -345 l-6 -68 -353 0 -354 0 -1 223 c-1 122 -3 276 -4 342 -2 66 -1
124 2 129 3 5 29 6 57 2 28 -3 189 -6 359 -6z m4917 -5 c14 -17 5 -89 -15
-105 -23 -19 -45 -1 -45 39 0 20 3 46 6 59 7 25 36 29 54 7z m-2215 -45 c18
-35 19 -62 3 -78 -32 -32 -78 6 -78 64 0 37 6 44 36 44 16 0 29 -10 39 -30z
m-1990 -14 c83 -84 -1 -206 -105 -153 -31 16 -53 77 -40 112 25 66 99 87 145
41z m6316 -2 c27 -25 34 -76 15 -112 -19 -37 -44 -52 -83 -52 -87 0 -121 132
-44 175 31 18 86 13 112 -11z m-1909 -11 c41 -37 4 -132 -45 -118 -26 8 -57
41 -57 62 0 8 7 27 15 43 18 35 57 40 87 13z m-5825 -593 l5 -526 -102 4 c-67
3 -105 1 -113 -7 -15 -15 -60 -14 -75 1 -20 20 -14 56 14 75 30 19 52 11 69
-25 5 -13 16 -20 23 -17 8 3 43 5 78 5 l64 0 0 413 c0 470 8 693 23 637 5 -19
12 -271 14 -560z m3237 545 c20 -41 14 -71 -15 -80 -26 -9 -45 8 -59 51 -23
68 44 93 74 29z m5929 -1037 c68 -3 73 -2 95 25 29 34 45 34 71 1 20 -25 18
-51 -3 -66 -17 -12 -64 -9 -72 3 -5 8 -39 10 -107 7 l-100 -5 7 506 c9 605 8
581 18 575 4 -3 9 1 10 8 2 7 4 -226 5 -519 l3 -531 73 -4z m-3145 984 c16
-21 15 -53 -4 -80 -19 -27 -48 -28 -74 -2 -26 26 -25 51 1 84 23 29 53 28 77
-2z m-2949 -18 c30 -38 27 -70 -8 -88 -26 -14 -30 -14 -44 2 -9 9 -21 30 -27
47 -10 26 -9 32 10 47 30 24 45 23 69 -8z m3116 -69 c31 -30 31 -47 1 -82 -21
-24 -27 -26 -52 -18 -23 8 -30 17 -32 43 -4 37 20 82 44 82 8 0 26 -11 39 -25z
m-3275 -25 c36 -67 -23 -122 -69 -64 -27 34 -27 69 1 88 24 17 51 8 68 -24z
m1710 0 c16 -16 46 -23 167 -35 265 -28 468 -77 703 -170 240 -94 382 -169
597 -313 552 -370 934 -914 1082 -1543 30 -125 49 -276 55 -439 5 -154 -1
-127 -24 95 -24 237 -77 443 -174 680 -47 112 -134 281 -155 298 -8 6 -12 7
-8 1 3 -6 0 -11 -8 -11 -10 0 -11 5 -5 17 5 9 5 22 -1 31 -8 12 -9 11 -7 -3 2
-9 -1 -16 -7 -15 -5 1 -8 9 -7 19 2 9 -2 20 -9 24 -8 4 -9 3 -5 -4 4 -7 2 -20
-4 -29 -11 -17 -11 -17 -6 0 7 21 -3 49 -15 41 -5 -3 -9 4 -9 15 0 12 -4 21
-10 21 -5 0 -10 10 -10 21 0 19 4 16 30 -16 17 -21 30 -33 30 -27 0 6 -5 14
-11 18 -6 3 -19 20 -30 38 -10 17 -19 25 -19 18 0 -7 -4 -11 -9 -8 -5 4 -7 -3
-4 -15 6 -23 -15 -43 -32 -30 -5 5 -23 11 -40 15 -16 4 -34 13 -38 19 -5 7 -7
1 -4 -15 2 -15 0 -25 -4 -22 -5 3 -9 10 -9 15 0 6 -6 16 -12 24 -32 33 -48 57
-54 80 -3 14 -10 22 -15 19 -10 -6 -75 65 -71 78 1 4 -3 8 -9 8 -6 0 -54 42
-107 94 -82 79 -190 176 -227 204 -17 14 -167 117 -184 127 -9 6 -18 12 -21
15 -8 9 -62 31 -66 27 -2 -2 14 -14 37 -28 41 -25 73 -48 199 -142 82 -61 268
-240 370 -356 36 -41 70 -79 75 -85 66 -73 172 -240 243 -382 159 -320 245
-668 241 -976 l-2 -93 -8 120 c-21 293 -60 487 -144 714 -120 325 -292 584
-569 855 -336 329 -799 575 -1257 670 -318 66 -766 59 -1054 -15 -521 -134
-970 -410 -1315 -808 -167 -193 -279 -363 -391 -593 -51 -103 -131 -343 -158
-472 -11 -55 -24 -102 -27 -105 -4 -3 -4 8 0 24 13 51 38 198 42 240 l3 40 -9
-44 c-12 -57 -17 -61 -25 -17 -4 20 -13 36 -21 36 -21 0 -39 41 -23 51 11 7
11 9 1 9 -16 0 -72 -60 -72 -77 0 -6 -4 -15 -10 -18 -7 -4 -7 3 0 20 6 15 10
36 9 48 0 13 -6 4 -15 -23 -8 -25 -12 -53 -10 -63 2 -9 0 -15 -5 -11 -5 3 -9
3 -9 1 0 -2 -9 -48 -20 -101 -38 -183 -52 -317 -55 -551 -3 -211 -5 -234 -26
-279 -19 -44 -21 -61 -15 -135 31 -430 395 -1074 806 -1425 261 -224 389 -313
612 -427 555 -282 1117 -372 1729 -279 533 82 1011 316 1469 719 l85 75 -75
-78 c-149 -154 -350 -305 -577 -435 -555 -315 -1214 -418 -1892 -294 -364 66
-812 262 -1111 486 -171 129 -324 266 -457 410 -315 340 -541 795 -620 1242
-27 152 -28 175 -27 460 0 279 2 310 26 445 94 518 305 934 667 1315 294 310
628 548 1002 714 303 134 564 198 922 227 43 3 75 10 71 15 -8 14 35 28 89 28
34 1 52 -4 67 -19z m1720 -70 c26 -26 25 -48 -2 -77 -54 -58 -107 7 -57 71 25
31 33 32 59 6z m-3600 -32 c24 -40 25 -56 3 -80 -23 -26 -58 -22 -82 8 -26 33
-27 58 -1 84 29 29 57 25 80 -12z m3764 -91 c22 -35 -37 -102 -71 -81 -42 26
-15 108 34 102 14 -2 31 -11 37 -21z m-3930 -49 l21 -37 -34 -35 c-44 -45 -64
-49 -96 -20 -32 30 -32 64 1 104 37 44 78 39 108 -12z m4076 -68 c9 -16 5 -26
-22 -55 -32 -34 -34 -35 -55 -20 -30 21 -29 60 2 91 20 20 29 23 45 14 11 -6
24 -19 30 -30z m-4296 -81 c34 -40 33 -62 -5 -93 -29 -24 -32 -25 -59 -11 -55
28 -66 81 -24 114 37 29 58 26 88 -10z m4406 -24 c22 -23 22 -25 6 -49 -26
-40 -54 -51 -77 -30 -25 22 -24 45 2 78 25 32 39 33 69 1z m-6067 -42 c-7 -2
-21 -2 -30 0 -10 3 -4 5 12 5 17 0 24 -2 18 -5z m134 1 c-3 -3 -12 -4 -19 -1
-8 3 -5 6 6 6 11 1 17 -2 13 -5z m1398 -69 c29 -28 32 -51 8 -77 -21 -24 -42
-23 -70 4 -27 25 -29 54 -6 80 22 24 39 23 68 -7z m4649 -1 c30 -29 17 -71
-31 -98 -18 -10 -43 22 -43 54 0 18 8 34 22 44 28 20 33 20 52 0z m-5794 -110
c0 -15 -6 -24 -15 -24 -15 0 -21 40 -9 53 12 11 24 -3 24 -29z m-830 -18 c0
-3 -9 -6 -19 -6 -14 0 -18 5 -14 20 4 16 7 17 19 5 8 -7 14 -16 14 -19z m8554
28 c23 -9 20 -34 -4 -34 -13 0 -20 7 -20 20 0 22 1 23 24 14z m-6710 -25 c28
-22 33 -48 16 -80 -14 -25 -48 -24 -77 3 -28 26 -29 52 -3 78 25 25 31 25 64
-1z m2756 1 c160 -22 314 -57 405 -90 243 -89 408 -166 456 -212 8 -7 46 -34
86 -60 41 -27 74 -57 78 -70 4 -13 15 -31 24 -42 9 -10 -36 18 -99 62 -408
286 -871 412 -1404 381 -493 -29 -976 -238 -1367 -592 -248 -224 -438 -506
-559 -827 -22 -58 -40 -99 -40 -92 -1 60 207 522 249 552 4 3 16 20 26 38 11
17 23 32 27 32 4 0 8 7 8 15 0 8 3 15 8 15 4 0 20 23 36 52 34 60 41 70 121
156 90 98 143 146 215 195 36 24 100 70 144 101 43 31 82 56 87 56 4 0 27 13
51 28 246 164 622 285 959 312 126 10 388 4 489 -10z m2154 -32 c8 -23 6 -32
-14 -53 -13 -14 -28 -25 -33 -25 -18 0 -47 33 -47 53 0 56 76 76 94 25z
m-2169 -68 c198 -29 465 -110 625 -190 176 -89 376 -225 505 -346 59 -55 45
-47 -50 28 -209 163 -243 187 -232 156 2 -7 10 -12 17 -10 6 1 14 -7 17 -18 3
-11 10 -20 16 -20 6 0 7 -3 4 -6 -4 -4 -13 -1 -22 6 -8 7 -15 8 -15 2 0 -5 7
-15 15 -22 9 -7 14 -18 12 -24 -2 -6 2 -15 9 -21 7 -5 14 -17 16 -25 2 -8 28
-34 58 -59 135 -111 295 -269 365 -361 27 -36 52 -67 55 -70 8 -7 39 -60 58
-100 9 -19 20 -37 23 -40 9 -8 69 -138 69 -149 0 -6 5 -11 10 -11 6 0 10 -9
10 -19 0 -11 5 -23 10 -26 6 -3 10 -12 10 -18 0 -8 -2 -9 -8 -1 -4 6 -20 14
-37 18 l-30 7 22 -20 c12 -12 26 -21 31 -21 5 0 7 -12 5 -27 l-4 -28 16 25
c15 25 15 25 9 -13 -5 -32 -4 -36 11 -31 15 6 16 2 11 -27 -5 -25 -4 -30 3
-19 9 12 11 11 11 -7 0 -13 -4 -23 -10 -23 -5 0 -10 -7 -10 -15 0 -9 9 -15 21
-15 19 0 20 -2 8 -17 -12 -15 -12 -16 4 -10 11 4 16 3 12 -3 -3 -6 -22 -10
-42 -10 -22 0 -41 -7 -50 -17 -13 -17 -14 -17 -11 2 2 11 14 22 28 25 l25 6
-24 13 c-32 17 -41 2 -36 -61 1 -26 -1 -51 -6 -54 -5 -3 -9 -15 -10 -27 0 -12
-14 28 -30 90 -27 104 -54 183 -94 276 -9 22 -11 36 -6 33 7 -4 6 5 -1 25 -8
23 -13 27 -19 17 -10 -15 -10 -14 -13 25 -1 16 -9 33 -19 38 -22 13 -50 67
-41 81 4 6 3 8 -3 5 -6 -4 -26 16 -44 46 -18 28 -51 73 -72 99 -25 29 -36 52
-31 60 4 7 4 10 -1 6 -9 -9 -39 28 -49 59 -4 12 -16 25 -27 28 -17 6 -18 9 -7
23 12 15 11 16 -4 4 -9 -8 -21 -11 -26 -8 -6 3 -15 -1 -22 -9 -12 -15 -44 -9
-34 6 3 5 9 7 14 4 5 -3 11 -1 14 4 8 13 -19 8 -37 -7 -12 -10 -22 -6 -57 23
-57 48 -60 44 -5 -8 44 -42 62 -86 30 -73 -9 3 -15 0 -15 -9 0 -8 -33 -38 -72
-68 -40 -30 -118 -97 -174 -150 l-101 -96 -39 41 c-44 47 -158 133 -224 171
-139 79 -396 157 -517 157 -24 0 -44 1 -45 3 0 1 -5 94 -9 207 -4 113 -11 225
-16 250 l-9 45 -7 -70 c-4 -38 -7 -244 -7 -456 0 -388 -6 -532 -21 -494 -4 11
-8 155 -8 320 -1 363 -11 646 -23 639 -4 -3 -8 -98 -8 -212 0 -114 -4 -212 -8
-218 -4 -6 -37 -14 -74 -18 -229 -23 -527 -156 -676 -302 l-64 -61 -76 71
c-109 102 -159 146 -219 191 -58 43 -58 49 -4 110 16 18 18 23 5 12 -26 -21
-38 -22 -30 -1 6 14 4 15 -9 4 -13 -11 -13 -15 -3 -22 10 -7 10 -9 -2 -5 -8 2
-13 12 -12 23 3 17 1 16 -22 -5 -25 -24 -25 -25 -8 -45 16 -20 16 -20 -3 -6
-11 8 -30 23 -42 34 -13 11 -26 16 -30 12 -5 -5 23 -36 61 -70 38 -33 169
-154 290 -267 231 -216 382 -350 444 -397 20 -15 39 -29 42 -32 3 -3 26 -23
50 -45 44 -39 44 -39 12 -4 l-33 36 43 35 c122 99 228 139 388 145 180 8 294
-29 431 -137 57 -45 58 -45 85 -25 24 18 38 19 28 3 -5 -9 -2 -8 9 1 10 8 15
16 12 19 -3 3 7 13 23 22 35 22 207 176 459 412 111 104 227 210 257 235 31
25 53 49 50 54 -9 15 13 10 26 -6 11 -13 -7 -35 -116 -143 -202 -200 -536
-503 -646 -586 -21 -16 -35 -33 -31 -39 3 -6 1 -7 -5 -3 -11 7 -43 -12 -104
-60 -15 -12 -25 -24 -22 -26 5 -5 -60 -58 -71 -58 -3 0 -3 6 1 13 6 9 3 8 -8
-1 -9 -8 -15 -19 -12 -26 6 -15 -39 -58 -57 -54 -8 2 -13 -3 -11 -10 1 -6 -20
-26 -48 -43 -28 -17 -57 -40 -65 -52 l-15 -21 -37 21 c-67 37 -117 46 -160 28
-21 -9 -48 -26 -61 -37 l-22 -22 -43 40 c-192 182 -243 227 -397 354 -172 141
-356 304 -525 463 -200 189 -216 206 -237 237 l-17 25 0 -28 c-1 -20 -18 -48
-55 -90 -129 -148 -263 -395 -334 -617 -48 -149 -51 -159 -68 -275 l-13 -90 5
79 c5 80 20 157 49 250 8 27 13 59 10 72 -3 13 -7 36 -10 50 -4 16 -2 23 5 19
5 -3 10 -23 11 -43 0 -34 1 -35 10 -13 11 27 4 58 -18 79 -12 13 -15 11 -20
-9 -6 -22 -9 -19 -30 26 -13 28 -22 40 -19 28 2 -13 0 -26 -5 -29 -5 -3 -9 0
-9 7 0 8 -5 7 -16 -2 -15 -12 -16 -11 -9 11 16 54 68 168 106 233 21 38 39 73
39 78 0 5 5 9 10 9 6 0 10 5 10 10 0 12 48 80 94 136 16 19 25 38 22 42 -4 4
-12 -1 -17 -11 -6 -9 -15 -17 -20 -17 -6 0 -3 7 6 16 9 9 14 23 11 30 -4 9 2
14 17 15 16 0 18 2 7 7 -8 4 -16 13 -18 20 -1 8 2 11 7 8 14 -9 61 12 60 26 0
10 -2 10 -6 1 -9 -23 -24 -14 -19 11 2 13 23 44 45 68 23 23 41 46 41 51 0 7
-95 -91 -157 -163 -37 -43 -157 -216 -198 -285 -46 -78 -85 -162 -126 -270
-46 -120 -51 -112 -8 12 223 637 770 1129 1459 1312 105 28 254 54 370 65 72
6 368 -3 445 -14z m-2851 -61 c30 -24 33 -45 9 -71 -30 -34 -93 -13 -93 31 0
59 37 77 84 40z m6837 9 c1 -2 4 -61 8 -133 4 -71 9 -137 12 -145 3 -11 -3
-15 -21 -15 l-25 0 -3 125 c-3 130 1 170 18 170 6 0 10 -1 11 -2z m-8583 -159
l-3 -134 -27 -3 c-20 -2 -28 1 -28 12 0 9 4 16 9 16 5 0 12 53 16 118 7 131
11 150 26 135 6 -6 8 -64 7 -144z m6886 129 c14 -24 -3 -69 -32 -79 -43 -16
-83 56 -50 89 17 17 69 11 82 -10z m-7612 -5 c10 -9 18 -25 18 -36 0 -25 -27
-57 -48 -57 -22 0 -52 30 -52 52 0 53 45 75 82 41z m2349 -142 c29 -29 30 -47
6 -78 -15 -20 -65 -15 -87 7 -16 16 -18 24 -9 47 10 28 35 53 52 53 5 0 22
-13 38 -29z m5376 -17 c15 -24 15 -29 2 -53 -11 -19 -23 -26 -44 -26 -21 0
-33 7 -44 26 -13 24 -13 29 2 53 11 16 27 26 42 26 15 0 31 -10 42 -26z m1750
-90 c-3 -3 -12 -4 -19 -1 -8 3 -5 6 6 6 11 1 17 -2 13 -5z m86 -1 c-7 -2 -19
-2 -25 0 -7 3 -2 5 12 5 14 0 19 -2 13 -5z m-3119 -62 c-2 -3 -12 3 -22 13
-16 17 -16 18 5 5 12 -7 20 -15 17 -18z m1380 3 c24 -24 20 -61 -9 -80 -23
-15 -27 -15 -50 0 -42 28 -24 96 25 96 10 0 26 -7 34 -16z m1523 -85 c10 -10
513 -17 513 -8 0 15 65 37 81 28 31 -16 49 -40 49 -63 0 -51 -82 -83 -116 -45
-16 18 -34 19 -266 19 -146 0 -257 4 -268 10 -30 16 -43 71 -29 122 l12 43 8
-49 c4 -27 12 -53 16 -57z m-8650 20 c-3 -23 -15 -52 -28 -65 l-22 -24 -254 0
c-241 0 -255 -1 -276 -20 -40 -38 -107 -7 -107 50 0 54 77 84 118 47 16 -15
50 -17 275 -17 l257 0 6 28 c6 23 20 41 33 42 2 0 1 -18 -2 -41z m1525 14 c26
-24 23 -59 -8 -80 -24 -15 -29 -15 -53 -2 -31 17 -38 43 -20 75 15 28 54 32
81 7z m-1206 -49 c39 -40 45 -85 18 -135 -17 -35 -74 -63 -107 -54 -86 24
-120 92 -82 165 21 40 53 60 99 60 31 0 45 -7 72 -36z m8114 8 c83 -84 12
-222 -98 -192 -58 15 -77 42 -77 107 0 49 3 58 33 84 45 40 102 41 142 1z
m-1870 -115 c0 -5 -4 -5 -10 -2 -5 3 -10 14 -10 23 0 15 2 15 10 2 5 -8 10
-19 10 -23z m673 5 c9 -8 17 -22 17 -30 0 -25 -31 -52 -60 -52 -51 0 -61 72
-13 99 19 10 27 7 56 -17z m-5805 -38 c29 -20 28 -48 -4 -73 -34 -27 -84 -9
-84 31 0 53 43 74 88 42z m-2119 -71 c20 -17 49 -18 369 -13 191 3 356 4 367
2 22 -4 166 -131 149 -132 -6 0 -41 27 -77 60 l-65 60 -358 -2 -358 -3 -8 -33
c-9 -34 -40 -54 -68 -44 -50 17 -65 67 -30 102 25 25 51 25 79 3z m9577 -20
l-340 -3 -67 -65 c-89 -86 -103 -83 -20 4 l66 70 350 -2 350 -2 -339 -2z
m-1566 -73 c0 -34 -17 -50 -52 -50 -21 0 -32 7 -40 26 -14 30 -4 53 33 71 19
10 27 9 41 -4 10 -9 18 -28 18 -43z m-612 25 c-3 -3 -9 2 -12 12 -6 14 -5 15
5 6 7 -7 10 -15 7 -18z m-5349 -44 c37 -37 -7 -103 -57 -85 -21 7 -28 17 -30
42 -2 18 2 40 9 48 16 20 56 17 78 -5z m2901 -35 c0 -9 -30 -18 -102 -29 -57
-9 -141 -29 -188 -45 -155 -53 -341 -157 -423 -238 -36 -35 -37 -38 -21 -55
10 -11 21 -19 25 -19 5 0 46 27 91 61 45 33 95 67 111 75 34 18 23 30 139
-143 46 -68 86 -123 90 -123 24 0 -1 58 -75 175 l-84 132 26 11 c14 6 52 22
84 36 70 30 182 55 262 59 l59 2 8 -40 c4 -22 7 -113 7 -202 l1 -162 -57 -11
c-139 -27 -234 -68 -325 -140 l-47 -37 -184 180 -184 180 56 50 c103 91 192
144 347 210 152 65 384 109 384 73z m321 -10 c90 -21 194 -58 268 -95 75 -37
239 -145 294 -193 l38 -34 -98 -95 c-54 -53 -141 -136 -195 -186 l-96 -91 -44
41 c-75 72 -198 127 -340 151 l-38 7 0 187 c0 103 3 196 6 208 l5 20 117 -18
c64 -10 125 -23 134 -28 10 -6 25 -10 33 -10 9 0 30 -7 47 -16 17 -9 42 -18
57 -20 14 -3 30 -9 35 -14 6 -6 -23 -61 -70 -137 -97 -155 -108 -179 -89 -187
10 -3 24 11 42 42 41 71 163 252 170 252 10 0 136 -85 181 -124 50 -41 54 -42
77 -20 25 26 15 44 -58 99 -185 141 -389 222 -629 250 -43 5 -58 10 -58 22 0
14 11 15 73 10 40 -4 102 -13 138 -21z m-4952 -21 c16 -8 31 -21 34 -30 6 -13
48 -15 332 -15 l327 0 29 -30 c24 -23 28 -34 23 -57 -9 -36 -22 -53 -54 -65
-21 -8 -28 -5 -47 17 -24 27 -30 74 -14 91 6 5 -100 10 -289 11 l-298 3 -17
-26 c-51 -78 -161 -21 -125 66 21 50 51 60 99 35z m9440 -21 c34 -43 26 -86
-20 -110 -26 -13 -33 -13 -64 2 -19 9 -37 24 -40 35 -6 17 -17 19 -128 19 -67
0 -193 -3 -279 -7 -154 -6 -157 -7 -152 -27 8 -35 -12 -75 -42 -82 -23 -6 -32
-1 -57 26 -33 37 -31 72 5 103 18 15 50 17 330 17 l310 0 20 25 c28 36 89 35
117 -1z m-1704 -14 c40 -44 -23 -113 -67 -73 -26 23 -20 64 12 80 33 17 34 16
55 -7z m-6082 -84 c20 -15 23 -56 5 -74 -19 -19 -65 -14 -82 9 -35 50 27 103
77 65z m1797 -91 c7 -19 17 -35 22 -35 4 0 8 -4 8 -10 0 -10 26 -41 98 -118
23 -25 42 -42 42 -38 0 5 7 3 15 -4 20 -17 19 -21 -11 -66 -49 -71 -122 -218
-147 -294 -31 -93 -57 -226 -57 -291 0 -27 -3 -49 -7 -49 -85 -1 -552 -1 -561
-1 -7 1 -10 6 -7 11 4 6 12 10 18 9 7 -1 42 -1 80 0 l67 1 0 44 c0 68 28 212
60 307 63 190 198 434 297 540 50 54 60 53 83 -6z m2602 -2 c33 -35 116 -169
168 -271 88 -173 154 -404 162 -564 l2 -48 60 -1 c60 -1 130 -14 111 -20 -5
-1 -141 -3 -301 -3 l-291 -1 -7 77 c-15 174 -84 379 -178 525 -53 81 -64 100
-54 91 5 -4 20 4 35 18 14 13 34 27 44 30 9 3 17 9 17 14 0 5 27 37 60 72 33
34 60 66 60 70 0 4 12 18 27 32 30 28 42 25 85 -21z m1738 -13 c11 -11 20 -28
20 -37 0 -41 -64 -71 -87 -40 -23 29 -23 48 2 73 29 29 39 30 65 4z m-5893
-32 c-3 -7 -5 -2 -5 12 0 14 2 19 5 13 2 -7 2 -19 0 -25z m-279 -72 c5 -24
-25 -66 -46 -66 -10 0 -28 7 -41 16 -17 13 -21 22 -16 43 10 41 31 53 69 37
17 -7 32 -20 34 -30z m-1960 14 c17 -11 32 -24 32 -29 0 -5 242 -11 553 -14
303 -4 572 -10 597 -15 l45 -8 -50 -9 c-27 -4 -296 -5 -598 -1 l-548 8 -20
-26 c-25 -31 -54 -33 -69 -5 -7 12 -18 18 -26 15 -25 -10 -17 52 11 79 29 30
31 30 73 5z m7035 -150 c26 -63 55 -153 66 -200 19 -81 44 -289 44 -357 -1
-25 4 -33 17 -33 9 0 20 -3 23 -6 4 -4 76 -6 161 -5 l155 2 7 -25 c15 -59 12
-60 -141 -58 -77 2 -148 5 -157 8 -10 3 -18 1 -18 -4 0 -5 -9 -12 -19 -15 -33
-8 -54 27 -58 96 -18 338 -49 503 -127 689 -17 40 -21 63 -7 38 5 -8 29 -67
54 -130z m1141 54 c32 -31 11 -84 -32 -84 -35 0 -52 16 -52 50 0 14 5 31 12
38 17 17 54 15 72 -4z m-5897 -66 c-3 -8 -6 -5 -6 6 -1 11 2 17 5 13 3 -3 4
-12 1 -19z m-1778 -14 c28 -36 26 -68 -5 -93 -34 -27 -50 -26 -79 4 -32 31
-31 46 1 84 32 38 56 39 83 5z m173 -4 l30 -30 142 0 c173 0 357 -10 351 -20
-7 -11 -290 -19 -404 -12 -100 7 -106 6 -127 -15 -28 -28 -44 -29 -78 -2 -33
26 -33 40 0 78 32 39 48 39 86 1z m1230 13 c10 -9 18 -24 18 -33 0 -27 -35
-52 -67 -48 -24 3 -28 8 -31 36 -6 57 39 82 80 45z m695 -20 c-3 -10 -5 -4 -5
12 0 17 2 24 5 18 2 -7 2 -21 0 -30z m3483 -43 c116 -182 169 -368 170 -600 0
-198 -41 -371 -130 -551 -43 -87 -138 -231 -155 -235 -5 -2 -23 8 -40 22 -16
15 -24 23 -17 19 7 -4 19 -1 27 5 9 8 15 8 15 2 0 -6 -5 -12 -12 -14 -7 -3 -8
-7 -3 -10 6 -3 25 15 44 40 19 25 28 41 20 37 -8 -4 -2 5 13 21 46 50 95 141
137 257 76 208 93 348 66 541 -21 154 -53 253 -131 406 -60 118 -70 140 -60
140 2 0 27 -36 56 -80z m3364 59 c31 -25 34 -61 6 -89 -25 -25 -62 -26 -84 -1
-16 17 -34 19 -244 18 -231 0 -328 10 -227 24 28 4 139 8 247 8 l196 1 30 30
c36 36 41 36 76 9z m-5477 -135 c-36 -71 -74 -160 -86 -199 -65 -209 -68 -448
-9 -650 51 -176 159 -400 182 -378 4 5 6 3 5 -2 -6 -19 13 -56 26 -52 7 3 17
1 23 -5 7 -7 35 13 89 65 43 41 124 116 181 168 99 90 114 110 91 125 -19 11
-86 164 -104 236 -10 37 -23 73 -31 79 -14 12 -68 4 -60 -9 2 -4 -2 -13 -10
-20 -12 -11 -14 -10 -14 3 0 8 -4 15 -10 15 -5 0 -10 10 -10 22 0 12 -2 19 -5
16 -3 -2 1 -50 8 -107 8 -56 11 -104 7 -106 -4 -2 -50 -20 -103 -39 -53 -19
-106 -40 -117 -46 -12 -6 -23 -10 -25 -8 -8 8 -37 170 -46 252 -6 61 -6 92 1
96 6 4 69 5 140 3 125 -3 130 -3 130 17 0 19 -6 20 -135 20 l-135 0 0 33 c0
44 15 141 35 232 14 64 20 75 34 69 9 -4 63 -25 121 -46 58 -22 109 -43 114
-48 4 -4 26 27 48 71 41 82 52 93 63 59 3 -10 23 -29 43 -41 20 -12 39 -24 41
-25 2 -2 -10 -27 -27 -56 -79 -138 -83 -341 -10 -500 12 -27 25 -48 30 -48 5
0 7 -4 4 -8 -3 -5 5 -7 17 -6 12 1 22 3 22 4 0 1 23 2 52 3 29 0 50 4 47 9 -3
4 -1 8 4 8 5 0 -4 39 -20 86 -26 80 -35 174 -16 174 4 0 10 10 14 23 3 12 14
31 23 41 9 11 10 16 4 12 -7 -4 -13 -3 -13 3 0 5 6 14 14 18 7 4 15 14 17 21
2 6 4 -39 4 -100 0 -102 3 -119 28 -172 42 -91 39 -91 115 -17 106 101 113
105 125 62 5 -21 -43 -70 -413 -421 -262 -249 -287 -272 -559 -519 -134 -121
-247 -221 -252 -221 -5 0 -9 5 -9 11 0 15 364 379 483 484 50 44 119 107 154
139 35 33 66 57 69 53 3 -3 -6 -17 -21 -31 -16 -15 -24 -26 -19 -26 17 0 370
369 356 372 -15 3 -213 -187 -209 -201 2 -8 -89 -111 -99 -111 -4 0 8 16 25
35 17 20 31 39 31 42 0 6 -37 -28 -185 -169 -64 -61 -122 -101 -135 -93 -6 4
-10 3 -9 -2 5 -31 -10 -14 -77 87 -103 155 -165 301 -194 458 -17 96 -16 363
3 452 25 123 107 320 171 408 51 72 40 32 -27 -104z m5663 127 c18 -35 12 -77
-15 -95 -35 -23 -61 -20 -84 10 -25 32 -26 52 -5 82 20 30 88 31 104 3z
m-7363 -33 c-3 -7 -5 -2 -5 12 0 14 2 19 5 13 2 -7 2 -19 0 -25z m190 -40 c-3
-8 -6 -5 -6 6 -1 11 2 17 5 13 3 -3 4 -12 1 -19z m1712 -58 c5 0 33 -19 61
-41 l53 -41 -6 -60 c-3 -33 -9 -64 -14 -69 -7 -7 -195 60 -223 79 -6 4 37 84
73 133 29 39 31 40 38 20 5 -11 13 -21 18 -21z m4055 -22 c20 -57 -57 -93 -90
-43 -15 23 -15 27 0 51 24 36 76 31 90 -8z m-2245 -48 l31 -56 -102 -42 c-110
-45 -111 -45 -123 16 -7 38 9 63 59 89 17 9 36 22 44 29 7 8 20 14 28 14 8 0
14 5 14 12 0 18 14 0 49 -62z m-4109 20 c24 -24 24 -29 4 -58 -17 -24 -62 -30
-82 -10 -29 29 -2 88 39 88 10 0 28 -9 39 -20z m3896 -140 c15 -30 29 -56 30
-58 0 -1 53 18 117 43 63 25 119 45 124 45 12 0 54 -184 60 -267 l6 -73 -135
0 c-113 0 -135 -2 -135 -15 0 -12 21 -15 121 -16 67 -1 132 -5 146 -9 14 -4
20 -8 14 -9 -6 -1 -12 -25 -12 -58 -1 -32 -11 -108 -23 -169 -20 -107 -22
-111 -45 -106 -13 2 -21 9 -17 15 4 7 0 8 -11 4 -10 -4 -27 -2 -39 5 -12 7
-28 13 -34 14 -19 3 -107 36 -115 44 -4 3 -1 41 7 84 17 90 19 162 5 171 -5 3
-10 -2 -10 -12 -1 -17 -2 -17 -15 1 -8 11 -15 14 -15 8 0 -7 -7 -12 -15 -12
-8 0 -15 6 -15 13 0 8 -4 7 -10 -3 -9 -13 -11 -13 -19 -1 -7 10 -11 0 -16 -35
-13 -91 -36 -169 -76 -249 -65 -134 -56 -132 -151 -38 -46 44 -92 88 -104 97
l-21 18 27 51 c39 73 53 146 48 236 -6 84 6 69 18 -23 6 -51 9 -57 20 -42 11
16 13 16 19 -5 6 -17 9 -19 16 -8 29 46 -11 -132 -46 -204 -16 -33 -21 -55
-15 -61 7 -7 10 -6 10 0 0 5 8 10 18 11 9 1 37 3 62 6 25 2 50 -1 57 -6 19
-14 29 -2 57 69 55 137 57 297 6 440 -33 91 -33 93 7 129 20 19 40 32 45 29 4
-3 5 3 1 13 -12 35 23 -9 53 -67z m1144 46 c0 -3 -4 -8 -10 -11 -5 -3 -10 -1
-10 4 0 6 5 11 10 11 6 0 10 -2 10 -4z m-3933 -38 c-3 -8 -6 -5 -6 6 -1 11 2
17 5 13 3 -3 4 -12 1 -19z m3903 -28 c-7 -17 -15 -29 -17 -26 -3 3 1 18 8 35
17 39 26 31 9 -9z m1356 16 c22 -34 1 -80 -38 -84 -36 -4 -66 48 -49 84 15 33
65 33 87 0z m-6149 -43 c-3 -10 -5 -4 -5 12 0 17 2 24 5 18 2 -7 2 -21 0 -30z
m-237 -14 c7 -11 9 -32 6 -45 -6 -21 -12 -24 -51 -24 -43 0 -45 1 -45 29 0 49
9 61 46 61 24 0 37 -6 44 -21z m5027 -31 c-3 -7 -5 -2 -5 12 0 14 2 19 5 13 2
-7 2 -19 0 -25z m-4909 -58 l42 0 0 -52 c0 -100 9 -95 -158 -90 -93 3 -150 9
-154 16 -4 6 -8 37 -8 68 l0 57 98 4 c53 2 106 2 117 0 11 -1 39 -3 63 -3z
m-970 -29 c89 0 162 -5 162 -10 0 -13 -324 -23 -535 -15 -107 4 -195 11 -195
15 0 11 85 15 260 13 80 -1 218 -2 308 -3z m7242 -81 l0 -88 -47 4 c-27 2 -60
6 -75 9 -18 3 -28 0 -28 -8 0 -8 -4 -7 -10 3 -8 12 -12 13 -19 2 -5 -9 -10 13
-13 58 -8 114 -11 111 98 109 l94 -1 0 -88z m1274 83 c77 -4 104 -9 96 -17
-15 -15 -698 -15 -720 -1 -11 7 5 12 60 16 113 8 443 10 564 2z m-4440 -27
c141 -59 115 -253 -36 -274 -28 -3 -51 0 -73 12 -37 20 -85 90 -85 123 0 39
25 87 64 121 41 36 76 41 130 18z m-2139 -73 c8 -34 -2 -62 -23 -58 -9 2 -20
4 -24 4 -13 2 -9 79 5 84 20 7 35 -3 42 -30z m-69 -28 c-6 -23 -8 -23 -146
-24 l-140 -2 0 30 c0 38 8 40 160 44 124 2 137 -3 126 -48z m4901 -57 c-3 -7
-5 -2 -5 12 0 14 2 19 5 13 2 -7 2 -19 0 -25z m-642 -163 c-15 -226 -119 -544
-263 -800 -50 -89 -149 -232 -198 -285 -17 -19 -38 -47 -45 -61 -8 -15 -30
-45 -50 -66 -40 -44 -68 -66 -53 -42 4 8 -10 -3 -31 -25 -22 -21 -39 -43 -37
-48 1 -5 -2 -6 -9 -3 -6 4 -18 -3 -26 -15 -21 -30 -191 -155 -297 -219 -389
-235 -891 -343 -1331 -285 -167 21 -288 49 -445 100 -178 59 -302 120 -490
244 -296 196 -510 448 -677 798 -118 247 -187 478 -207 696 -6 75 10 35 33
-80 29 -148 40 -188 78 -303 112 -338 265 -598 488 -830 232 -242 537 -422
883 -522 127 -37 309 -60 517 -66 354 -10 630 41 925 171 384 170 736 493 932
856 19 36 44 81 55 100 39 70 115 274 156 420 22 77 57 276 57 322 0 22 5 60
12 86 l12 47 8 -50 c5 -27 6 -90 3 -140z m-3375 164 c0 -13 -560 -10 -595 2
-11 4 118 8 288 8 217 1 307 -2 307 -10z m2980 1 c0 -14 -417 -13 -425 1 -4 5
79 9 209 9 142 0 216 -4 216 -10z m205 1 c-27 -3 -84 -3 -125 0 -63 5 -54 6
50 6 77 0 106 -2 75 -6z m575 -216 c-43 -516 -179 -881 -468 -1255 -120 -155
-294 -320 -472 -447 -213 -152 -473 -285 -712 -363 -292 -96 -718 -141 -1048
-110 -357 33 -407 42 -628 116 -145 49 -355 141 -448 197 -223 132 -400 258
-389 277 3 5 0 12 -6 16 -8 5 -9 3 -4 -6 5 -8 3 -11 -6 -8 -8 3 -13 11 -12 17
2 6 -1 10 -5 8 -10 -3 -222 194 -222 206 0 5 8 3 18 -4 9 -7 -3 8 -28 34 -24
26 -46 47 -49 47 -3 0 11 -17 30 -37 18 -20 25 -31 14 -23 -45 34 -98 104 -62
84 7 -4 9 -3 4 2 -5 5 -14 9 -20 9 -22 0 -158 207 -232 352 -84 163 -180 397
-190 458 -6 40 -6 40 19 -15 21 -46 25 -51 26 -27 0 15 4 27 9 27 5 0 7 -10 4
-21 -5 -19 -4 -20 16 -10 12 7 27 9 33 5 6 -4 17 1 24 10 10 15 22 -4 88 -138
77 -158 196 -345 307 -483 87 -109 121 -143 132 -136 6 3 7 2 4 -4 -7 -10 182
-200 268 -269 55 -45 170 -124 180 -124 3 0 4 4 0 9 -3 5 -1 12 4 16 6 3 8 -3
6 -14 -4 -21 21 -44 82 -73 22 -11 34 -13 42 -5 8 8 11 7 11 -2 0 -8 6 -11 16
-7 9 3 12 2 9 -5 -4 -6 -13 -8 -21 -5 -30 12 -12 -5 26 -23 22 -11 37 -15 34
-9 -4 6 -1 8 7 6 8 -3 13 -10 12 -16 -1 -5 4 -13 13 -16 10 -4 13 -2 8 7 -5 9
-4 9 7 0 7 -7 20 -13 29 -13 8 0 23 -9 33 -20 12 -14 24 -18 46 -14 17 4 31 1
36 -6 5 -9 1 -10 -16 -6 -13 3 -6 -3 16 -13 22 -11 53 -20 68 -20 16 -1 26 -4
24 -8 -4 -7 131 -9 158 -3 6 1 21 2 35 1 18 -1 21 1 11 7 -20 14 21 25 62 17
31 -6 31 -5 12 10 -19 16 -19 16 10 9 17 -4 33 -11 36 -16 3 -5 14 -6 25 -2
15 5 16 4 4 -5 -8 -6 -24 -8 -35 -5 -16 4 -17 3 -5 -5 12 -8 6 -11 -25 -12
-22 0 -49 -4 -60 -9 -13 -5 -3 -7 30 -5 28 1 67 10 87 19 42 18 72 21 63 6 -4
-7 2 -9 17 -5 12 3 55 1 93 -5 39 -5 187 -15 330 -21 270 -11 420 -3 489 26
59 25 113 32 187 24 40 -5 76 -5 79 -1 3 4 25 9 49 9 49 2 62 10 41 23 -13 8
-12 10 2 10 9 0 20 -4 23 -10 9 -15 39 -12 61 6 18 15 18 15 -3 5 -32 -16 -41
-13 -16 4 12 8 36 17 52 19 25 3 31 0 31 -15 0 -11 -5 -19 -11 -19 -5 0 -7 5
-4 10 3 6 1 10 -4 10 -13 0 -14 -17 -2 -24 14 -9 42 5 35 16 -4 6 1 8 14 4 13
-4 26 0 38 11 10 10 19 16 21 14 7 -6 72 32 67 40 -2 4 3 10 12 13 9 4 12 2 8
-5 -3 -6 12 1 35 16 22 15 41 29 41 30 0 2 -10 1 -22 -1 -21 -4 -21 -4 -3 5
12 5 25 5 31 0 11 -9 64 34 64 52 0 5 5 9 12 9 6 0 3 -10 -8 -22 -10 -12 7 -2
39 21 58 44 73 60 38 41 -11 -5 -23 -10 -28 -10 -4 1 3 7 17 14 14 8 28 12 32
10 11 -7 120 75 114 85 -3 5 4 17 15 27 12 11 22 18 23 16 0 -2 9 0 19 4 14 5
15 9 6 20 -10 12 -8 13 6 8 10 -4 16 -3 13 2 -3 5 3 18 14 29 19 20 19 20 12
0 -4 -11 23 9 60 45 44 42 71 78 78 103 6 20 15 37 19 37 5 0 6 -8 2 -17 -3
-10 8 1 26 23 21 28 29 48 24 60 -5 13 -3 16 10 11 10 -4 21 3 33 21 10 15 24
33 31 41 8 7 12 20 9 27 -3 7 0 16 6 20 7 4 8 3 4 -4 -4 -7 -5 -12 -3 -12 2 0
17 19 32 41 22 34 24 43 13 51 -10 8 -9 9 4 5 18 -6 50 33 45 55 -2 7 -2 9 1
5 2 -5 11 1 19 12 8 12 11 26 7 33 -4 7 -3 8 4 4 7 -4 19 7 29 31 10 21 21 40
24 43 25 20 108 221 160 385 21 66 38 114 39 107 1 -30 -75 -272 -118 -379
-17 -41 -18 -51 -7 -46 10 3 15 -1 16 -13 1 -18 2 -18 6 -1 4 15 7 16 19 6 21
-17 27 -8 78 112 90 215 153 460 163 638 5 74 8 89 15 70 6 -15 5 -76 -2 -164z
m-2150 -13 c85 -87 175 -175 200 -197 25 -22 103 -95 174 -162 78 -75 135
-122 143 -119 8 3 12 2 9 -2 -3 -5 103 -116 235 -248 211 -210 295 -305 260
-293 -23 8 -357 316 -583 538 -132 130 -248 239 -257 242 -20 8 -371 364 -371
376 0 13 11 23 24 23 6 0 81 -71 166 -158z m-214 99 c-3 -5 -26 -18 -51 -30
-46 -22 -85 -25 -120 -12 -13 6 -2 8 35 8 38 -1 68 6 95 21 46 24 48 25 41 13z
m2611 -78 c-2 -16 -4 -3 -4 27 0 30 2 43 4 28 2 -16 2 -40 0 -55z m-3961 -83
c45 -174 87 -263 197 -419 l59 -84 -24 -21 c-12 -12 -67 -64 -120 -116 l-98
-93 -21 19 c-41 37 -150 179 -186 242 -19 34 -39 62 -44 62 -4 0 -6 7 -3 15 5
11 2 13 -10 9 -15 -6 -15 -8 -1 -24 8 -9 15 -24 15 -33 0 -8 6 -22 13 -29 21
-24 38 -58 32 -68 -7 -12 13 -62 23 -56 4 2 8 -5 8 -16 0 -19 -1 -19 -19 3
-39 49 -99 160 -93 174 3 8 0 14 -6 12 -28 -6 -134 313 -153 462 -7 50 -6 53
11 46 39 -17 279 -31 337 -20 22 4 29 1 37 -17 7 -19 9 -16 9 21 1 24 3 42 5
40 2 -2 16 -51 32 -109z m2589 54 c89 -3 122 -7 131 -17 4 -3 15 -2 25 3 10 6
20 6 23 2 3 -5 28 -6 56 -2 63 8 75 -3 66 -63 -10 -67 -63 -230 -107 -330 -45
-101 -107 -207 -121 -207 -5 0 -7 -4 -4 -9 3 -5 -6 -21 -21 -37 -15 -16 -25
-31 -23 -33 1 -2 -16 -28 -40 -58 -31 -40 -45 -51 -51 -42 -9 16 31 74 52 74
8 1 13 7 11 14 -1 7 2 10 8 6 5 -3 10 1 10 9 0 8 10 24 22 36 12 11 18 20 14
20 -4 0 2 13 14 30 12 16 18 35 14 41 -4 7 -3 9 3 6 13 -8 25 17 17 37 -3 7 2
30 10 51 23 54 19 57 -9 5 -13 -25 -22 -54 -19 -65 4 -14 3 -16 -4 -7 -6 9
-21 -6 -54 -55 -25 -37 -71 -99 -103 -136 l-56 -68 -53 48 c-28 26 -82 81
-120 120 l-68 73 49 67 c96 133 163 276 203 435 28 111 32 120 39 84 6 -30 6
-30 86 -32z m-4596 5 c-9 -5 1 -7 24 -4 33 4 37 3 37 -18 0 -29 -18 -47 -45
-47 -27 0 -45 18 -45 45 0 24 19 47 33 38 5 -3 3 -9 -4 -14z m-715 4 c44 -3
73 -10 68 -15 -8 -8 -811 -12 -820 -4 -2 3 -1 9 3 15 7 12 617 16 749 4z
m8546 -8 c0 -13 -47 -15 -364 -15 -201 0 -367 4 -370 9 -3 4 -3 11 1 15 3 3
170 6 370 6 316 0 363 -2 363 -15z m-7605 -27 c4 -3 17 -70 31 -149 42 -248
138 -547 248 -768 20 -40 33 -78 29 -84 -3 -5 -1 -7 4 -4 13 8 26 -20 16 -35
-3 -6 -1 -8 4 -5 6 4 14 0 17 -9 3 -8 2 -12 -4 -9 -6 3 -10 -1 -10 -10 0 -11
5 -15 15 -11 10 4 21 -7 35 -34 11 -21 24 -42 30 -45 6 -4 8 -11 4 -16 -3 -5
-1 -15 4 -22 13 -17 11 -49 -4 -72 -16 -23 -18 -39 -4 -30 6 3 10 2 10 -3 0
-5 9 -12 20 -15 14 -4 18 -10 13 -23 -6 -16 -8 -15 -24 4 -9 12 -22 22 -27 22
-21 0 -135 168 -127 188 3 7 1 11 -3 8 -11 -7 -104 173 -96 186 4 6 3 8 -3 5
-23 -15 -151 319 -208 545 -29 112 -65 314 -65 363 0 33 0 33 45 31 24 -1 47
-5 50 -8z m5732 -10 c-3 -8 -6 -5 -6 6 -1 11 2 17 5 13 3 -3 4 -12 1 -19z
m-3477 -33 c0 -7 16 -44 35 -82 l35 -68 -31 35 c-28 32 -30 33 -24 10 l6 -25
-15 25 c-9 14 -15 20 -16 14 0 -13 -86 -38 -100 -29 -13 8 -60 -24 -60 -42 0
-23 -36 3 -52 37 -7 16 -19 30 -27 30 -27 0 2 17 118 68 113 50 131 54 131 27z
m1646 -42 c-2 -2 -19 3 -37 11 -19 8 -49 20 -66 26 -18 7 -33 16 -33 21 0 4
32 -6 70 -23 39 -17 68 -33 66 -35z m2154 23 c0 -94 -71 -404 -137 -596 -41
-121 -52 -145 -53 -115 0 16 -2 17 -10 5 -11 -18 -17 -13 -24 25 -4 21 -4 24
2 11 8 -18 9 -18 15 -3 3 9 2 17 -4 17 -6 0 -8 10 -4 23 5 20 5 20 -6 3 -9
-15 -13 -16 -20 -5 -5 9 -7 -3 -5 -31 4 -43 4 -44 -9 -19 -12 23 -11 35 16
115 42 124 94 330 115 454 20 118 35 147 79 152 41 5 45 2 45 -36z m-2894 12
c35 -6 61 -15 58 -20 -3 -5 -29 -21 -57 -35 -46 -24 -64 -27 -147 -28 -93 0
-135 9 -188 43 -39 25 -11 34 125 42 70 4 132 8 137 8 5 1 37 -3 72 -10z
m2561 -40 c-3 -8 -6 -5 -6 6 -1 11 2 17 5 13 3 -3 4 -12 1 -19z m-380 -20 c-3
-8 -6 -5 -6 6 -1 11 2 17 5 13 3 -3 4 -12 1 -19z m370 -30 c-3 -8 -6 -5 -6 6
-1 11 2 17 5 13 3 -3 4 -12 1 -19z m-380 -10 c-3 -8 -6 -5 -6 6 -1 11 2 17 5
13 3 -3 4 -12 1 -19z m847 -4 c21 -20 20 -43 -1 -66 -20 -22 -41 -23 -65 -1
-21 18 -24 53 -6 71 17 17 54 15 72 -4z m-3282 -59 c115 -27 213 -16 330 37
l67 30 43 -33 c24 -19 54 -44 67 -56 14 -12 29 -19 35 -16 6 4 2 -4 -9 -17
-67 -76 -261 -140 -428 -140 -84 0 -216 30 -291 65 -47 22 -146 98 -121 93 16
-3 66 27 109 65 l39 36 49 -25 c26 -13 76 -31 110 -39z m-3036 30 c21 -33 15
-58 -19 -69 -36 -13 -61 2 -65 40 -7 52 55 74 84 29z m5841 -27 c-3 -7 -5 -2
-5 12 0 14 2 19 5 13 2 -7 2 -19 0 -25z m-10 -50 c-3 -8 -6 -5 -6 6 -1 11 2
17 5 13 3 -3 4 -12 1 -19z m-1862 -139 c17 -18 -14 7 -67 56 -54 48 -98 90
-98 93 0 6 131 -111 165 -149z m1845 54 c-14 -69 -105 -352 -121 -373 -9 -13
-10 -13 -5 0 48 141 108 335 117 381 6 33 14 58 16 55 3 -2 -1 -31 -7 -63z
m468 15 c7 -7 12 -24 12 -38 0 -34 -17 -50 -52 -50 -20 0 -32 7 -40 25 -22 48
43 100 80 63z m-7648 -68 l22 -31 -27 -34 c-33 -45 -66 -46 -97 -5 l-22 30
-168 0 c-110 0 -168 4 -168 10 0 7 58 10 170 10 l171 -2 20 26 c29 37 71 35
99 -4z m153 10 c23 -19 41 -20 254 -21 264 -2 227 -15 -56 -21 -166 -3 -174
-4 -183 -24 -9 -20 -46 -44 -67 -44 -5 0 -20 15 -34 33 l-26 34 29 31 c34 37
48 39 83 12z m1256 6 c16 -19 10 -66 -10 -79 -26 -16 -68 0 -75 29 -12 47 55
87 85 50z m3981 10 c0 -2 -8 -10 -17 -17 -16 -13 -17 -12 -4 4 13 16 21 21 21
13z m3720 -21 c23 -25 25 -25 209 -26 102 -1 197 -5 211 -9 14 -5 -64 -8 -186
-9 l-210 -1 -22 -30 c-33 -43 -74 -41 -105 5 l-24 36 26 29 c33 37 69 39 101
5z m-164 -10 c19 -29 11 -60 -21 -81 -31 -20 -61 -10 -80 27 l-16 29 -197 1
c-108 0 -206 4 -217 8 -31 12 173 22 309 15 108 -6 123 -5 129 10 10 27 73 21
93 -9z m-4861 -139 c5 -2 8 -6 4 -9 -3 -4 -33 11 -68 32 -88 55 -101 71 -16
22 38 -22 74 -42 80 -45z m980 64 c-3 -5 -16 -15 -28 -21 -19 -9 -19 -8 3 10
28 23 34 26 25 11z m-55 -35 c0 -2 -13 -11 -30 -20 -38 -19 -40 -11 -2 9 31
17 32 18 32 11z m2592 -12 c22 -20 23 -42 2 -71 -20 -28 -39 -28 -69 2 -50 50
15 117 67 69z m-6136 -52 c9 -17 9 -30 2 -47 -21 -45 -68 -42 -88 7 -11 25
-10 32 6 50 24 26 65 21 80 -10z m3061 -411 c0 -184 -3 -364 -6 -400 -4 -63
-5 -64 -12 -25 -10 51 -11 696 -2 790 l7 70 8 -50 c3 -27 6 -201 5 -385z m373
409 c-42 -27 -303 -90 -317 -76 -3 3 12 9 33 12 74 12 207 47 248 65 41 17 63
17 36 -1z m1873 -7 c-5 -22 -23 -31 -23 -12 0 10 23 40 27 36 1 -1 0 -12 -4
-24z m-2579 -2 c26 -11 94 -29 153 -42 110 -23 128 -39 20 -18 -88 16 -237 62
-237 72 0 12 14 10 64 -12z m1095 -86 c-60 -64 -248 -167 -389 -212 -59 -19
-166 -41 -277 -56 -41 -6 -43 -5 -43 19 0 22 4 25 39 25 53 0 192 27 271 52
107 34 180 67 280 127 135 80 161 90 119 45z m-2111 -17 c7 3 12 -4 12 -17 0
-12 4 -18 10 -15 6 4 7 -1 3 -11 -4 -12 -3 -15 5 -10 8 5 10 2 6 -9 -5 -11
-14 -5 -40 27 -19 24 -34 48 -34 53 1 6 6 3 13 -6 7 -9 18 -14 25 -12z m-2628
-9 c11 -12 20 -30 20 -40 0 -24 -33 -56 -66 -64 -22 -6 -32 -2 -52 21 l-24 29
-321 3 c-176 1 -322 5 -325 8 -16 16 40 20 331 23 296 4 324 6 346 23 31 25
66 24 91 -3z m8023 2 c24 -19 40 -20 265 -20 244 0 392 -7 392 -20 0 -4 -143
-10 -317 -13 -247 -5 -320 -9 -328 -20 -14 -19 -57 -47 -72 -47 -20 0 -53 42
-53 67 0 29 42 73 68 73 11 0 31 -9 45 -20z m-4740 -20 c7 0 58 -22 113 -50
54 -27 133 -60 175 -74 79 -27 238 -56 302 -56 32 0 37 -3 37 -23 0 -23 -1
-23 -84 -15 -204 20 -454 117 -581 225 -28 24 -28 25 -3 9 15 -9 33 -16 41
-16z m3461 -36 c3 -8 2 -12 -4 -9 -6 3 -10 10 -10 16 0 14 7 11 14 -7z m224 0
c41 -29 23 -84 -28 -84 -39 0 -59 40 -36 75 19 29 33 31 64 9z m-5991 -6 c22
-28 22 -48 1 -68 -30 -28 -62 -26 -76 5 -7 14 -12 32 -12 40 0 30 68 47 87 23z
m-1678 -32 c12 -13 23 -32 24 -43 1 -20 11 -20 393 -25 215 -3 398 -9 405 -14
30 -18 -68 -23 -435 -23 -251 0 -383 -4 -390 -11 -5 -5 -27 -10 -47 -10 -42 0
-69 30 -69 77 0 69 72 99 119 49z m9421 -6 c29 -41 20 -84 -23 -111 -31 -18
-58 -17 -84 3 -6 5 -172 9 -385 9 -205 1 -398 4 -428 8 l-55 7 40 9 c22 5 210
10 417 10 359 0 378 1 378 18 0 10 13 32 29 48 40 40 82 39 111 -1z m-1909
-23 c-10 -9 -11 -8 -5 6 3 10 9 15 12 12 3 -3 0 -11 -7 -18z m-2944 7 c-3 -3
-12 -4 -19 -1 -8 3 -5 6 6 6 11 1 17 -2 13 -5z m2853 -13 c0 -5 -7 -11 -14
-14 -10 -4 -13 -1 -9 9 6 15 23 19 23 5z m-1930 -77 c19 -31 40 -65 46 -75 9
-16 13 -17 30 -5 18 14 18 15 -1 38 l-20 23 22 -18 c27 -24 50 -17 126 35 31
21 57 35 57 30 0 -17 -97 -100 -177 -153 -96 -63 -275 -150 -380 -185 -90 -30
-286 -70 -390 -80 -70 -6 -73 -6 -73 15 0 18 6 21 38 21 40 0 147 17 172 27 8
3 26 8 40 10 70 9 90 15 90 24 0 6 5 7 10 4 28 -17 268 73 254 96 -3 5 5 8 18
7 27 -2 110 41 102 53 -3 5 2 6 10 3 8 -3 26 2 41 12 22 15 24 19 11 33 -16
18 -76 124 -76 134 0 20 19 1 50 -49z m1972 28 c-8 -2 -10 -19 -7 -45 l5 -42
-10 35 c-7 25 -6 42 2 58 8 15 14 19 17 11 2 -7 -1 -15 -7 -17z m31 8 c-3 -12
-8 -19 -11 -16 -5 6 5 36 12 36 2 0 2 -9 -1 -20z m-3876 -22 c57 -49 93 -73
155 -101 31 -14 59 -30 62 -36 14 -23 117 -72 138 -67 13 3 17 3 10 0 -20 -9
-3 -24 29 -24 17 0 28 -4 25 -8 -6 -9 123 -61 168 -68 17 -2 57 -6 88 -9 l58
-5 14 53 c8 28 16 61 18 71 2 11 9 21 17 24 10 3 12 -2 8 -19 -3 -13 -11 -50
-17 -81 -10 -53 -14 -58 -38 -59 -52 -1 9 -17 114 -29 135 -16 144 -18 144
-36 0 -17 -52 -14 -215 12 -329 53 -661 212 -819 392 -29 34 -1 26 41 -10z
m323 10 c0 -23 -60 -117 -81 -128 -35 -19 -33 -3 4 34 20 19 41 51 48 71 13
34 29 47 29 23z m2691 -15 c-12 -20 -14 -14 -5 12 4 9 9 14 11 11 3 -2 0 -13
-6 -23z m973 -39 c32 -32 14 -84 -30 -84 -38 0 -60 46 -38 79 18 25 46 27 68
5z m-5856 -10 c26 -18 28 -50 5 -76 -34 -37 -83 -13 -83 41 0 17 33 51 50 51
3 0 16 -7 28 -16z m4842 -18 c0 -2 -7 -7 -16 -10 -8 -3 -12 -2 -9 4 6 10 25
14 25 6z m-1339 -43 c6 -21 20 -55 31 -75 15 -31 16 -38 4 -38 -14 0 -35 44
-54 113 -6 20 -7 37 -2 37 5 0 14 -17 21 -37z m-1546 -53 c6 0 66 -40 75 -51
16 -18 194 -105 267 -130 126 -44 317 -89 403 -95 114 -8 161 -15 156 -22 -8
-13 -216 6 -320 28 -128 28 -259 72 -373 126 -96 46 -286 169 -319 206 -11 12
8 3 43 -20 34 -23 65 -42 68 -42z m5114 38 l48 -42 279 2 c153 1 308 -2 344
-7 44 -6 -46 -9 -285 -9 l-350 -1 -40 39 c-22 22 -43 40 -47 40 -5 0 -8 5 -8
10 0 17 10 11 59 -32z m-9159 12 c42 -42 16 -100 -45 -100 -49 0 -71 51 -45
101 14 25 64 25 90 -1z m880 13 c-1 -5 -23 -25 -50 -46 l-49 -38 -323 1 c-178
1 -341 5 -363 10 -24 5 102 8 322 8 l363 0 42 36 c40 35 58 44 58 29z m3605
-70 c-17 -59 -31 -83 -46 -83 -16 0 -9 29 23 95 38 76 47 71 23 -12z m3283 47
c-7 -10 -14 -17 -17 -15 -4 4 18 35 25 35 2 0 -1 -9 -8 -20z m-885 -8 c-3 -7
-9 -10 -12 -5 -3 4 -10 11 -15 15 -4 4 1 6 12 5 12 -1 18 -6 15 -15z m-1533
-105 c19 -60 21 -92 5 -75 -11 10 -45 118 -45 140 0 35 15 10 40 -65z m597 38
c-128 -86 -319 -172 -477 -214 -145 -39 -400 -72 -400 -52 0 13 17 17 160 31
182 18 426 88 550 158 36 20 67 37 70 37 12 2 97 49 119 66 13 11 29 19 35 19
6 0 -20 -20 -57 -45z m2580 -27 c-3 -7 -5 -2 -5 12 0 14 2 19 5 13 2 -7 2 -19
0 -25z m-7535 -8 c108 -85 8 -245 -117 -188 -61 28 -73 117 -24 173 26 30 37
35 74 35 27 0 51 -7 67 -20z m8130 -9 c29 -26 33 -36 33 -80 0 -41 -5 -55 -29
-80 -24 -25 -38 -31 -73 -31 -84 0 -136 84 -99 162 31 65 113 79 168 29z
m-6938 0 c24 -26 17 -62 -16 -80 -24 -14 -28 -14 -47 3 -25 23 -27 58 -5 80
21 21 47 20 68 -3z m4466 5 c0 -2 -8 -10 -17 -17 -16 -13 -17 -12 -4 4 13 16
21 21 21 13z m1188 -18 c9 -9 12 -9 13 3 0 7 5 3 10 -10 18 -46 -36 -92 -69
-59 -7 7 -12 19 -12 29 0 12 6 15 25 11 18 -3 25 0 25 11 0 8 -6 18 -12 20 -7
3 -8 6 -2 6 5 1 15 -4 22 -11z m-6325 -33 c-3 -9 -8 -14 -10 -11 -3 3 -2 9 2
15 9 16 15 13 8 -4z m5257 12 c0 -2 -12 -14 -27 -28 l-28 -24 24 28 c23 25 31
32 31 24z m-5175 -95 c-3 -3 -5 0 -5 7 0 7 -4 10 -9 6 -5 -3 -13 0 -17 6 -5 8
-3 9 6 4 9 -6 10 -2 5 16 -16 50 -15 53 5 10 11 -24 18 -46 15 -49z m3160 48
c3 -5 1 -10 -4 -10 -6 0 -11 5 -11 10 0 6 2 10 4 10 3 0 8 -4 11 -10z m-4630
-20 c18 -20 26 -20 255 -14 178 5 241 4 259 -5 35 -19 53 -74 45 -137 -9 -75
-21 -76 -23 -2 -1 34 -6 67 -12 75 -9 10 -64 13 -260 13 -235 0 -250 -1 -269
-20 -46 -46 -100 -31 -115 32 -15 59 79 104 120 58z m9838 -12 c28 -37 17 -74
-29 -95 -42 -21 -61 -12 -86 38 -11 20 -18 27 -18 17 0 -17 -18 -18 -245 -18
l-245 0 -5 -22 c-3 -13 -7 -45 -9 -73 -6 -64 -6 -65 -16 -35 -4 14 -8 50 -9
81 -1 49 2 59 29 84 l29 28 238 -7 c229 -6 239 -6 263 14 34 27 78 22 103 -12z
m-7507 -15 c-4 -9 -1 -22 5 -29 13 -16 1 -18 -20 -5 -9 6 -11 15 -6 27 5 11 7
23 6 27 -1 5 3 5 9 2 6 -4 9 -14 6 -22z m4222 -3 c-7 -10 -14 -17 -17 -15 -4
4 18 35 25 35 2 0 -1 -9 -8 -20z m1406 -50 c4 -25 3 -31 -4 -20 -5 8 -10 26
-10 39 0 32 6 24 14 -19z m-5614 -40 c-6 -11 -13 -20 -16 -20 -2 0 0 9 6 20 6
11 13 20 16 20 2 0 0 -9 -6 -20z m-31 -24 c-3 -3 -11 5 -18 17 -13 21 -12 21
5 5 10 -10 16 -20 13 -22z m-154 14 c-3 -5 -1 -18 4 -27 10 -17 10 -17 11 0 0
21 10 22 36 3 18 -14 18 -17 4 -43 -19 -34 -45 -41 -71 -17 -23 21 -25 57 -3
78 17 18 28 21 19 6z m236 -12 c11 -21 11 -22 -4 -9 -10 7 -17 17 -17 22 0 15
9 10 21 -13z m5213 -35 c-12 -35 -59 -39 -80 -8 -12 19 -11 21 12 23 15 1 23
-2 19 -8 -4 -6 -11 -7 -17 -4 -7 4 -8 2 -4 -5 11 -17 39 7 31 27 -3 9 0 12 9
9 11 -4 13 -1 9 11 -5 16 -4 16 13 0 14 -14 16 -23 8 -45z m-5259 18 c-3 -6
-11 -11 -16 -11 -5 0 -4 6 3 14 14 16 24 13 13 -3z m4055 -16 c0 -2 -8 -9 -18
-14 -14 -8 -19 -6 -19 5 0 7 9 14 19 14 10 0 18 -2 18 -5z m-5840 -65 c35 -19
41 -76 34 -303 -6 -169 -10 -214 -21 -214 -13 0 -16 63 -18 363 0 62 -4 96
-14 107 -12 15 -41 17 -236 17 -257 0 -558 10 -549 19 3 3 168 9 367 12 199 3
375 6 390 7 16 1 37 -3 47 -8z m9374 -11 c11 -10 -208 -19 -475 -19 l-256 0
-11 -25 c-8 -17 -12 -94 -12 -219 0 -213 -5 -257 -26 -249 -11 4 -14 49 -14
240 0 240 4 268 40 281 22 8 746 0 754 -9z m-8094 -57 c0 -3 -7 3 -15 14 -8
10 -14 26 -15 34 0 8 7 2 15 -14 8 -15 15 -31 15 -34z m6089 21 c-28 -47 -29
-48 -29 -37 0 12 38 74 46 74 3 0 -5 -17 -17 -37z m-5508 10 c13 -16 12 -17
-3 -4 -17 13 -22 21 -14 21 2 0 10 -8 17 -17z m-417 -50 c4 -13 12 -23 17 -23
5 0 9 -6 9 -12 -1 -17 -40 31 -40 48 0 8 -5 14 -11 14 -6 0 -8 -8 -4 -19 3
-10 -1 -24 -10 -31 -9 -8 -15 -8 -15 -2 0 6 4 13 10 17 5 3 7 12 3 20 -3 8 -2
23 1 32 6 15 8 15 20 -3 7 -10 16 -29 20 -41z m5486 -18 c0 -44 -61 -58 -86
-20 -12 19 -11 21 6 21 12 0 19 -5 16 -13 -3 -7 1 -10 10 -6 7 3 14 11 14 19
0 8 5 14 10 14 6 0 10 5 10 11 0 5 -5 7 -12 3 -7 -5 -8 -3 -3 6 6 10 11 9 22
-5 7 -11 13 -24 13 -30z m405 6 c3 -5 1 -12 -5 -16 -5 -3 -10 1 -10 9 0 18 6
21 15 7z m-5908 -33 c-3 -8 -6 -5 -6 6 -1 11 2 17 5 13 3 -3 4 -12 1 -19z
m316 1 c-4 -14 0 -25 11 -31 9 -5 14 -13 11 -19 -10 -15 12 -10 29 7 9 8 16
12 16 7 0 -15 -23 -33 -42 -33 -10 0 -18 7 -18 16 0 8 -4 12 -10 9 -11 -7 -25
39 -15 54 11 19 23 12 18 -10z m-283 -24 c0 -8 -2 -15 -4 -15 -2 0 -6 7 -10
15 -3 8 -1 15 4 15 6 0 10 -7 10 -15z m4055 5 c3 -5 -1 -10 -10 -10 -9 0 -13
5 -10 10 3 6 8 10 10 10 2 0 7 -4 10 -10z m-4128 -30 c-12 -18 -15 -19 -21 -5
-3 9 -2 14 3 11 5 -3 12 1 15 10 4 9 9 14 12 11 3 -3 -1 -15 -9 -27z m-2087 0
c24 -24 25 -33 4 -65 -19 -29 -40 -32 -66 -8 -25 22 -23 59 4 77 29 20 34 20
58 -4z m270 -5 c10 -12 36 -15 117 -15 l105 0 -4 -307 c-3 -190 -9 -318 -16
-333 -12 -29 -11 -50 -21 355 l-6 250 -73 5 c-68 5 -74 3 -88 -17 -26 -41 -94
-26 -94 21 0 44 54 72 80 41z m9542 -2 c23 -21 23 -45 -1 -67 -26 -24 -59 -17
-79 17 -16 27 -16 29 7 48 29 23 49 24 73 2z m-3697 -23 c-3 -5 -12 -10 -18
-10 -7 0 -6 4 3 10 19 12 23 12 15 0z m3558 4 c59 -10 43 -24 -28 -24 l-65 0
0 -250 c0 -160 -4 -250 -10 -250 -5 0 -10 10 -10 23 0 18 -2 19 -10 7 -6 -10
-10 73 -10 243 l0 257 48 0 c26 0 64 -3 85 -6z m-2184 -79 c-3 -2 -16 10 -29
28 l-23 32 29 -27 c15 -15 26 -30 23 -33z m-20 -31 c-17 -20 -52 -17 -67 6
-11 19 -3 28 12 13 3 -4 16 -8 27 -10 16 -2 20 1 15 13 -5 14 -4 15 9 4 12
-10 13 -16 4 -26z m-4869 11 c-7 -8 -9 -15 -5 -15 4 0 2 -7 -5 -15 -15 -18 1
-20 18 -3 7 7 12 8 12 2 0 -6 -4 -14 -10 -20 -6 -6 -3 -10 9 -10 10 0 17 6 14
12 -6 16 16 29 28 17 15 -15 -1 -43 -29 -50 -30 -7 -65 27 -55 55 7 20 23 42
30 42 3 0 0 -7 -7 -15z m1545 5 c13 -6 15 -9 5 -9 -8 0 -22 4 -30 9 -18 12 -2
12 25 0z m1412 4 c-3 -3 -12 -4 -19 -1 -8 3 -5 6 6 6 11 1 17 -2 13 -5z m-50
-10 c-3 -3 -12 -4 -19 -1 -8 3 -5 6 6 6 11 1 17 -2 13 -5z m-104 -21 c-7 -2
-19 -2 -25 0 -7 3 -2 5 12 5 14 0 19 -2 13 -5z m-4152 -25 c110 -37 159 -109
159 -232 l0 -77 -42 3 -43 3 3 46 c7 96 -60 174 -149 174 -86 0 -139 -63 -139
-167 0 -55 -1 -58 -25 -59 -14 -1 -33 -2 -42 -3 -15 -1 -19 9 -21 47 -5 75 14
148 50 191 58 71 166 103 249 74z m3987 5 c-10 -2 -26 -2 -35 0 -10 3 -2 5 17
5 19 0 27 -2 18 -5z m-2508 -103 c-6 -11 -8 -25 -5 -30 3 -5 1 -11 -4 -14 -18
-12 -23 15 -7 39 20 30 31 33 16 5z m4591 -13 c-1 -12 -15 -9 -19 4 -3 6 1 10
8 8 6 -3 11 -8 11 -12z m-61 -8 c0 -6 9 -8 20 -4 11 4 20 2 20 -4 0 -16 -36
-13 -50 4 -9 10 -9 15 -1 15 6 0 11 -5 11 -11z m-4470 -34 c0 -20 -48 -31 -63
-15 -9 10 -9 11 0 6 6 -3 14 0 16 6 4 10 8 9 16 -2 9 -12 11 -12 17 3 8 21 14
22 14 2z m76 -77 c-18 -26 -21 -42 -5 -33 6 4 17 -1 25 -11 12 -16 13 -16 8
-2 -4 13 -1 16 15 13 15 -3 18 0 14 12 -5 12 -3 14 6 8 10 -6 11 -2 6 15 -5
15 -4 20 4 16 19 -12 12 -52 -13 -75 -28 -26 -54 -22 -74 10 -11 17 -11 25 3
45 8 13 18 24 21 24 3 0 -2 -10 -10 -22z m4307 -26 c-2 -10 -13 -23 -23 -30
-16 -10 -18 -9 -14 3 4 8 10 15 15 15 5 0 7 14 5 32 -3 28 -2 30 9 15 7 -10
11 -26 8 -35z m317 24 c0 -2 -8 -10 -17 -17 -16 -13 -17 -12 -4 4 13 16 21 21
21 13z m-385 -44 c-3 -3 -11 0 -18 7 -9 10 -8 11 6 5 10 -3 15 -9 12 -12z
m335 -5 c0 -2 -17 -19 -37 -38 l-38 -34 34 38 c33 34 41 42 41 34z m-4407 -43
c-7 -3 -9 -12 -6 -21 4 -10 2 -14 -4 -10 -6 4 -14 0 -17 -9 -9 -23 -7 -34 4
-34 5 0 6 8 3 18 -6 15 -5 15 10 4 14 -12 19 -10 37 20 11 18 20 31 21 28 9
-39 5 -60 -17 -81 -27 -25 -45 -21 -71 17 -12 18 -11 24 8 47 11 15 26 27 32
26 9 0 9 -2 0 -5z m-1483 -17 l25 -13 3 -282 c1 -184 -1 -290 -8 -302 -10 -19
-23 -20 -403 -20 -299 0 -397 3 -410 13 -16 11 -17 39 -15 307 l3 294 25 7
c14 4 189 7 390 8 276 0 371 -2 390 -12z m5378 -1 c-7 -8 -15 -12 -17 -11 -5
6 10 25 20 25 5 0 4 -6 -3 -14z m-6217 -206 c-2 -113 -7 -212 -12 -220 -7 -13
-8 -13 -9 0 0 9 -6 5 -14 -10 -14 -23 -14 -22 -20 30 -10 101 -16 375 -9 386
10 14 34 23 53 21 13 -2 14 -31 11 -207z m8717 204 l32 -6 -1 -282 c-1 -154
-4 -269 -6 -253 -5 30 -12 33 -32 15 -7 -7 -12 -8 -11 -3 2 6 2 115 1 243 l-1
232 -445 0 -445 0 2 -237 3 -238 330 1 c249 1 294 -1 185 -6 -108 -5 -83 -6
100 -3 197 3 242 1 232 -9 -10 -10 -85 -13 -308 -14 -162 -1 -357 -5 -433 -9
-130 -6 -140 -5 -149 12 -6 10 -13 137 -18 282 -6 220 -5 264 7 272 15 9 904
12 957 3z m-2438 -79 c-19 -22 -44 -18 -71 12 -13 15 -16 21 -6 14 12 -10 17
-10 17 -2 0 7 5 9 10 6 6 -3 10 2 11 12 0 16 1 16 9 -2 12 -28 12 -43 -1 -25
-7 10 -9 11 -7 2 4 -17 24 -12 22 6 -1 6 2 12 6 12 5 0 6 10 4 23 -2 12 1 7 8
-10 8 -25 8 -36 -2 -48z m370 68 c0 -5 -33 -37 -73 -72 l-72 -64 70 71 c75 76
75 76 75 65z m2015 -78 c0 -28 -29 -25 -33 3 -3 19 0 23 15 20 10 -2 18 -12
18 -23z m-785 -4 c0 -10 -7 -21 -15 -25 -11 -4 -15 1 -15 19 0 16 6 25 15 25
8 0 15 -9 15 -19z m732 -18 c2 -22 8 -28 26 -27 22 1 22 -1 22 -143 0 -143 0
-143 -25 -153 -13 -5 -27 -20 -31 -34 -6 -24 -6 -24 -130 -23 -68 1 -124 6
-124 10 0 4 -9 3 -19 -3 -12 -6 -100 -10 -218 -10 l-199 0 -11 30 c-7 19 -18
30 -31 30 -16 0 -20 9 -26 61 -3 34 -6 99 -6 144 0 80 1 83 25 89 15 4 27 16
31 31 l6 25 353 0 354 0 3 -27z m-6154 -12 c-2 -17 -1 -28 4 -25 4 3 8 -2 8
-11 0 -13 2 -13 14 -3 7 7 11 20 9 28 -2 8 3 4 12 -10 l16 -25 -5 24 c-4 18
-2 21 6 13 18 -18 -7 -62 -33 -62 -46 0 -77 58 -47 88 18 18 21 15 16 -17z
m3591 -26 c1 6 8 1 16 -9 8 -11 15 -14 15 -7 0 7 5 9 10 6 6 -3 13 1 17 10 6
16 7 16 15 1 11 -19 -14 -66 -35 -66 -26 1 -48 29 -52 66 -4 32 -3 34 4 14 5
-14 10 -20 10 -15z m451 2 c0 -2 -10 -12 -22 -23 l-23 -19 19 23 c18 21 26 27
26 19z m-3816 -43 c18 -18 22 -39 4 -28 -7 4 -8 3 -4 -5 12 -18 -2 -47 -30
-59 -22 -10 -28 -9 -50 13 -24 24 -24 26 -9 55 9 16 21 30 27 30 6 0 8 -3 5
-7 -4 -3 -2 -12 4 -20 9 -10 15 -10 25 -2 8 6 14 16 14 22 0 6 -7 2 -15 -9
-15 -20 -19 -16 -9 10 8 20 18 20 38 0z m3641 -49 c-50 -41 -307 -211 -355
-235 -66 -33 -47 -19 70 52 58 35 149 96 204 136 97 71 140 96 81 47z m-382
-67 c-14 -13 -27 -18 -41 -14 -21 7 -39 36 -22 36 6 0 10 -5 10 -11 0 -5 5 -7
11 -3 6 3 15 0 21 -7 6 -10 8 -7 6 11 -4 35 14 55 26 29 7 -15 4 -25 -11 -41z
m-3793 -60 c287 -210 703 -426 1028 -534 129 -43 166 -48 141 -18 -12 15 -11
16 46 30 l30 7 -25 7 c-20 6 -21 8 -5 9 25 1 11 13 -40 33 -22 9 -77 31 -122
49 -98 38 -105 51 -10 15 227 -85 584 -152 871 -163 118 -5 147 -3 141 7 -8
12 106 10 310 -6 121 -10 433 28 630 77 268 66 446 132 653 239 72 38 132 68
132 65 0 -4 -32 -21 -229 -127 -30 -16 -82 -41 -115 -55 -34 -14 -79 -33 -101
-43 -22 -10 -69 -28 -105 -40 -130 -45 -123 -40 -103 -63 17 -19 17 -19 -4
-13 -14 5 -23 3 -23 -3 0 -6 8 -11 19 -11 10 0 24 -6 30 -14 10 -11 8 -17 -6
-25 -24 -14 -11 -14 24 0 15 6 42 13 60 15 39 4 246 73 361 120 95 39 247 114
304 150 21 13 38 22 38 19 0 -7 -98 -67 -194 -119 -261 -139 -619 -260 -936
-315 -237 -41 -300 -46 -625 -46 -281 0 -338 3 -470 23 -548 82 -961 232
-1415 513 -129 80 -326 222 -400 289 -44 40 -32 33 110 -72z m643 75 c-3 -25
-3 -26 6 -6 16 35 67 17 55 -20 -7 -26 -43 -67 -57 -67 -18 0 -47 32 -47 52 0
20 28 68 40 68 4 0 6 -12 3 -27z m230 -86 c7 -20 -19 -74 -42 -87 -18 -9 -25
-7 -46 14 -28 28 -30 38 -13 69 20 38 39 47 69 31 15 -7 29 -19 32 -27z m2681
27 c3 -8 2 -12 -4 -9 -6 3 -10 -1 -10 -9 0 -8 5 -18 12 -22 7 -5 8 -3 3 6 -6
10 -4 12 9 7 14 -5 17 -3 13 8 -4 8 -2 17 3 20 4 3 11 -1 13 -7 3 -8 6 -6 6 5
1 26 21 10 21 -17 0 -54 -63 -65 -85 -14 -10 25 -10 35 -2 40 15 10 14 10 21
-8z m-156 -83 c10 -14 11 -13 6 4 -6 20 -5 20 10 1 21 -25 20 -55 -1 -78 -24
-27 -51 -22 -73 15 -24 39 -25 63 -3 75 20 11 43 5 61 -17z m-2357 -8 c14 -14
2 -56 -23 -82 -20 -22 -55 -21 -70 3 -12 18 -9 58 6 75 16 18 71 20 87 4z
m2894 -23 c-3 -5 -12 -10 -18 -10 -7 0 -6 4 3 10 19 12 23 12 15 0z m2575 -10
c0 -11 -7 -20 -15 -20 -18 0 -19 12 -3 28 16 16 18 15 18 -8z m-3260 -66 c0
-29 -34 -66 -54 -58 -18 7 -39 65 -34 96 2 17 9 22 26 21 16 -2 21 1 17 10 -4
6 5 -1 19 -16 14 -15 26 -39 26 -53z m2480 65 c0 -5 -6 -7 -12 -3 -9 5 -9 2 1
-9 12 -15 11 -17 -3 -17 -9 0 -16 8 -16 20 0 11 7 20 15 20 8 0 15 -5 15 -11z
m-4554 -12 c17 6 44 -14 44 -34 0 -8 -7 -30 -16 -49 -12 -25 -23 -34 -40 -34
-29 0 -57 39 -47 66 12 33 37 67 41 56 2 -6 10 -8 18 -5z m1870 -25 c55 -36
38 -142 -22 -142 -55 0 -74 112 -24 137 29 15 31 15 46 5z m1084 4 c0 -2 -8
-10 -17 -17 -16 -13 -17 -12 -4 4 13 16 21 21 21 13z m-2753 -24 c22 -14 31
-55 19 -92 -9 -28 -17 -36 -39 -38 -58 -7 -83 47 -52 108 15 30 45 39 72 22z
m-2332 -18 c73 -48 37 -169 -51 -167 -51 2 -84 35 -84 87 0 76 74 120 135 80z
m6306 -13 c59 -59 24 -151 -57 -151 -53 0 -84 31 -84 85 0 43 12 65 45 83 34
19 65 13 96 -17z m-3783 -17 c29 -20 30 -81 2 -112 -25 -26 -38 -27 -68 -6
-29 20 -29 72 -1 108 24 30 36 32 67 10z m1308 -19 c20 -48 18 -71 -8 -89 -37
-26 -65 -20 -77 15 -17 49 -14 97 7 102 47 13 63 7 78 -28z m-1140 -4 c5 -6 7
-37 6 -70 -4 -60 -4 -61 -33 -61 -32 0 -34 8 -23 94 7 46 26 60 50 37z m948
-25 c20 -42 20 -56 0 -84 -18 -27 -61 -29 -80 -4 -17 21 -18 94 -2 110 7 7 24
12 39 12 21 0 30 -8 43 -34z m-190 -7 c3 -17 6 -51 6 -76 0 -42 -1 -44 -27
-41 -27 3 -28 5 -31 70 -3 68 -2 69 39 77 4 0 9 -13 13 -30z m-560 -1 c35 -50
9 -118 -45 -118 -37 0 -59 24 -59 63 0 46 25 77 60 77 18 0 34 -8 44 -22z
m184 4 c18 -12 28 -108 12 -127 -15 -18 -61 -20 -78 -3 -7 7 -12 36 -12 65 0
46 3 55 23 63 28 11 39 12 55 2z m217 -22 c22 -43 19 -76 -11 -99 -33 -26 -45
-26 -72 -1 -15 14 -22 33 -22 56 0 54 15 74 55 74 28 0 37 -6 50 -30z m4115
-52 c0 -5 -9 -8 -20 -8 -19 0 -28 28 -13 43 6 7 32 -21 33 -35z m-311 -4 c2
-2 -110 -3 -250 -2 -147 1 -231 4 -199 8 56 7 441 2 449 -6z m-6614 -29 c73
-19 120 -55 161 -123 43 -71 50 -134 24 -209 -11 -32 -25 -59 -30 -61 -6 -2
-10 -10 -10 -18 0 -7 -6 -11 -14 -8 -8 3 -17 -2 -20 -14 -16 -49 -107 -102
-175 -102 -44 0 -124 27 -116 40 2 4 -6 17 -19 29 -13 13 -39 45 -57 72 -36
52 -54 63 -44 27 5 -20 4 -21 -5 -5 -6 9 -8 22 -5 27 3 6 1 10 -6 10 -8 0 -10
23 -7 83 4 88 35 168 88 227 37 42 131 52 235 25z m5461 -18 c46 -24 104 -86
127 -137 26 -56 28 -151 4 -200 -12 -26 -15 -28 -12 -10 5 23 4 23 -7 6 -7
-10 -28 -38 -46 -62 -18 -24 -30 -44 -26 -44 3 0 0 -7 -7 -17 -24 -28 -97 -54
-152 -54 -63 0 -96 11 -138 48 -17 15 -35 27 -40 26 -5 -2 -26 22 -46 53 -31
46 -38 67 -41 119 -9 134 65 246 188 286 38 13 161 4 196 -14z m-4346 -196
c224 -96 569 -205 730 -230 36 -5 119 -19 185 -31 66 -11 161 -22 210 -24 131
-4 954 11 995 18 76 15 197 36 235 42 83 13 284 69 450 126 151 52 314 122
478 204 73 37 56 21 -30 -29 -294 -169 -640 -295 -1002 -367 -246 -48 -414
-64 -701 -64 -166 -1 -319 4 -385 12 -405 48 -717 125 -1025 254 -115 48 -355
171 -390 199 -14 12 7 4 45 -16 39 -20 131 -62 205 -94z m-2044 55 c39 -39 42
-67 15 -112 -51 -84 -157 -58 -177 43 -6 28 -2 37 29 68 47 47 86 48 133 1z
m7250 0 c20 -20 34 -44 34 -59 0 -35 -40 -89 -74 -98 -35 -10 -90 11 -105 39
-15 27 -13 93 2 113 38 49 97 51 143 5z m-7968 -2 c22 -15 29 -48 14 -70 -4
-7 -23 -14 -42 -15 -31 -4 -35 -1 -44 29 -7 26 -5 36 9 52 22 24 34 25 63 4z
m8604 -1 c32 -28 18 -93 -19 -93 -15 0 -63 47 -63 61 0 13 38 49 52 49 6 0 20
-7 30 -17z m-8318 -15 c20 -28 20 -43 0 -62 -32 -32 -94 -14 -94 27 0 56 63
79 94 35z m8062 -3 c20 -31 10 -63 -23 -71 -33 -9 -57 6 -61 38 -6 53 55 77
84 33z m-5061 -7 c6 -4 2 -8 -7 -8 -10 0 -18 7 -18 17 0 9 3 12 8 7 4 -5 12
-12 17 -16z m-865 -233 c25 16 22 -370 -3 -425 -15 -30 -50 -37 -82 -16 -21
14 -86 16 -524 16 -296 0 -510 -4 -525 -10 -31 -11 -57 9 -49 40 6 21 47 28
58 10 4 -6 174 -10 478 -10 261 0 487 -4 505 -9 25 -8 32 -7 32 4 0 19 39 45
67 45 l23 0 1 198 c1 108 4 187 6 174 2 -12 8 -20 13 -17z m3728 -175 c-3
-168 -2 -179 15 -174 11 3 27 -5 45 -23 l29 -28 499 3 c299 2 503 7 508 12 18
18 54 11 61 -11 4 -12 3 -24 -2 -28 -4 -3 -246 -4 -538 -1 l-530 5 -25 -22
c-31 -29 -54 -29 -81 -2 -20 20 -21 29 -17 222 1 111 7 208 11 215 23 35 28 3
25 -168z m-6148 110 c37 -37 21 -83 -30 -84 -25 -1 -34 4 -41 22 -5 13 -9 28
-9 33 0 12 37 49 50 49 6 0 19 -9 30 -20z m8606 -4 c21 -34 14 -67 -18 -86
-25 -13 -29 -13 -43 1 -23 23 -23 79 0 95 27 20 42 17 61 -10z m-7827 -35 c37
-37 -12 -106 -58 -81 -42 22 -22 100 26 100 7 0 22 -9 32 -19z m273 2 c22 -20
23 -56 2 -77 -48 -48 -113 25 -67 76 20 22 41 23 65 1z m5519 -9 c22 -23 22
-27 9 -51 -20 -35 -52 -46 -79 -27 -28 20 -27 49 4 79 30 31 36 31 66 -1z
m983 10 c22 -21 20 -57 -3 -78 -26 -24 -53 -17 -69 17 -25 53 32 101 72 61z
m276 -6 c19 -21 29 -22 240 -26 189 -3 222 -2 235 12 19 19 45 11 45 -14 0
-17 -15 -18 -255 -17 -229 2 -256 0 -260 -15 -3 -9 -18 -19 -33 -23 -20 -5
-31 -2 -44 15 -22 27 -22 39 -2 68 19 28 48 28 74 0z m-5786 -10 c21 -29 20
-33 -9 -63 -32 -31 -49 -32 -69 -3 -22 31 -20 54 6 72 31 22 54 20 72 -6z
m4261 0 c9 -20 19 -24 85 -28 l75 -5 -60 -8 c-80 -10 -119 1 -123 36 -4 33 10
35 23 5z m-6065 -3 c10 -12 48 -15 227 -15 147 0 212 -3 208 -10 -5 -7 -80
-10 -218 -10 -117 1 -220 -1 -229 -5 -11 -4 -20 0 -28 14 -19 37 14 58 40 26z
m1998 -32 c-14 -13 -25 -14 -75 -6 l-58 10 62 2 c34 0 65 6 68 12 4 6 10 8 13
4 3 -3 -1 -13 -10 -22z m411 -81 c-2 -126 -17 -142 -18 -19 -1 70 3 106 9 102
6 -3 10 -41 9 -83z m2436 -133 c18 -34 19 -55 4 -98 -9 -26 -16 -31 -45 -31
-41 0 -54 21 -54 84 0 36 5 48 26 65 30 24 50 18 69 -20z m-5075 10 c7 -11 9
-31 6 -44 -6 -23 -42 -40 -52 -24 -3 5 -9 7 -14 4 -9 -6 -20 18 -20 44 0 42
61 57 80 20z m268 9 c29 -29 2 -88 -39 -88 -28 0 -46 43 -31 75 13 27 49 34
70 13z m266 -4 c19 -19 20 -25 4 -59 -12 -27 -45 -34 -66 -13 -13 13 -16 47
-6 72 8 21 48 21 68 0z m250 0 c19 -19 20 -45 4 -66 -22 -27 -46 -29 -63 -5
-19 28 -19 46 2 69 20 22 37 23 57 2z m2750 -6 c19 -27 21 -98 3 -122 -9 -12
-23 -17 -42 -14 -38 4 -59 43 -49 93 12 64 58 86 88 43z m306 2 c22 -22 26
-72 10 -114 -8 -21 -16 -26 -44 -26 -32 0 -36 3 -47 39 -13 44 -7 82 17 105
21 21 40 20 64 -4z m304 -2 c9 -13 16 -43 16 -70 0 -37 -5 -50 -22 -62 -48
-34 -78 -8 -78 69 0 57 16 85 50 85 10 0 26 -10 34 -22z m296 2 c26 -26 28
-105 3 -132 -38 -42 -83 -8 -83 64 0 84 35 113 80 68z m317 -10 c29 -56 4
-140 -40 -140 -48 0 -73 126 -32 156 28 20 57 14 72 -16z m2787 14 c30 -30 10
-94 -29 -94 -34 0 -48 82 -17 99 23 14 28 14 46 -5z m256 1 c25 -30 8 -95 -26
-95 -36 0 -59 71 -32 98 16 16 43 15 58 -3z m261 -9 c15 -32 -8 -82 -36 -78
-39 6 -60 63 -33 90 21 21 57 14 69 -12z m258 10 c31 -37 -9 -103 -46 -80 -37
23 -24 94 17 94 10 0 23 -6 29 -14z m271 -5 c14 -27 13 -44 -2 -38 -7 2 -12 9
-11 15 1 5 -4 13 -12 16 -16 6 -9 -24 9 -36 13 -10 -11 -28 -36 -28 -22 0 -33
41 -18 69 14 27 56 28 70 2z m-7552 -3 c17 -17 15 -48 -5 -70 -22 -25 -39 -23
-59 7 -32 49 24 103 64 63z m-509 -270 c19 -33 2 -78 -29 -78 -16 0 -20 7 -20
33 0 24 -3 28 -10 17 -8 -12 -10 -10 -10 11 0 52 43 64 69 17z m521 -3 c17
-46 -10 -83 -51 -70 -36 12 -37 90 -1 97 26 6 43 -2 52 -27z m247 23 c23 -30
22 -60 -3 -85 -24 -24 -26 -24 -45 -7 -10 9 -19 30 -19 45 0 45 44 76 67 47z
m2833 2 c27 -15 35 -71 16 -109 -31 -59 -86 -30 -86 44 0 34 5 47 22 59 27 19
24 19 48 6z m308 -6 c17 -12 22 -25 22 -59 0 -47 -19 -75 -50 -75 -46 0 -67
93 -30 130 24 24 29 24 58 4z m2846 3 c12 -9 17 -23 14 -46 -6 -64 -61 -67
-83 -6 -8 23 -6 30 14 46 28 23 32 23 55 6z m510 -9 c20 -29 20 -52 0 -72 -21
-21 -58 -21 -50 0 3 8 2 12 -4 9 -17 -10 -11 52 6 69 21 21 30 20 48 -6z m262
-3 c23 -35 6 -75 -30 -75 -41 0 -60 54 -30 84 22 23 41 20 60 -9z m535 -7 c23
-43 -21 -89 -59 -62 -28 19 -28 59 -1 78 25 17 45 12 60 -16z m-8593 10 c16
-16 15 -50 -1 -72 -10 -14 -18 -15 -40 -7 -22 9 -27 17 -27 44 0 19 3 37 7 40
11 11 48 8 61 -5z m273 -14 c7 -20 6 -32 -6 -50 -15 -24 -55 -34 -55 -14 0 6
5 10 10 10 7 0 7 7 0 20 -6 11 -15 18 -21 15 -12 -8 -12 2 1 26 16 29 58 25
71 -7z m517 14 c17 -17 15 -63 -3 -78 -12 -10 -21 -10 -40 -2 -25 12 -32 41
-19 76 7 19 45 21 62 4z m1314 0 c31 -24 23 -82 -13 -93 -49 -16 -84 76 -36
95 30 12 31 12 49 -2z m318 -32 c0 -32 -31 -69 -51 -61 -22 8 -43 50 -36 70 9
21 48 35 70 23 9 -5 17 -19 17 -32z m240 24 c24 -24 25 -38 4 -68 -23 -33 -60
-29 -80 9 -15 30 -15 32 7 55 27 29 43 30 69 4z m884 -2 c22 -31 20 -60 -5
-92 -25 -32 -43 -33 -63 -4 -32 45 -10 118 35 118 10 0 25 -10 33 -22z m284
-40 c-2 -50 -6 -63 -20 -66 -13 -3 -18 3 -18 22 0 14 -4 28 -10 31 -26 16 3
75 36 75 12 0 14 -13 12 -62z m926 40 c19 -27 20 -48 4 -83 -14 -32 -54 -43
-75 -22 -20 19 -22 89 -4 111 19 23 57 20 75 -6z m310 0 c9 -12 16 -34 16 -48
0 -29 -33 -70 -55 -70 -21 0 -45 40 -45 77 0 58 54 84 84 41z m846 2 c24 -24
25 -38 4 -68 -17 -24 -53 -29 -72 -10 -17 17 -15 58 5 80 21 23 38 23 63 -2z
m539 -6 c23 -30 16 -55 -21 -75 -18 -10 -24 -8 -40 11 -24 30 -23 56 4 74 30
21 33 20 57 -10z m549 14 c17 -17 15 -63 -3 -78 -23 -19 -49 -7 -59 27 -14 50
28 85 62 51z m554 -14 c13 -28 5 -50 -26 -68 -13 -9 -20 -7 -32 8 -14 20 -19
68 -7 79 16 17 54 6 65 -19z m772 10 c10 -25 7 -59 -6 -72 -33 -33 -77 10 -64
62 5 20 13 26 35 26 17 0 31 -6 35 -16z m-6754 -15 c9 -16 8 -26 -4 -44 -18
-28 -43 -24 -56 9 -17 46 37 79 60 35z m1672 4 c10 -9 18 -23 18 -31 0 -21
-30 -52 -50 -52 -39 0 -53 49 -23 82 20 22 31 23 55 1z m2100 0 c23 -21 23
-45 -1 -67 -26 -24 -54 -17 -65 16 -8 22 -6 32 9 48 22 24 33 25 57 3z m832
-5 c13 -19 14 -25 3 -42 -24 -36 -44 -42 -66 -22 -23 21 -27 56 -9 74 19 19
55 14 72 -10z m564 10 c27 -27 2 -88 -32 -75 -23 9 -30 59 -10 74 22 16 27 16
42 1z m-4914 -21 c9 -15 7 -22 -13 -38 -18 -15 -27 -17 -37 -8 -15 12 -19 51
-7 63 12 12 45 2 57 -17z m1079 -1 c20 -15 22 -37 5 -54 -32 -32 -80 8 -58 48
12 23 28 25 53 6z m2753 -12 c9 -34 -18 -64 -44 -48 -22 14 -27 41 -12 59 20
24 49 18 56 -11z m-2549 -10 c-3 -3 -12 -4 -19 -1 -8 3 -5 6 6 6 11 1 17 -2
13 -5z m-1547 -233 c15 -29 12 -49 -10 -71 -24 -24 -34 -25 -54 -4 -19 18 -21
65 -4 82 18 18 56 14 68 -7z m268 7 c32 -32 -9 -109 -47 -88 -24 13 -37 66
-21 85 15 18 52 19 68 3z m276 -7 c12 -14 14 -24 7 -43 -21 -55 -63 -61 -82
-11 -22 58 34 99 75 54z m305 -2 c19 -21 18 -40 -2 -66 -21 -28 -76 -3 -77 35
0 14 36 52 50 52 5 0 18 -9 29 -21z m1131 1 c14 -26 2 -68 -23 -82 -17 -9 -24
-7 -39 12 -21 26 -23 61 -6 78 19 19 56 14 68 -8z m295 -20 c8 -24 -18 -70
-40 -70 -15 0 -45 37 -45 57 0 7 9 22 20 33 24 24 54 14 65 -20z m279 24 c31
-30 12 -94 -27 -94 -31 0 -47 18 -47 51 0 29 23 59 45 59 7 0 21 -7 29 -16z
m321 10 c50 -20 31 -108 -23 -102 -37 4 -52 47 -28 82 17 27 24 30 51 20z
m605 -14 c26 -26 25 -36 -5 -65 -30 -31 -40 -31 -59 -3 -22 31 -20 54 6 72 29
20 34 20 58 -4z m1126 -6 c16 -24 16 -27 -3 -51 -26 -36 -38 -38 -62 -14 -26
26 -26 46 -1 71 27 27 46 25 66 -6z m289 2 c31 -48 -25 -108 -66 -70 -21 19
-24 45 -9 75 15 27 56 24 75 -5z m283 12 c27 -27 2 -98 -34 -98 -16 0 -44 39
-44 62 0 38 52 62 78 36z m276 -10 c13 -21 -2 -66 -26 -82 -38 -23 -79 59 -46
92 17 17 58 11 72 -10z m-3741 -10 c17 -26 -7 -68 -38 -68 -33 0 -52 38 -35
69 13 26 57 26 73 -1z m1477 6 c16 -18 4 -61 -22 -78 -36 -22 -77 51 -46 82
17 17 53 15 68 -4z m563 -2 c15 -16 15 -20 1 -40 -24 -35 -74 -23 -74 18 0 39
46 52 73 22z m-2639 -8 c6 -16 0 -34 -12 -34 -18 1 -32 18 -26 33 8 21 30 22
38 1z m3210 0 c11 -30 -13 -44 -43 -25 -12 8 -12 12 -2 25 17 20 37 20 45 0z
m-401 -21 c-13 -2 -35 -2 -50 0 -16 2 -5 4 22 4 28 0 40 -2 28 -4z m160 0
c-13 -2 -33 -2 -45 0 -13 2 -3 4 22 4 25 0 35 -2 23 -4z"/>
<path d="M1371 9464 c0 -11 3 -14 6 -6 3 7 2 16 -1 19 -3 4 -6 -2 -5 -13z"/>
<path d="M1640 9483 c0 -10 4 -14 8 -8 4 6 11 13 16 18 5 4 2 7 -7 7 -10 0
-17 -8 -17 -17z"/>
<path d="M1880 9480 c0 -11 2 -20 5 -20 2 0 9 9 15 20 9 16 8 20 -5 20 -8 0
-15 -9 -15 -20z"/>
<path d="M8141 9484 c0 -11 3 -14 6 -6 3 7 2 16 -1 19 -3 4 -6 -2 -5 -13z"/>
<path d="M8641 9464 c0 -11 3 -14 6 -6 3 7 2 16 -1 19 -3 4 -6 -2 -5 -13z"/>
<path d="M8930 9473 c0 -21 3 -24 9 -14 5 8 7 20 4 28 -8 21 -13 15 -13 -14z"/>
<path d="M9161 9478 c0 -16 2 -18 6 -8 3 8 11 18 17 22 7 5 4 8 -6 8 -12 0
-18 -7 -17 -22z"/>
<path d="M4370 9425 c0 -19 5 -35 10 -35 6 0 10 16 10 35 0 19 -4 35 -10 35
-5 0 -10 -16 -10 -35z"/>
<path d="M4670 9429 c0 -52 24 -48 28 4 2 28 -1 37 -12 37 -12 0 -16 -11 -16
-41z"/>
<path d="M4986 9464 c-3 -9 -6 -29 -6 -46 0 -46 24 -29 28 20 3 41 -10 57 -22
26z"/>
<path d="M5294 9466 c-8 -21 -1 -66 11 -69 6 -1 11 17 13 41 3 41 -12 59 -24
28z"/>
<path d="M5602 9434 c2 -22 8 -38 13 -36 15 3 12 65 -3 70 -10 3 -13 -6 -10
-34z"/>
<path d="M5920 9435 c0 -34 12 -46 25 -24 9 14 -3 59 -15 59 -6 0 -10 -16 -10
-35z"/>
<path d="M6250 9419 c0 -5 5 -7 10 -4 6 3 10 8 10 11 0 2 -4 4 -10 4 -5 0 -10
-5 -10 -11z"/>
<path d="M3222 8806 c-34 -19 -40 -29 -12 -21 13 4 30 14 38 21 16 17 5 17
-26 0z"/>
<path d="M7287 8679 c7 -7 15 -10 18 -7 3 3 -2 9 -12 12 -14 6 -15 5 -6 -5z"/>
<path d="M8741 4364 c0 -11 3 -14 6 -6 3 7 2 16 -1 19 -3 4 -6 -2 -5 -13z"/>
<path d="M3179 9229 c-14 -26 3 -69 26 -69 46 0 73 48 43 78 -19 19 -56 14
-69 -9z"/>
<path d="M7070 9231 c-22 -43 1 -78 45 -67 29 7 44 49 25 71 -18 21 -57 19
-70 -4z"/>
<path d="M1381 9203 c2 -26 2 -26 6 -4 4 19 7 21 15 10 8 -12 9 -12 6 0 -8 28
-28 24 -27 -6z"/>
<path d="M1650 9210 c0 -11 7 -20 15 -20 17 0 18 2 9 24 -9 23 -24 20 -24 -4z"/>
<path d="M7861 9208 c1 -20 2 -20 6 -4 4 15 7 16 14 5 7 -11 9 -11 9 4 0 9 -7
17 -15 17 -9 0 -15 -9 -14 -22z"/>
<path d="M862 9202 c4 -12 2 -22 -3 -22 -5 0 -9 5 -9 12 0 9 -3 9 -11 1 -15
-15 -3 -33 22 -33 14 0 19 7 19 24 0 14 -5 28 -12 32 -8 5 -9 0 -6 -14z"/>
<path d="M1120 9193 l1 -28 13 25 14 24 5 -24 c4 -24 4 -24 6 3 1 21 -4 27
-19 27 -15 0 -20 -7 -20 -27z"/>
<path d="M1900 9209 c7 -11 14 -19 16 -16 7 7 -7 37 -17 37 -6 0 -5 -9 1 -21z"/>
<path d="M2150 9201 c0 -11 5 -23 10 -26 6 -4 10 5 10 19 0 14 -4 26 -10 26
-5 0 -10 -9 -10 -19z"/>
<path d="M8146 9223 c-3 -4 -6 -16 -6 -28 0 -12 3 -24 6 -28 12 -12 34 6 34
28 0 22 -22 40 -34 28z"/>
<path d="M8902 9210 c0 -14 2 -19 5 -12 2 6 2 18 0 25 -3 6 -5 1 -5 -13z"/>
<path d="M9174 9214 c3 -9 6 -18 6 -20 0 -2 5 -4 10 -4 6 0 10 9 10 20 0 12
-7 20 -16 20 -11 0 -14 -5 -10 -16z"/>
<path d="M9444 9205 c-10 -26 7 -38 26 -18 9 10 16 21 13 26 -7 12 -33 8 -39
-8z"/>
<path d="M1587 4259 c-3 -12 -2 -30 2 -42 8 -20 8 -20 13 1 4 13 2 20 -3 16
-6 -3 -7 5 -3 20 3 14 4 26 1 26 -2 0 -7 -9 -10 -21z"/>
<path d="M1611 4154 c0 -11 3 -14 6 -6 3 7 2 16 -1 19 -3 4 -6 -2 -5 -13z"/>
<path d="M8530 4119 c-7 -11 -10 -23 -7 -25 2 -2 9 7 15 21 14 30 7 33 -8 4z"/>
<path d="M8227 3938 c-3 -8 6 -14 24 -15 16 -1 29 2 29 7 0 5 -7 7 -15 4 -8
-4 -15 -1 -15 5 0 15 -17 14 -23 -1z"/>
<path d="M2196 3704 c-9 -24 -7 -31 4 -14 9 13 11 13 20 0 5 -8 10 -10 10 -4
0 6 -6 17 -14 23 -11 9 -15 8 -20 -5z"/>
<path d="M2737 8942 c-37 -41 -11 -102 42 -102 55 0 80 61 41 100 -25 25 -62
26 -83 2z"/>
<path d="M7476 8938 c-22 -31 -20 -64 4 -88 25 -25 41 -25 74 1 31 25 33 57 6
87 -27 28 -65 28 -84 0z"/>
<path d="M1475 8914 c-9 -9 -15 -28 -13 -43 2 -20 9 -27 30 -29 43 -5 61 55
24 80 -16 11 -23 10 -41 -8z"/>
<path d="M2074 8922 c-20 -13 -25 -47 -10 -68 14 -17 17 -18 42 -4 36 20 40
34 15 59 -23 23 -30 25 -47 13z"/>
<path d="M8192 8918 c-18 -18 -15 -68 4 -75 37 -14 70 41 44 73 -15 17 -32 18
-48 2z"/>
<path d="M8776 8914 c-34 -34 -8 -82 39 -70 20 5 25 13 25 36 0 19 -7 33 -19
40 -25 13 -27 13 -45 -6z"/>
<path d="M840 8865 c0 -18 4 -23 15 -19 17 7 17 7 9 28 -9 24 -24 19 -24 -9z"/>
<path d="M9450 8869 c0 -23 6 -24 26 -5 18 19 18 21 -6 23 -14 1 -20 -4 -20
-18z"/>
<path d="M2402 8683 c-31 -28 -35 -56 -11 -86 24 -31 59 -35 81 -9 28 31 30
57 7 85 -24 31 -49 34 -77 10z"/>
<path d="M7831 8674 c-26 -33 -27 -58 -1 -84 27 -27 65 -26 84 2 22 31 20 64
-4 88 -27 27 -55 25 -79 -6z"/>
<path d="M5100 8661 c0 -11 5 -23 10 -26 6 -3 10 3 10 14 0 11 -4 23 -10 26
-5 3 -10 -3 -10 -14z"/>
<path d="M8783 8602 l-93 -3 0 -384 0 -385 395 0 395 0 0 379 c0 293 -3 382
-12 388 -12 8 -490 11 -685 5z m667 -382 c0 -312 -2 -360 -15 -360 -13 0 -15
47 -17 343 l-3 342 -326 3 -326 2 -6 -62 c-4 -35 -7 -189 -7 -342 0 -154 -2
-281 -4 -284 -22 -21 -26 35 -26 364 l0 354 365 0 365 0 0 -360z m-328 243 c2
-20 9 -29 25 -31 24 -4 63 -46 63 -69 0 -24 -30 -27 -54 -4 -12 11 -25 21 -29
21 -4 0 -7 -28 -7 -63 l0 -62 43 -20 c55 -27 82 -77 72 -136 -9 -54 -50 -99
-92 -102 -29 -2 -32 -5 -30 -32 1 -21 -3 -30 -15 -33 -12 -2 -19 6 -24 32 -5
29 -11 36 -29 36 -30 0 -69 32 -85 70 -11 27 -11 34 4 48 16 16 19 15 48 -20
16 -21 39 -38 49 -38 17 0 19 8 19 68 l0 68 -34 12 c-58 21 -96 64 -96 109 0
55 19 85 70 111 24 12 48 31 52 42 11 31 46 26 50 -7z"/>
<path d="M9024 8355 c-15 -23 -15 -27 0 -50 9 -14 24 -25 34 -25 14 0 18 10
20 50 2 44 0 50 -18 50 -11 0 -27 -11 -36 -25z"/>
<path d="M9118 8118 c2 -35 5 -64 7 -66 8 -9 35 14 46 39 10 26 9 34 -8 57
-37 49 -50 41 -45 -30z"/>
<path d="M6037 8563 c-11 -10 -8 -53 3 -53 6 0 10 14 10 30 0 31 -2 35 -13 23z"/>
<path d="M1263 8384 c3 -18 0 -27 -12 -31 -38 -14 -75 -49 -92 -88 -11 -24
-28 -45 -39 -48 -29 -8 -26 -45 5 -57 30 -11 33 -40 5 -40 -13 0 -20 -7 -20
-20 0 -15 7 -20 28 -20 19 0 23 -3 13 -9 -23 -15 -5 -41 28 -41 47 0 81 -17
81 -40 0 -11 6 -20 13 -20 6 0 22 -3 35 -6 19 -6 22 -3 22 25 0 31 1 31 39 25
32 -5 39 -3 43 12 2 11 2 27 0 37 -3 16 -10 17 -43 12 -36 -6 -40 -4 -49 20
-5 14 -10 65 -10 112 l0 85 49 -4 c47 -3 50 -2 55 26 8 40 -1 48 -45 44 -37
-3 -39 -2 -39 24 0 25 -3 28 -36 28 -34 0 -36 -2 -31 -26z m17 -133 c0 -23 -5
-30 -27 -34 -41 -8 -47 6 -18 42 30 35 45 33 45 -8z m11 -108 c8 -21 6 -23
-31 -23 -36 0 -40 2 -40 26 0 22 4 25 31 22 22 -2 34 -10 40 -25z"/>
<path d="M1970 8430 c-23 -23 -24 -33 -10 -61 13 -23 53 -25 74 -3 19 18 19
20 6 44 -19 35 -47 43 -70 20z"/>
<path d="M8274 8426 c-24 -38 -15 -70 21 -74 47 -6 73 48 39 82 -22 23 -41 20
-60 -8z"/>
<path d="M6405 8402 c-12 -13 -3 -32 15 -32 13 0 20 7 20 18 0 17 -23 26 -35
14z"/>
<path d="M6600 8316 c0 -8 7 -16 15 -20 9 -3 15 0 15 8 0 8 -7 16 -15 20 -9 3
-15 0 -15 -8z"/>
<path d="M6776 8242 c-3 -6 -1 -14 5 -17 14 -9 20 -2 10 14 -6 8 -11 9 -15 3z"/>
<path d="M6437 7639 c7 -7 15 -10 18 -7 3 3 -2 9 -12 12 -14 6 -15 5 -6 -5z"/>
<path d="M7320 7076 c0 -2 8 -10 18 -17 15 -13 16 -12 3 4 -13 16 -21 21 -21
13z"/>
<path d="M5260 7131 c-21 -6 -26 -14 -28 -48 l-3 -41 68 -7 c318 -30 551 -116
837 -308 49 -32 85 -53 80 -46 -12 19 -12 59 -1 59 5 0 7 7 3 15 -3 8 0 15 6
15 6 0 0 10 -13 23 -22 21 -35 57 -20 57 11 0 28 -15 34 -30 4 -12 6 -12 6 1
1 25 31 32 55 12 12 -10 8 -3 -8 15 -21 23 -35 30 -49 26 -11 -4 -17 -2 -14 3
12 19 -72 68 -108 64 -17 -2 -17 0 -5 8 8 6 11 11 5 12 -5 0 -17 2 -26 4 -29
5 -16 -24 13 -30 15 -4 26 -11 22 -16 -3 -5 3 -9 12 -9 10 0 14 -3 11 -7 -4
-3 -1 -13 6 -22 9 -12 6 -12 -13 2 -54 38 -251 128 -355 162 -126 41 -267 71
-375 80 -41 3 -84 8 -95 9 -11 2 -31 1 -45 -3z m927 -267 c-3 -3 -12 -4 -19
-1 -8 3 -5 6 6 6 11 1 17 -2 13 -5z"/>
<path d="M4955 7123 c-74 -10 -263 -56 -343 -84 -48 -17 -147 -60 -220 -96
-107 -52 -143 -75 -187 -121 -31 -31 -53 -62 -51 -69 3 -7 0 -13 -7 -13 -7 0
-8 -3 -2 -8 6 -4 10 -13 11 -19 1 -7 2 -18 3 -23 0 -6 25 7 54 28 74 55 228
143 322 185 150 66 312 108 518 133 l47 5 0 45 0 44 -57 -1 c-32 -1 -71 -4
-88 -6z"/>
<path d="M6007 6999 c7 -7 15 -10 18 -7 3 3 -2 9 -12 12 -14 6 -15 5 -6 -5z"/>
<path d="M4906 6868 c7 -29 14 -63 14 -76 0 -38 25 -20 28 20 4 43 -21 108
-42 108 -12 0 -12 -7 0 -52z"/>
<path d="M5459 6875 c-21 -47 -22 -106 -3 -112 6 -2 18 21 27 54 9 32 19 68
22 81 6 17 3 22 -9 22 -11 0 -25 -18 -37 -45z"/>
<path d="M4833 6895 c-10 -27 4 -93 27 -125 12 -17 24 -30 25 -28 2 2 0 23 -5
48 -5 25 -11 62 -15 83 -6 38 -21 49 -32 22z"/>
<path d="M5535 6873 c-3 -15 -10 -47 -16 -70 -12 -54 -12 -53 6 -53 16 0 49
97 43 127 -5 28 -27 26 -33 -4z"/>
<path d="M3726 6873 c-6 -14 -5 -15 5 -6 7 7 10 15 7 18 -3 3 -9 -2 -12 -12z"/>
<path d="M4620 6835 c6 -8 22 -44 34 -80 19 -58 24 -64 36 -50 25 30 -24 145
-62 145 -17 0 -18 -3 -8 -15z"/>
<path d="M5725 6816 c-8 -12 -21 -41 -30 -66 -13 -36 -13 -46 -2 -57 10 -11
19 0 49 61 35 70 36 74 17 79 -13 4 -24 -2 -34 -17z"/>
<path d="M4567 6813 c-13 -12 -7 -44 18 -93 46 -91 60 -69 24 38 -20 60 -28
70 -42 55z"/>
<path d="M5800 6796 c0 -8 -13 -43 -29 -76 -44 -90 -7 -89 39 1 24 46 25 62 5
79 -12 10 -15 10 -15 -4z"/>
<path d="M6318 6793 c-4 -13 2 -18 19 -19 23 -2 24 -1 7 17 -21 23 -21 23 -26
2z"/>
<path d="M4010 6770 c0 -5 5 -10 11 -10 5 0 7 5 4 10 -3 6 -8 10 -11 10 -2 0
-4 -4 -4 -10z"/>
<path d="M3644 6698 c0 -16 2 -16 18 -1 10 9 18 17 18 17 0 1 -8 2 -18 2 -10
0 -18 -8 -18 -18z"/>
<path d="M4361 6711 c-11 -7 -11 -10 2 -17 20 -12 67 -94 67 -118 0 -15 3 -16
15 -6 19 16 19 43 -1 83 -31 61 -53 77 -83 58z"/>
<path d="M5950 6658 c-29 -52 -38 -92 -22 -102 10 -6 85 132 77 144 -12 19
-25 9 -55 -42z"/>
<path d="M4315 6660 c-11 -35 59 -139 80 -118 7 7 -56 138 -66 138 -4 0 -11
-9 -14 -20z"/>
<path d="M6022 6641 c-7 -21 -23 -55 -37 -75 -23 -34 -23 -36 -4 -36 12 0 30
17 49 47 33 51 37 75 17 92 -11 9 -16 3 -25 -28z"/>
<path d="M3599 6633 c-13 -16 -12 -17 4 -4 9 7 17 15 17 17 0 8 -8 3 -21 -13z"/>
<path d="M6887 6440 c3 -11 9 -20 15 -20 5 0 4 9 -2 20 -6 11 -12 20 -14 20
-2 0 -2 -9 1 -20z"/>
<path d="M6977 6203 l-17 -38 20 24 c11 13 20 29 20 37 0 22 -5 17 -23 -23z"/>
<path d="M7010 6190 c0 -5 5 -10 10 -10 6 0 10 5 10 10 0 6 -4 10 -10 10 -5 0
-10 -4 -10 -10z"/>
<path d="M3360 6090 c0 -5 5 -10 10 -10 6 0 10 5 10 10 0 6 -4 10 -10 10 -5 0
-10 -4 -10 -10z"/>
<path d="M3440 6069 c-6 -11 -10 -25 -8 -30 2 -5 8 4 15 21 13 34 9 40 -7 9z"/>
<path d="M5080 5919 c-87 -17 -230 -87 -230 -112 0 -5 14 -22 31 -38 25 -23
35 -27 45 -18 8 6 14 8 14 3 0 -4 6 -1 13 8 24 31 141 68 214 68 73 0 147 -16
138 -30 -3 -4 3 -6 13 -3 10 2 36 -10 61 -27 l43 -32 27 24 c14 12 30 26 35
30 24 19 -119 100 -216 123 -69 16 -120 17 -188 4z"/>
<path d="M5624 5888 l-29 -33 33 29 c30 28 37 36 29 36 -2 0 -16 -15 -33 -32z"/>
<path d="M6991 5868 c-1 -16 4 -28 9 -28 12 0 12 8 0 35 -8 18 -9 17 -9 -7z"/>
<path d="M4780 5847 c0 -2 15 -16 33 -33 l32 -29 -29 33 c-28 30 -36 37 -36
29z"/>
<path d="M5218 5783 c6 -2 18 -2 25 0 6 3 1 5 -13 5 -14 0 -19 -2 -12 -5z"/>
<path d="M5255 5769 c-19 -4 -23 -7 -10 -8 11 0 29 -11 39 -23 18 -20 18 -21
0 -14 -11 5 -55 10 -99 13 -60 4 -91 1 -125 -12 -79 -29 -87 -29 -106 0 -11
17 -20 23 -27 16 -6 -6 13 -31 53 -70 l63 -62 53 22 53 22 70 -21 70 -21 56
55 c62 59 68 86 22 88 -16 1 -31 7 -35 13 -8 13 -27 13 -77 2z"/>
<path d="M4969 5733 c-13 -16 -12 -17 4 -4 16 13 21 21 13 21 -2 0 -10 -8 -17
-17z"/>
<path d="M5248 5743 c7 -3 16 -2 19 1 4 3 -2 6 -13 5 -11 0 -14 -3 -6 -6z"/>
<path d="M1052 6945 c-7 -14 -12 -32 -12 -40 0 -20 44 -47 64 -39 25 9 37 49
26 79 -13 35 -62 35 -78 0z m48 -25 c0 -16 -4 -30 -10 -30 -5 0 -10 14 -10 30
0 17 5 30 10 30 6 0 10 -13 10 -30z"/>
<path d="M9170 6949 c-15 -27 -5 -66 20 -79 16 -9 25 -6 45 14 25 25 25 44 2
74 -15 19 -55 14 -67 -9z m48 -32 c4 -29 -12 -37 -22 -11 -10 26 -7 46 7 42 6
-3 13 -17 15 -31z"/>
<path d="M130 6751 c0 -6 5 -13 10 -16 6 -3 10 1 10 9 0 9 -4 16 -10 16 -5 0
-10 -4 -10 -9z"/>
<path d="M417 6536 c-7 -18 1 -26 25 -26 11 0 18 7 18 20 0 23 -35 28 -43 6z"/>
<path d="M9856 6544 c-8 -20 1 -34 20 -34 20 0 30 30 13 41 -20 12 -26 11 -33
-7z"/>
<path d="M3895 6240 c-10 -16 4 -30 46 -47 21 -8 39 -19 39 -25 0 -5 5 -6 10
-3 21 13 9 46 -22 65 -36 22 -63 26 -73 10z m70 -38 c-3 -3 -11 0 -18 7 -9 10
-8 11 6 5 10 -3 15 -9 12 -12z"/>
<path d="M3800 6125 c0 -9 6 -12 16 -8 14 5 16 1 12 -21 -5 -25 -1 -30 29 -43
71 -29 86 10 21 57 -44 32 -78 39 -78 15z"/>
<path d="M3743 5963 c-18 -6 -16 -48 2 -63 8 -6 32 -14 54 -17 32 -4 42 -2 47
12 12 31 -65 81 -103 68z m11 -28 c-4 -11 5 -16 35 -21 23 -4 41 -11 41 -15 0
-10 -44 -2 -72 13 -19 9 -25 38 -8 38 5 0 7 -7 4 -15z m56 -5 c13 -8 13 -10
-2 -10 -9 0 -20 5 -23 10 -8 13 5 13 25 0z"/>
<path d="M3677 5823 c-17 -16 -3 -32 40 -47 61 -21 83 -20 83 2 0 13 -15 23
-53 35 -61 19 -61 19 -70 10z"/>
<path d="M6383 6239 c-47 -23 -53 -37 -24 -63 16 -15 19 -15 24 -1 4 8 12 15
19 15 7 0 26 8 41 19 26 17 27 19 12 35 -21 20 -21 20 -72 -5z"/>
<path d="M6473 6100 c-37 -22 -44 -50 -13 -50 11 0 38 7 60 16 34 14 38 19 29
35 -13 24 -36 24 -76 -1z"/>
<path d="M6540 5942 c-42 -21 -48 -55 -10 -60 30 -5 100 15 100 28 0 12 -37
50 -47 50 -5 0 -24 -8 -43 -18z m46 -27 c19 6 19 6 0 -9 -26 -21 -56 -20 -56
2 0 14 2 15 10 2 8 -12 10 -12 10 5 0 14 3 16 8 7 5 -7 17 -10 28 -7z"/>
<path d="M6588 5798 c-27 -7 -38 -15 -38 -29 0 -14 7 -19 25 -19 38 0 95 27
95 44 0 18 -25 19 -82 4z"/>
<path d="M6503 5513 c15 -2 39 -2 55 0 15 2 2 4 -28 4 -30 0 -43 -2 -27 -4z"/>
<path d="M4995 5320 c-3 -6 1 -7 9 -4 18 7 21 14 7 14 -6 0 -13 -4 -16 -10z"/>
<path d="M4955 5280 c-3 -6 1 -7 9 -4 18 7 21 14 7 14 -6 0 -13 -4 -16 -10z"/>
<path d="M4570 4965 c-7 -8 -8 -15 -2 -15 5 0 15 7 22 15 7 8 8 15 2 15 -5 0
-15 -7 -22 -15z"/>
<path d="M6100 3400 c-8 -5 -10 -10 -5 -10 6 0 17 5 25 10 8 5 11 10 5 10 -5
0 -17 -5 -25 -10z"/>
<path d="M5752 3381 c-21 -13 11 -21 45 -11 15 4 20 9 11 9 -9 1 -22 3 -30 6
-7 3 -19 1 -26 -4z"/>
<path d="M6058 3383 c7 -3 16 -2 19 1 4 3 -2 6 -13 5 -11 0 -14 -3 -6 -6z"/>
<path d="M4480 3351 c0 -6 -10 -12 -22 -12 -17 -1 -18 -3 -6 -6 23 -6 55 12
39 21 -6 4 -11 2 -11 -3z"/>
<path d="M4385 3340 c-13 -6 -15 -9 -5 -9 8 0 22 4 30 9 18 12 2 12 -25 0z"/>
<path d="M4948 3333 c6 -2 18 -2 25 0 6 3 1 5 -13 5 -14 0 -19 -2 -12 -5z"/>
<path d="M4508 3323 c6 -2 18 -2 25 0 6 3 1 5 -13 5 -14 0 -19 -2 -12 -5z"/>
<path d="M4488 3303 c7 -3 16 -2 19 1 4 3 -2 6 -13 5 -11 0 -14 -3 -6 -6z"/>
<path d="M4628 3263 c7 -3 16 -2 19 1 4 3 -2 6 -13 5 -11 0 -14 -3 -6 -6z"/>
<path d="M5640 5005 c19 -19 36 -35 39 -35 3 0 -10 16 -29 35 -19 19 -36 35
-39 35 -3 0 10 -16 29 -35z"/>
<path d="M3687 5123 c-4 -3 -7 -15 -7 -25 0 -14 8 -18 34 -18 46 0 86 16 86
35 0 12 -12 15 -53 15 -30 0 -57 -3 -60 -7z"/>
<path d="M3758 5004 c-30 -13 -38 -22 -38 -41 0 -24 2 -25 36 -18 59 11 85 26
82 49 -4 27 -32 30 -80 10z"/>
<path d="M3935 4989 c-4 -6 -5 -12 -2 -15 2 -3 7 2 10 11 7 17 1 20 -8 4z"/>
<path d="M3944 4967 c-8 -9 -7 -15 4 -23 14 -10 25 -64 12 -62 -3 1 -13 -2
-23 -7 -15 -6 -16 -10 -5 -16 10 -7 9 -9 -4 -9 -12 0 -18 10 -20 38 -3 32 -6
37 -28 37 -14 0 -30 4 -37 8 -7 4 -24 5 -38 1 -19 -5 -23 -9 -14 -15 7 -4 10
-11 6 -15 -3 -4 -13 -1 -22 6 -12 10 -15 10 -15 0 0 -10 -3 -10 -15 0 -13 10
-15 9 -15 -9 0 -13 7 -30 16 -38 8 -9 13 -24 11 -34 -3 -11 0 -22 5 -26 7 -3
8 -1 4 5 -5 8 1 12 17 12 14 0 40 6 58 13 37 15 116 16 138 2 10 -5 12 -4 7 3
-4 7 -1 12 8 12 9 0 16 -2 16 -3 0 -11 -39 -47 -50 -47 -10 0 -10 -3 0 -15 12
-15 17 -82 6 -92 -3 -4 -6 1 -6 10 0 10 -5 17 -11 17 -5 0 -8 -4 -5 -9 4 -5
-23 -11 -59 -13 -47 -2 -65 0 -65 10 0 6 8 12 18 12 34 0 112 32 112 45 0 8
-9 20 -21 29 -19 13 -25 12 -62 -4 -37 -17 -55 -39 -63 -78 -6 -31 -15 -24
-10 8 6 35 6 35 -8 10 -13 -23 -13 -29 9 -65 13 -22 29 -39 35 -37 6 1 9 -2 5
-8 -6 -9 52 -97 106 -160 l21 -24 28 33 c16 18 28 38 26 44 -1 7 -1 8 2 4 7
-14 81 64 75 79 -3 8 0 14 7 14 6 0 8 -4 5 -10 -10 -16 8 -11 34 11 l24 19
-49 72 c-27 39 -57 82 -66 97 -11 16 -18 20 -18 11 0 -13 -2 -13 -9 0 -6 8 -8
17 -5 22 5 9 -45 111 -57 116 -4 2 -5 10 -2 18 6 17 2 17 -13 1z m-107 -43
c-3 -3 -12 -4 -19 -1 -8 3 -5 6 6 6 11 1 17 -2 13 -5z m59 -40 c2 -16 0 -22
-3 -14 -3 8 -10 23 -15 34 -7 13 -7 17 3 14 7 -2 14 -17 15 -34z m-106 -8 c0
-2 -7 -6 -15 -10 -8 -3 -15 -1 -15 4 0 6 7 10 15 10 8 0 15 -2 15 -4z m194
-256 c-11 -11 -34 -22 -52 -23 -17 -1 -34 -8 -37 -14 -2 -7 -9 -13 -15 -13
-19 0 25 40 45 40 11 1 31 7 45 15 34 20 38 18 14 -5z"/>
<path d="M3919 4932 c6 -12 9 -27 6 -32 -3 -6 -2 -10 3 -10 9 0 26 31 20 34
-2 1 -12 8 -22 16 -18 14 -19 14 -7 -8z"/>
<path d="M3872 4825 c-7 -8 -9 -15 -4 -15 5 0 15 7 22 15 16 19 -1 19 -18 0z"/>
<path d="M3746 4757 c3 -10 9 -15 12 -12 3 3 0 11 -7 18 -10 9 -11 8 -5 -6z"/>
<path d="M6540 5111 c0 -22 10 -27 74 -36 41 -7 46 -5 46 12 0 24 -38 43 -85
43 -28 0 -35 -4 -35 -19z"/>
<path d="M6491 4998 c-8 -20 -4 -25 28 -40 44 -21 91 -23 91 -4 0 7 7 19 15
26 17 14 20 30 4 30 -5 0 -7 -4 -4 -10 8 -12 -10 -13 -33 -1 -9 4 -34 11 -55
15 -33 6 -38 4 -46 -16z"/>
<path d="M6409 4981 c-14 -31 -32 -33 -23 -3 5 14 4 14 -4 2 -7 -9 -7 -18 -1
-26 6 -7 5 -22 -2 -40 -7 -16 -13 -34 -15 -41 -3 -17 -38 -62 -47 -63 -5 0 2
17 14 37 13 20 17 33 11 29 -18 -11 -44 -65 -37 -77 4 -5 1 -8 -6 -7 -8 2 -14
-7 -15 -20 -1 -12 -5 -26 -9 -30 -5 -4 -5 1 -2 11 11 29 2 20 -43 -45 -24 -34
-39 -58 -33 -55 7 5 9 0 6 -14 -4 -16 -8 -17 -14 -7 -7 11 -9 11 -9 0 0 -8 41
-56 92 -107 71 -72 95 -92 105 -83 16 13 17 32 1 22 -7 -4 -8 -3 -4 4 4 6 13
9 21 6 13 -6 39 29 29 39 -3 3 0 8 7 13 8 4 10 3 5 -4 -4 -7 -5 -12 -2 -12 14
0 65 90 60 107 -4 13 -3 15 4 5 7 -11 16 -2 36 34 15 26 25 53 22 60 -3 7 -2
14 2 16 12 5 42 78 32 78 -6 0 -10 5 -10 11 0 6 7 9 15 5 19 -7 19 1 0 20 -13
13 -15 12 -21 -11 -3 -14 -10 -25 -16 -25 -5 0 -7 -4 -4 -9 8 -12 -4 -41 -16
-41 -6 0 -7 7 -4 15 4 12 -1 15 -22 13 -21 -2 -27 1 -27 16 0 11 -16 27 -42
41 -23 12 -40 25 -36 29 10 9 45 7 39 -3 -3 -5 13 -17 37 -26 23 -9 45 -22 50
-28 9 -15 37 18 37 44 0 28 -83 50 -125 34 l-20 -8 20 23 c17 20 18 23 3 17
-10 -4 -18 -2 -18 3 0 5 10 10 23 12 24 3 27 20 5 26 -9 2 -8 0 2 -7 12 -9 11
-11 -7 -11 -12 0 -29 -3 -39 -7 -16 -6 -15 -2 4 24 24 34 27 43 13 43 -5 0
-15 -13 -22 -29z m11 -83 c0 -5 -7 -3 -15 6 -8 8 -15 18 -15 22 0 3 7 1 15 -6
8 -7 15 -17 15 -22z m-33 -20 c-3 -8 -6 -5 -6 6 -1 11 2 17 5 13 3 -3 4 -12 1
-19z m8 -28 c3 -5 11 -7 18 -5 15 5 41 -14 49 -37 6 -14 1 -16 -30 -13 -51 5
-83 16 -77 26 3 4 12 6 20 2 10 -3 15 1 15 12 0 9 -4 13 -10 10 -5 -3 -10 -1
-10 4 0 14 17 14 25 1z m-18 -82 c-3 -8 -6 -5 -6 6 -1 11 2 17 5 13 3 -3 4
-12 1 -19z m63 -38 c43 -22 53 -36 19 -27 -16 4 -18 3 -9 -8 9 -11 7 -12 -9
-8 -12 3 -18 9 -15 14 3 5 -6 14 -20 21 -26 11 -35 28 -16 28 6 0 29 -9 50
-20z m71 -9 c-12 -12 -21 -18 -21 -14 0 10 33 44 37 39 3 -2 -5 -14 -16 -25z
m-136 -10 c17 -7 15 -9 -13 -13 -31 -4 -40 1 -25 15 8 8 12 8 38 -2z m-13 -84
c29 -20 48 -47 32 -47 -9 0 -74 55 -74 63 0 11 7 9 42 -16z"/>
<path d="M6616 4931 c-3 -5 1 -11 9 -14 9 -4 12 -1 8 9 -6 16 -10 17 -17 5z"/>
<path d="M6345 4909 c-4 -6 -5 -12 -2 -15 2 -3 7 2 10 11 7 17 1 20 -8 4z"/>
<path d="M6613 4869 c-2 -23 3 -25 10 -4 4 8 3 16 -1 19 -4 3 -9 -4 -9 -15z"/>
<path d="M2506 4064 c-4 -9 -4 -19 -1 -22 2 -3 7 3 11 12 4 9 4 19 1 22 -2 3
-7 -3 -11 -12z"/>
<path d="M2520 4019 c0 -5 5 -7 10 -4 6 3 10 8 10 11 0 2 -4 4 -10 4 -5 0 -10
-5 -10 -11z"/>
<path d="M2491 4004 c0 -11 3 -14 6 -6 3 7 2 16 -1 19 -3 4 -6 -2 -5 -13z"/>
<path d="M2541 3993 c0 -11 3 -13 6 -5 2 6 10 9 15 6 7 -4 8 -2 4 4 -11 18
-26 14 -25 -5z"/>
<path d="M2510 3993 c0 -6 7 -24 16 -39 l16 -29 -7 30 c-7 31 -25 59 -25 38z"/>
<path d="M2562 3956 c7 -8 15 -12 17 -11 5 6 -10 25 -20 25 -5 0 -4 -6 3 -14z"/>
<path d="M2510 3935 c0 -6 5 -16 12 -23 7 -7 9 -12 5 -12 -4 0 -2 -6 5 -14 11
-11 15 -11 25 3 7 9 12 23 13 31 0 9 -3 11 -8 5 -10 -15 -31 -12 -42 5 -5 8
-10 10 -10 5z"/>
<path d="M4194 5039 c-3 -6 -1 -16 6 -22 10 -9 11 -9 5 2 -4 8 -2 17 6 22 9 6
10 9 2 9 -6 0 -15 -5 -19 -11z"/>
<path d="M9139 4387 c25 -28 41 -35 41 -17 0 6 -5 10 -12 10 -6 0 -21 8 -32
17 -15 13 -14 10 3 -10z"/>
<path d="M421 4332 c-7 -14 -7 -24 3 -38 12 -16 16 -16 30 -4 21 17 17 54 -6
58 -9 2 -21 -5 -27 -16z"/>
<path d="M9847 4343 c-13 -12 -7 -44 9 -50 23 -9 48 25 33 44 -12 14 -32 17
-42 6z"/>
<path d="M1050 3981 c-15 -30 -12 -56 10 -76 44 -39 104 32 65 75 -23 25 -61
26 -75 1z m50 -37 c0 -13 -4 -24 -10 -24 -5 0 -10 14 -10 31 0 17 4 28 10 24
6 -3 10 -17 10 -31z"/>
<path d="M9180 3990 c-25 -25 -25 -51 -1 -81 18 -22 19 -23 45 -5 34 22 41 39
27 65 -20 36 -48 44 -71 21z m40 -41 c0 -38 -24 -35 -28 4 -2 19 1 27 12 27
11 0 16 -10 16 -31z"/>
<path d="M2313 4033 c4 -3 -1 -16 -10 -27 -18 -21 -18 -21 4 -2 20 16 23 36 6
36 -4 0 -3 -3 0 -7z"/>
<path d="M2305 3979 c-4 -6 -5 -12 -2 -15 2 -3 7 2 10 11 7 17 1 20 -8 4z"/>
<path d="M9948 3883 c7 -3 16 -2 19 1 4 3 -2 6 -13 5 -11 0 -14 -3 -6 -6z"/>
<path d="M10045 3840 c-3 -5 -2 -10 4 -10 5 0 13 5 16 10 3 6 2 10 -4 10 -5 0
-13 -4 -16 -10z"/>
<path d="M2425 3770 c3 -5 8 -10 11 -10 2 0 4 5 4 10 0 6 -5 10 -11 10 -5 0
-7 -4 -4 -10z"/>
<path d="M2795 3340 c3 -5 8 -10 11 -10 2 0 4 5 4 10 0 6 -5 10 -11 10 -5 0
-7 -4 -4 -10z"/>
<path d="M1239 2821 c-33 -33 -36 -58 -13 -103 14 -27 15 -41 5 -99 -17 -106
-22 -99 69 -99 49 0 80 4 80 11 0 5 -7 42 -16 81 -15 65 -15 74 0 105 27 57
18 96 -31 121 -35 19 -63 14 -94 -17z"/>
<path d="M9045 2866 c-40 -17 -92 -77 -103 -120 -12 -42 -2 -99 26 -151 12
-22 22 -36 22 -31 0 5 8 2 18 -6 53 -48 179 -39 232 15 38 39 54 87 48 149
-11 115 -138 190 -243 144z m147 -47 c89 -64 74 -195 -27 -240 -70 -31 -136
-5 -174 68 -19 37 -14 107 11 138 53 67 125 80 190 34z"/>
<path d="M9044 2776 c-39 -39 -44 -77 -18 -131 43 -92 194 -51 194 52 0 102
-106 149 -176 79z"/>
<path d="M3480 2760 c6 -11 13 -20 16 -20 2 0 0 9 -6 20 -6 11 -13 20 -16 20
-2 0 0 -9 6 -20z"/>
<path d="M6130 2070 c8 -5 20 -10 25 -10 6 0 3 5 -5 10 -8 5 -19 10 -25 10 -5
0 -3 -5 5 -10z"/>
<path d="M1973 2384 c-20 -31 -9 -57 26 -62 44 -7 75 54 39 77 -28 17 -46 13
-65 -15z"/>
<path d="M8272 2398 c-13 -13 -15 -37 -6 -62 10 -26 62 -20 75 8 22 47 -33 90
-69 54z"/>
<path d="M4902 2320 c0 -14 2 -19 5 -12 2 6 2 18 0 25 -3 6 -5 1 -5 -13z"/>
<path d="M2610 2146 c0 -2 8 -10 18 -17 15 -13 16 -12 3 4 -13 16 -21 21 -21
13z"/>
<path d="M2421 2104 c-36 -46 -25 -79 35 -105 41 -17 54 -36 37 -52 -3 -4 -11
-3 -17 2 -16 13 -49 17 -63 8 -22 -14 -14 -40 24 -74 l36 -34 26 23 c51 47 61
62 58 98 -2 32 -7 37 -54 59 -55 26 -63 42 -39 74 20 26 28 21 21 -13 -6 -28
-5 -30 24 -30 23 0 31 5 31 18 0 53 -84 70 -119 26z m59 -194 c0 -5 -4 -10
-10 -10 -5 0 -10 5 -10 10 0 6 5 10 10 10 6 0 10 -4 10 -10z"/>
<path d="M7986 2161 c75 -45 113 -140 93 -228 -5 -27 -17 -58 -25 -70 -8 -13
-10 -23 -5 -23 6 0 19 21 31 46 23 54 26 130 6 177 -14 35 -98 117 -118 117
-7 0 1 -9 18 -19z"/>
<path d="M7736 2140 c-65 -57 -93 -154 -65 -227 14 -37 52 -93 63 -93 5 0 2 8
-6 18 -32 35 -48 82 -48 137 0 64 22 115 71 163 42 41 31 42 -15 2z"/>
<path d="M7858 2069 c-21 -12 -23 -40 -6 -57 36 -36 96 11 62 49 -19 21 -31
23 -56 8z"/>
<path d="M7842 1943 c-51 -10 -34 -57 24 -69 24 -4 37 0 59 18 26 23 26 25 11
41 -17 16 -45 19 -94 10z m48 -43 c0 -5 -5 -10 -11 -10 -5 0 -7 5 -4 10 3 6 8
10 11 10 2 0 4 -4 4 -10z"/>
<path d="M7674 1831 c9 -17 18 -31 20 -31 10 0 -12 54 -23 58 -9 3 -8 -4 3
-27z"/>
<path d="M1518 2073 c-39 -10 -33 -79 8 -89 45 -12 79 42 48 77 -17 19 -24 21
-56 12z"/>
<path d="M8755 2056 c-33 -50 27 -103 69 -60 31 30 9 84 -34 84 -11 0 -26 -11
-35 -24z"/>
<path d="M841 2053 c1 -17 3 -21 6 -10 2 9 9 17 14 17 5 0 9 5 9 10 0 6 -7 10
-15 10 -10 0 -15 -9 -14 -27z"/>
<path d="M9467 2074 c-11 -11 -8 -44 3 -44 15 0 24 30 13 41 -5 5 -12 6 -16 3z"/>
<path d="M835 1750 c-3 -5 -1 -18 4 -27 10 -17 10 -16 11 2 1 20 1 20 15 1 15
-20 20 -10 9 18 -7 18 -30 21 -39 6z"/>
<path d="M9456 1745 c-8 -21 1 -35 20 -35 10 0 14 8 12 22 -4 27 -23 34 -32
13z"/>
<path d="M5915 1450 c-9 -29 4 -80 20 -80 18 0 29 54 15 79 -14 27 -27 27 -35
1z"/>
<path d="M852 1454 c1 -9 9 -19 16 -22 9 -3 13 2 10 14 -1 9 -9 19 -16 22 -9
3 -13 -2 -10 -14z"/>
<path d="M1374 1459 c-3 -6 -1 -16 5 -22 8 -8 11 -5 11 11 0 24 -5 28 -16 11z"/>
<path d="M4382 1428 c2 -39 7 -53 18 -53 9 0 16 11 18 29 5 41 -6 76 -24 76
-12 0 -14 -11 -12 -52z"/>
<path d="M4695 1470 c-13 -21 -9 -81 5 -90 22 -13 30 -2 30 39 0 40 -22 72
-35 51z"/>
<path d="M5002 1468 c-14 -14 -16 -67 -3 -87 14 -22 31 -2 31 37 0 47 -11 67
-28 50z"/>
<path d="M5297 1473 c-10 -9 -8 -76 2 -92 14 -23 31 -2 31 38 0 37 -19 68 -33
54z"/>
<path d="M5607 1474 c-11 -12 -8 -92 4 -100 26 -16 40 58 16 90 -7 9 -16 14
-20 10z"/>
<path d="M8896 1435 c4 -8 8 -15 10 -15 2 0 4 7 4 15 0 8 -4 15 -10 15 -5 0
-7 -7 -4 -15z"/>
<path d="M9172 1449 c1 -12 9 -24 16 -27 9 -3 13 3 10 19 -1 12 -9 24 -16 27
-9 3 -13 -3 -10 -19z"/>
<path d="M1898 1194 c-10 -9 4 -44 18 -44 17 0 25 15 18 34 -6 16 -25 21 -36
10z"/>
<path d="M2150 1171 c0 -6 4 -13 10 -16 6 -3 7 1 4 9 -7 18 -14 21 -14 7z"/>
<path d="M4994 1186 c-8 -22 0 -69 12 -73 13 -4 24 40 17 68 -6 22 -21 25 -29
5z"/>
<path d="M5295 1181 c-8 -27 3 -63 18 -58 7 2 12 19 12 37 0 38 -20 52 -30 21z"/>
<path d="M8132 1180 c4 -31 49 -43 47 -13 0 13 -2 14 -6 4 -4 -11 -10 -8 -25
10 l-19 24 3 -25z"/>
<path d="M8910 1191 c0 -18 17 -38 25 -30 12 14 8 44 -7 47 -13 2 -18 -3 -18
-17z"/>
<path d="M9460 1180 c0 -25 -8 -25 -27 -2 -13 16 -14 16 -11 -3 4 -26 53 -34
62 -10 7 19 0 35 -15 35 -5 0 -9 -9 -9 -20z"/>
<path d="M845 1200 c-7 -12 12 -40 27 -40 13 0 6 43 -9 47 -6 2 -14 -1 -18 -7z"/>
<path d="M1637 1193 c-12 -12 -7 -43 7 -43 8 0 14 10 14 25 0 25 -8 31 -21 18z"/>
<path d="M3504 1175 c-7 -18 3 -35 22 -35 8 0 14 10 14 25 0 27 -27 35 -36 10z"/>
<path d="M4398 1165 c-9 -20 -9 -28 1 -38 9 -9 14 -9 21 3 13 20 13 47 0 55
-5 3 -15 -5 -22 -20z"/>
<path d="M5607 1183 c-14 -13 -7 -63 8 -63 10 0 15 11 15 35 0 33 -8 43 -23
28z"/>
<path d="M5921 1172 c-11 -21 -5 -52 10 -52 14 0 23 50 11 62 -7 7 -14 4 -21
-10z"/>
<path d="M6766 1193 c-10 -10 -7 -43 4 -43 5 0 6 7 3 17 -4 11 -3 14 5 9 7 -4
12 -3 12 3 0 13 -15 22 -24 14z"/>
<path d="M7880 1171 c0 -25 6 -27 13 -6 4 8 2 17 -3 20 -6 4 -10 -3 -10 -14z"/>
<path d="M9172 1188 c2 -12 8 -23 14 -25 7 -2 10 6 7 22 -6 30 -26 34 -21 3z"/>
<path d="M7840 896 c0 -2 7 -9 15 -16 9 -7 15 -8 15 -2 0 5 -7 12 -15 16 -8 3
-15 4 -15 2z"/>
<path d="M10190 6190 c0 -6 7 -10 15 -10 8 0 15 2 15 4 0 2 -7 6 -15 10 -8 3
-15 1 -15 -4z"/>
<path d="M44 5925 c-7 -17 12 -45 31 -45 16 0 26 25 19 45 -8 19 -43 19 -50 0z"/>
<path d="M51 4580 c-20 -12 -8 -45 17 -48 18 -3 22 1 22 21 0 27 -19 40 -39
27z"/>
<path d="M10205 4110 c3 -5 8 -10 11 -10 2 0 4 5 4 10 0 6 -5 10 -11 10 -5 0
-7 -4 -4 -10z"/>
</g>
</svg>
