<?xml version="1.0" standalone="no"?>
<!DOCTYPE svg PUBLIC "-//W3C//DTD SVG 20010904//EN"
 "http://www.w3.org/TR/2001/REC-SVG-20010904/DTD/svg10.dtd">
<svg version="1.0" xmlns="http://www.w3.org/2000/svg"
 width="1024.000000pt" height="1024.000000pt" viewBox="0 0 1024.000000 1024.000000"
 preserveAspectRatio="xMidYMid meet">

<g transform="translate(0.000000,1024.000000) scale(0.100000,-0.100000)"
fill="#000000" stroke="none">
<path d="M0 5120 l0 -5120 2615 0 2616 0 -1 273 c-1 329 -17 737 -31 792 -10
42 -15 63 -24 107 -4 14 -13 29 -21 32 -8 3 -14 10 -14 16 0 15 -25 40 -39 40
-6 0 -11 -4 -11 -10 0 -22 -19 -8 -34 25 -11 23 -26 37 -44 41 -15 4 -33 12
-41 18 -16 13 -21 12 -31 -5 -10 -16 -40 -4 -40 16 0 8 8 15 18 16 32 1 -18
16 -98 29 -597 97 -804 156 -1185 339 -153 74 -406 224 -470 278 l-30 26 30
-18 c17 -10 44 -28 60 -40 39 -29 235 -145 304 -179 186 -94 536 -233 564
-223 5 1 -10 9 -34 17 -41 12 -42 14 -19 20 14 4 40 5 58 2 26 -4 31 -2 27 10
-11 27 16 37 60 24 106 -33 213 -49 174 -26 -9 5 -79 30 -155 56 -142 47 -455
177 -528 218 -23 13 -66 37 -96 53 -358 195 -712 490 -983 821 -73 90 -245
345 -316 469 -295 519 -444 1101 -442 1724 1 306 20 484 80 774 27 128 100
366 152 497 44 112 177 378 209 418 11 14 -10 -32 -45 -101 -204 -397 -323
-798 -366 -1234 -17 -169 -17 -579 -1 -720 43 -369 108 -631 229 -919 202
-481 465 -873 807 -1203 137 -133 209 -192 361 -300 345 -242 731 -420 1129
-518 77 -19 149 -35 160 -34 20 1 -3 9 -134 46 -30 8 -82 24 -115 35 -33 10
-66 20 -73 20 -7 1 -11 6 -9 12 5 12 5 12 56 1 21 -5 31 -4 27 3 -3 5 -43 16
-88 23 -70 12 -78 15 -48 19 33 5 29 7 -57 35 -50 17 -89 33 -88 36 2 3 -13
11 -33 18 -72 26 -132 54 -132 62 0 4 43 -10 97 -32 217 -88 547 -181 743
-208 104 -15 200 -20 200 -10 0 4 10 9 23 11 24 4 -4 11 -203 49 -479 90 -902
263 -1302 530 -109 73 -298 222 -298 235 0 3 21 -12 48 -33 232 -192 577 -398
847 -506 236 -94 536 -176 734 -199 94 -11 104 -10 113 5 5 9 14 17 20 17 15
0 78 57 71 64 -4 3 5 6 18 6 47 1 -4 17 -91 30 -241 33 -521 104 -745 188 -88
33 -275 118 -275 125 0 3 53 -19 118 -48 303 -136 666 -228 993 -251 89 -6
211 3 181 13 -6 3 -10 9 -7 14 8 12 -19 17 -160 30 -124 11 -314 44 -324 55
-3 4 5 4 19 1 36 -9 186 -21 180 -14 -3 3 -32 11 -65 17 -33 5 -89 17 -125 24
l-65 14 50 1 c28 1 65 -3 82 -8 18 -5 78 -12 135 -15 l103 -6 -139 25 c-466
84 -835 225 -1210 464 -70 45 -130 81 -132 79 -2 -2 36 -34 83 -71 48 -37 83
-67 80 -67 -4 0 -37 18 -73 40 -36 22 -68 40 -71 40 -2 0 -23 13 -46 29 -112
76 -111 60 0 -24 103 -78 107 -82 48 -52 -76 38 -189 121 -251 185 -82 82
-148 162 -141 168 3 4 30 -17 60 -45 30 -28 56 -48 60 -45 3 3 2 11 -3 18 -51
62 -61 76 -53 76 5 0 22 -13 38 -30 16 -16 31 -28 33 -25 3 3 -42 53 -101 112
-103 106 -234 254 -285 323 -14 19 -42 58 -63 85 -20 28 -44 66 -53 85 l-16
35 22 -29 c13 -17 63 -84 112 -150 108 -145 377 -421 422 -432 48 -12 143 -90
144 -119 0 -5 21 -28 48 -51 293 -250 786 -469 1247 -554 95 -17 314 -40 385
-40 l66 0 2 37 c2 20 6 41 10 47 3 6 7 25 9 43 2 36 1 37 -132 48 -483 40
-964 205 -1340 457 -187 126 -229 161 -401 333 -227 226 -379 436 -509 700
-144 292 -224 564 -267 900 -18 142 -14 575 6 735 9 69 19 143 21 165 l5 40
-13 -40 c-7 -22 -15 -34 -18 -27 -3 10 -11 10 -37 1 -18 -6 -36 -9 -39 -5 -3
3 -12 -2 -19 -12 -11 -14 -15 -15 -23 -3 -7 11 -12 7 -25 -15 -21 -40 -21 -14
3 111 35 180 124 484 168 568 8 16 13 31 10 33 -2 3 -14 -19 -27 -48 -12 -29
-33 -75 -45 -103 -29 -61 -96 -239 -105 -280 -4 -16 -21 -79 -38 -140 -26 -94
-61 -265 -75 -370 -3 -16 -3 6 0 50 8 165 70 451 148 680 27 80 40 134 34 140
-6 5 -9 3 -9 -7 0 -9 -9 -35 -20 -59 -11 -24 -20 -36 -20 -26 0 10 6 30 13 45
8 15 11 38 7 52 -5 22 -7 23 -13 7 -4 -11 -4 -24 0 -29 3 -7 1 -8 -5 -4 -8 4
-12 0 -12 -11 -1 -16 -30 -66 -30 -51 0 19 81 211 134 318 178 359 396 630
761 948 28 24 37 35 20 24 -59 -39 -261 -229 -363 -342 -196 -216 -341 -428
-467 -685 -134 -274 -212 -510 -260 -790 -13 -76 -42 -387 -46 -490 0 -16 -3
-24 -6 -17 -3 8 -32 12 -91 13 l-87 2 85 11 85 12 -84 8 -84 8 7 105 c34 520
174 991 412 1384 248 411 550 748 921 1029 78 59 139 111 135 115 -4 5 -2 5 5
1 13 -7 158 82 148 92 -3 4 -10 0 -15 -8 -7 -10 -10 -11 -10 -2 0 7 -7 5 -19
-7 -10 -10 -49 -33 -85 -51 -37 -17 -72 -40 -79 -51 -6 -10 -18 -19 -24 -19
-7 0 -26 -12 -42 -27 -16 -16 -39 -35 -51 -43 -42 -28 -114 -85 -141 -111 -16
-15 -30 -24 -33 -22 -8 8 -349 -336 -423 -427 -136 -166 -312 -426 -390 -577
-9 -18 -20 -33 -25 -33 -7 0 -12 37 -10 85 4 79 73 227 182 390 254 379 632
743 1030 993 108 68 381 211 453 237 26 10 45 20 43 22 -8 8 -116 -36 -256
-105 -158 -78 -165 -81 -125 -52 48 34 192 104 295 144 52 20 109 43 125 51
75 37 284 106 435 146 100 26 131 44 39 23 -265 -61 -458 -131 -744 -268 -271
-131 -488 -275 -740 -492 -418 -359 -744 -812 -956 -1327 -107 -260 -193 -600
-224 -887 -14 -125 -22 -706 -11 -741 3 -8 7 -52 10 -98 4 -46 9 -96 11 -110
3 -14 2 -20 -1 -13 -8 16 -84 16 -84 0 -1 -7 -7 -2 -15 12 l-14 25 -2 -30 c-1
-30 -1 -30 -10 -5 -16 47 2 -92 28 -218 14 -68 23 -125 21 -128 -15 -15 -77
339 -103 596 -9 85 -18 156 -21 159 -2 2 -4 0 -4 -6 0 -6 -15 -9 -34 -8 -22 3
-39 -2 -47 -11 -9 -11 -15 -12 -25 -3 -9 7 -14 8 -14 1 0 -5 -9 -8 -21 -5 -12
4 -25 0 -30 -8 -6 -10 -9 -10 -9 -1 0 6 -4 12 -10 12 -5 0 -7 -6 -4 -14 3 -9
-3 -17 -15 -21 -12 -3 -21 -12 -21 -20 0 -7 -5 -15 -12 -17 -9 -3 -11 -181
-10 -758 l3 -755 22 -23 c35 -38 56 -46 84 -31 29 16 56 3 61 -30 4 -26 -32
-43 -66 -30 -13 5 -50 9 -83 9 -50 0 -64 4 -84 25 l-25 24 0 228 c-1 433 -10
1238 -15 1293 -3 30 -8 65 -12 77 -5 22 -7 23 -29 9 -22 -15 -23 -15 -26 14
-2 19 -7 27 -14 22 -9 -5 -13 -292 -17 -1057 -3 -577 -3 -1073 0 -1101 4 -39
10 -52 27 -60 11 -5 26 -20 33 -33 30 -62 -56 -113 -93 -56 -14 22 -15 32 -5
63 14 45 10 2125 -5 2207 -10 54 -27 66 -32 22 -4 -34 -22 -25 -22 11 0 21 -2
24 -10 12 -6 -9 -10 -240 -10 -601 0 -322 -3 -1155 -7 -1850 -8 -1230 -8
-1247 -14 -649 -3 338 -7 1171 -8 1850 -1 1344 2 1271 -55 1282 -57 11 -54 62
-57 -1041 -2 -921 0 -1014 14 -1023 9 -5 20 -23 24 -41 4 -17 6 -327 3 -687
-4 -532 -6 -617 -12 -450 -5 113 -8 390 -8 615 l-1 410 -32 20 c-44 28 -55 64
-33 112 15 35 16 116 14 1055 -2 734 -6 1020 -14 1028 -16 16 -48 19 -56 6 -4
-6 -8 -515 -8 -1132 l0 -1120 35 -34 35 -34 -2 -690 -3 -691 -5 687 -5 687
-37 38 -38 39 -2 1126 c-2 814 -6 1130 -14 1138 -6 6 -44 12 -83 13 -40 0 -74
4 -76 7 -2 3 -19 4 -39 2 l-34 -4 -4 -66 c-2 -37 -2 -722 0 -1522 3 -800 1
-1452 -3 -1448 -4 4 -10 690 -14 1525 l-6 1517 -35 7 c-19 4 -37 5 -40 2 -3
-2 -7 -721 -10 -1596 l-5 -1592 -5 1595 -5 1595 -42 1 -43 0 0 -1435 c0 -789
-2 -1432 -5 -1429 -3 3 -8 48 -10 99 -8 163 -6 4264 2 4734 7 399 9 314 13
-750 l5 -1200 35 3 c19 2 37 6 40 9 3 2 7 739 10 1636 l5 1632 3 -1596 c1
-878 5 -1617 8 -1643 5 -32 10 -43 18 -37 6 4 23 11 39 15 l27 6 1 863 c0 474
3 870 7 879 4 9 8 -382 10 -870 2 -487 4 -887 5 -888 9 -7 67 11 67 21 0 7 7
18 15 25 13 11 18 10 28 -4 15 -21 102 -25 121 -6 8 8 12 399 16 1458 l5 1447
-22 37 c-22 35 -23 48 -21 195 l2 158 6 -160 c4 -143 7 -164 27 -195 l23 -35
1 -1435 c1 -789 5 -1446 9 -1460 4 -14 8 -19 9 -12 1 6 7 12 14 12 8 0 21 8
30 18 16 17 17 79 17 689 0 607 -2 674 -17 700 -44 78 47 153 100 81 18 -24
18 -30 7 -58 -7 -17 -24 -38 -37 -47 l-23 -15 0 -667 c0 -366 4 -671 8 -676 8
-12 94 -16 87 -4 -3 4 -1 10 5 14 7 4 11 599 12 1803 1 1310 3 1636 8 1202 4
-327 11 -1135 15 -1795 4 -660 11 -1207 16 -1215 6 -11 9 -7 10 15 1 24 3 25
6 8 5 -26 15 -29 32 -9 26 31 30 196 31 1100 l0 938 -25 30 c-31 37 -32 62 0
93 30 31 48 31 75 3 27 -30 26 -71 -5 -99 l-25 -24 5 -950 c6 -931 8 -1071 20
-1083 3 -4 15 -1 25 6 11 7 27 12 35 12 10 0 15 10 16 28 0 15 2 38 4 52 1 14
6 478 10 1032 5 554 12 1005 16 1002 5 -3 9 -307 9 -677 0 -770 10 -1448 21
-1397 12 58 18 363 25 1237 l6 831 -27 4 c-16 2 -37 15 -49 31 -19 26 -19 30
-5 55 20 37 71 42 93 10 16 -23 21 -69 9 -82 -4 -3 -6 -370 -5 -814 2 -1155 3
-1209 10 -1217 4 -3 7 -22 9 -42 2 -33 23 -74 23 -46 0 7 12 10 28 8 15 -2 31
-4 36 -4 4 -1 6 -7 3 -14 -3 -9 9 -12 44 -11 26 0 46 -2 44 -6 -2 -4 11 -6 29
-6 l32 1 13 179 c35 500 147 939 345 1348 260 537 669 1022 1176 1394 101 75
390 254 408 254 6 0 13 4 16 8 3 5 -20 5 -52 -1 -31 -5 -120 -6 -197 -3 -119
5 -144 9 -167 26 -24 17 -44 20 -150 21 -68 1 -134 5 -148 9 -15 5 34 8 123 9
139 1 151 0 180 -21 31 -22 39 -23 242 -21 l210 2 83 40 c91 46 326 141 472
191 52 18 99 37 105 42 5 4 20 8 33 8 37 0 112 21 107 30 -3 5 20 14 50 21 30
7 55 16 55 21 0 5 5 6 12 2 6 -4 8 -3 5 3 -3 5 4 27 17 48 13 21 21 47 19 59
-4 21 -4 21 11 2 9 -11 16 -30 16 -44 0 -13 4 -20 10 -17 5 3 10 1 10 -4 0 -6
5 -11 10 -11 6 0 10 7 10 16 0 9 6 14 14 11 13 -5 46 25 46 43 0 5 7 7 16 3
13 -5 15 -2 9 15 -4 16 -2 22 8 22 9 0 17 -5 19 -12 2 -6 11 -8 19 -4 33 16
60 34 79 51 11 10 20 13 20 7 0 -6 -6 -13 -12 -15 -10 -4 -10 -6 0 -6 7 -1 14
5 16 12 15 50 18 53 25 33 7 -17 8 -17 23 -2 12 12 18 13 21 3 3 -9 7 -9 17 0
7 6 19 9 26 6 9 -3 14 2 14 13 0 9 3 15 6 11 11 -11 34 21 34 47 0 14 5 26 11
26 6 0 8 -9 4 -20 -7 -22 20 -29 28 -7 4 9 6 8 6 -2 1 -16 41 25 41 41 0 6 10
23 21 40 25 35 39 173 40 407 1 114 -2 147 -13 155 -33 25 -27 91 12 136 19
22 20 39 21 289 1 168 5 248 9 216 5 -27 9 -149 9 -271 1 -206 2 -223 21 -244
30 -34 31 -101 2 -134 -15 -16 -17 -44 -15 -225 1 -178 9 -261 30 -331 3 -11
6 -12 12 -1 6 9 10 3 14 -18 5 -25 11 -30 34 -28 22 2 29 -3 31 -21 2 -14 9
-22 17 -19 16 7 35 -12 35 -35 0 -13 10 -20 30 -25 17 -3 33 -10 36 -14 3 -5
10 -7 15 -4 5 4 9 1 9 -6 0 -8 3 -9 13 0 11 8 17 5 27 -15 11 -19 19 -24 37
-19 16 4 23 1 23 -10 0 -10 10 -15 28 -15 25 0 81 -29 58 -30 -5 0 -1 -9 9
-20 10 -11 21 -17 26 -14 5 2 21 -2 37 -10 16 -8 32 -12 36 -9 18 18 46 12 52
-12 5 -20 17 -28 65 -41 32 -9 59 -20 59 -24 0 -11 39 -25 180 -64 202 -56
337 -107 553 -208 l128 -59 245 1 c161 0 244 -3 244 -10 0 -6 -77 -10 -222
-10 l-223 0 55 -32 c147 -83 281 -165 335 -205 338 -248 525 -419 736 -673
220 -265 345 -455 474 -722 109 -226 206 -484 259 -693 56 -220 110 -616 117
-850 0 -16 3 -24 6 -17 2 6 11 12 18 12 7 0 16 6 18 13 4 9 8 8 16 -3 10 -13
13 -12 26 4 18 23 20 14 4 -17 -9 -18 -5 -16 21 8 18 17 31 23 28 15 -4 -10 0
-16 12 -16 11 0 16 5 12 15 -3 9 -1 12 6 7 7 -4 24 2 38 13 14 11 32 17 40 14
9 -3 14 2 16 18 0 13 3 38 6 54 3 17 7 482 9 1035 l4 1004 -22 30 -22 29 27
-19 c14 -10 28 -28 31 -39 2 -11 6 -485 7 -1053 3 -864 5 -1034 17 -1041 7 -5
10 -14 7 -20 -4 -6 -3 -11 2 -11 17 0 22 262 22 1237 0 732 -3 989 -12 1008
-9 21 -9 29 4 42 25 25 52 9 42 -25 -4 -15 -9 -121 -12 -237 -5 -261 9 -2066
16 -2045 3 8 10 18 16 22 7 5 7 8 -2 8 -7 0 -10 5 -7 10 4 6 17 3 35 -10 l29
-21 10 38 c7 25 11 381 11 1044 0 982 0 1007 -19 1012 -25 6 -54 50 -54 82 0
32 28 73 58 87 53 24 115 -20 115 -81 -1 -41 -12 -59 -54 -86 l-29 -19 7 -426
c3 -234 7 -681 7 -995 2 -559 7 -726 21 -676 4 14 11 20 18 16 6 -4 9 -13 7
-19 -3 -7 1 -13 9 -13 8 0 14 8 14 17 0 9 4 20 9 25 6 6 14 760 21 1849 6
1012 13 1842 15 1845 3 2 5 -279 5 -625 1 -346 1 -1173 1 -1839 1 -665 3
-1229 6 -1253 l5 -43 44 2 c24 2 48 5 53 9 6 3 13 324 17 810 l7 805 -28 33
c-25 30 -28 40 -26 101 1 40 -4 86 -13 112 -21 58 -20 69 5 95 22 23 22 27 29
746 l7 723 1 -733 c2 -638 0 -736 -13 -756 -12 -18 -13 -33 -5 -77 6 -30 10
-82 9 -117 -2 -54 1 -66 22 -88 l24 -26 5 -826 5 -827 25 0 c14 -1 28 4 32 10
4 5 8 419 8 919 l0 910 -22 35 -23 36 5 695 5 695 3 -695 2 -695 25 -44 25
-43 0 -902 c0 -495 3 -911 6 -923 6 -20 13 -23 60 -23 41 0 58 5 73 21 20 22
41 19 41 -6 0 -8 9 -19 19 -25 25 -13 27 -13 45 6 14 14 16 99 18 762 l3 747
5 -757 c3 -416 8 -760 12 -763 4 -4 23 -9 42 -10 32 -2 34 0 40 34 3 20 6 774
6 1675 0 902 2 1637 4 1635 7 -7 12 -4464 6 -5579 l-6 -1095 -2 1556 c-1 856
-5 1597 -8 1647 l-7 92 -37 0 -37 0 -6 -53 c-4 -29 -7 -689 -7 -1466 0 -778
-2 -1417 -5 -1419 -3 -3 -5 645 -5 1439 0 794 -3 1455 -7 1468 -5 21 -10 23
-47 17 -23 -4 -71 -7 -108 -8 -37 0 -74 -6 -83 -12 -13 -10 -15 -135 -15
-1035 -1 -563 -4 -1037 -7 -1054 -3 -17 -31 -56 -64 -92 l-59 -63 -2 -613 c-2
-566 -2 -588 -9 -284 -3 182 -7 460 -8 619 l-1 289 58 61 59 61 6 469 c8 563
7 1414 -2 1546 -6 88 -8 95 -26 92 -11 -2 -23 -9 -27 -15 -4 -7 -8 -320 -8
-696 l0 -685 27 -28 c14 -15 24 -30 22 -33 -3 -2 -20 10 -37 28 l-32 33 -5
669 c-3 369 -8 677 -10 685 -3 9 -19 21 -36 27 -44 17 -65 1 -73 -55 -3 -25
-7 -817 -8 -1761 -1 -944 -5 -1581 -8 -1416 -4 165 -8 667 -10 1115 -3 1122
-14 2062 -24 2082 -7 16 -9 16 -24 1 -10 -9 -17 -20 -17 -24 0 -24 -15 -17
-16 7 -1 18 -4 11 -9 -21 -4 -27 -8 -223 -9 -435 -1 -212 -4 -709 -7 -1105 -2
-396 -5 -725 -4 -732 0 -6 -13 -16 -29 -21 -41 -14 -71 8 -71 52 0 35 22 61
55 68 20 3 20 12 22 1075 3 1130 2 1157 -39 1116 -15 -15 -18 -14 -35 2 -17
18 -18 9 -24 -281 -3 -164 -7 -566 -8 -891 -1 -388 -4 -593 -11 -593 -7 0 -10
257 -11 748 -1 706 -10 1154 -19 957 l-4 -80 -6 80 -6 80 -4 -60 c-1 -33 -5
-399 -9 -813 l-6 -752 -30 -25 c-34 -29 -89 -55 -115 -55 -10 0 -28 8 -40 18
-21 17 -21 19 -5 35 19 19 38 21 65 7 24 -13 88 23 101 57 12 33 12 1316 -1
1418 -5 44 -11 97 -12 118 -1 20 -6 37 -10 37 -4 0 -8 -5 -8 -11 0 -6 -7 -3
-16 5 -18 18 -28 21 -18 5 4 -8 1 -8 -12 -1 -11 5 -31 8 -46 6 -16 -1 -28 1
-28 6 0 5 -18 7 -40 4 -24 -3 -40 -1 -40 6 0 5 -7 10 -15 10 -8 0 -15 5 -15
12 0 6 -2 9 -6 6 -3 -3 -11 -62 -19 -132 -29 -262 -74 -519 -110 -626 -18 -53
-16 -37 18 130 40 198 50 277 37 297 -10 16 -10 15 -5 -4 9 -32 -2 -45 -26
-33 -22 12 -25 1 -6 -20 6 -8 2 -6 -11 4 -12 11 -22 27 -22 36 0 10 -6 20 -14
23 -7 3 -13 0 -13 -6 1 -37 -4 -52 -12 -38 -6 9 -11 -2 -16 -34 -3 -26 -11
-57 -16 -69 -8 -17 -8 -16 -4 9 17 81 36 313 41 505 21 687 -149 1332 -500
1900 -457 740 -1189 1294 -2029 1536 -126 36 -308 76 -315 69 -7 -6 6 -10 144
-44 130 -33 270 -76 377 -118 113 -44 69 -35 -84 16 -79 27 -162 52 -184 55
l-40 6 35 -12 c318 -102 441 -151 665 -267 205 -107 298 -164 473 -291 253
-184 410 -331 626 -584 144 -169 366 -516 366 -572 0 -12 7 -37 15 -56 11 -27
12 -44 4 -72 l-10 -37 -19 24 c-10 13 -55 85 -99 159 -279 471 -692 892 -1163
1185 -215 134 -567 294 -656 298 -57 3 -39 -16 22 -22 26 -3 43 -10 40 -15 -4
-6 2 -7 16 -3 14 4 20 3 17 -3 -4 -5 26 -24 66 -42 328 -146 637 -339 882
-551 244 -211 437 -428 606 -680 98 -146 151 -240 238 -419 65 -135 186 -469
179 -492 -2 -5 -12 16 -23 48 -18 57 -19 58 -27 29 -5 -23 -6 -20 -2 13 4 38
2 43 -13 40 -10 -2 -18 -12 -18 -23 0 -28 -28 -85 -41 -85 -15 0 -26 43 -18
67 6 14 4 16 -6 6 -10 -9 -10 -22 0 -63 7 -28 10 -53 7 -56 -3 -3 -8 10 -12
28 -3 18 -12 49 -20 68 -7 19 -32 85 -55 145 -45 119 -164 363 -228 467 -103
167 -264 375 -417 537 -72 75 -287 264 -385 338 -126 94 -469 303 -496 303 -5
0 25 -19 66 -42 360 -197 668 -447 908 -733 145 -174 295 -395 334 -493 9 -24
22 -50 29 -58 10 -13 10 -17 0 -24 -10 -6 -10 -9 -1 -15 6 -4 9 -14 6 -24 -5
-13 -4 -13 8 2 12 16 13 15 11 -15 -2 -18 -3 -35 -4 -37 -1 -3 -33 51 -72 119
-93 163 -164 272 -191 296 -26 23 -17 6 29 -54 50 -65 180 -302 235 -426 58
-132 130 -342 164 -481 26 -108 32 -172 8 -90 -45 156 -57 191 -69 200 -6 6
-16 21 -20 35 -4 14 -18 48 -30 75 -13 28 -35 79 -50 115 -27 66 -183 370
-190 370 -2 0 32 -73 75 -162 89 -185 107 -228 154 -373 20 -61 30 -109 25
-116 -9 -15 -11 -13 -27 16 -11 20 -11 20 -12 -2 0 -13 -8 -24 -19 -28 -12 -4
-18 -12 -14 -21 9 -23 -23 -17 -40 9 -15 21 -16 21 -17 2 0 -17 -2 -18 -11 -5
-14 21 -7 -40 19 -160 48 -219 56 -311 57 -620 0 -322 -9 -409 -65 -638 -185
-755 -695 -1397 -1394 -1758 -160 -82 -249 -120 -421 -175 -196 -64 -459 -118
-650 -134 -38 -3 -89 -8 -112 -11 l-41 -5 5 -62 c3 -34 10 -65 17 -69 6 -4 7
-8 1 -8 -5 0 -3 -5 5 -10 19 -13 208 -4 350 16 673 96 1282 421 1766 943 160
172 346 427 450 616 63 115 49 68 -18 -60 -40 -77 -207 -321 -290 -425 -202
-252 -466 -490 -750 -674 -160 -104 -469 -252 -638 -306 -151 -48 -318 -90
-463 -115 -54 -10 -96 -19 -94 -21 6 -6 231 28 332 50 17 3 5 -3 -25 -15 -71
-27 -120 -50 -95 -45 11 2 76 16 145 31 69 15 154 35 189 45 74 21 70 10 -6
-14 -188 -61 -495 -122 -738 -147 -104 -11 -115 -14 -85 -22 19 -5 43 -13 54
-19 37 -20 337 13 558 62 302 67 659 214 926 381 180 112 385 274 567 448 61
58 81 75 45 37 -215 -225 -505 -449 -764 -591 -199 -108 -492 -222 -726 -280
-115 -29 -365 -76 -465 -88 l-30 -3 25 -11 c20 -10 21 -12 6 -12 -16 -1 -15
-4 7 -21 14 -11 29 -20 35 -20 5 0 27 -12 48 -26 l38 -26 121 16 c332 45 774
202 1110 396 230 132 446 294 640 480 54 52 82 75 61 50 -65 -76 -225 -220
-346 -311 -377 -285 -804 -490 -1260 -604 -99 -25 -321 -69 -403 -80 -27 -4
-47 -8 -45 -10 1 -1 40 -6 85 -9 190 -15 605 90 960 243 404 175 703 378 1002
680 232 235 414 480 565 761 25 47 46 81 46 77 0 -19 -154 -314 -171 -327 -3
-3 -25 -38 -49 -77 -24 -40 -56 -87 -71 -105 -30 -33 -36 -48 -19 -48 7 0 7
-6 1 -19 -6 -10 -8 -20 -6 -23 3 -3 -5 -13 -17 -24 -19 -16 -21 -16 -9 -1 9
12 11 21 4 28 -6 6 -10 5 -11 -3 0 -7 -3 -22 -6 -33 -2 -11 -5 -22 -5 -24 -1
-2 -7 1 -14 7 -16 14 -22 9 -81 -61 -36 -42 -44 -57 -31 -57 14 0 15 -3 5 -15
-7 -8 -16 -12 -21 -9 -5 3 -8 0 -7 -8 2 -7 -2 -12 -9 -11 -7 2 -10 -4 -7 -12
4 -10 2 -13 -8 -10 -8 3 -21 -1 -28 -10 -8 -10 -9 -15 -1 -15 20 0 12 -14 -19
-35 -38 -25 -39 -40 -2 -21 15 8 45 38 67 67 56 73 103 126 154 173 24 23 59
63 77 91 18 27 54 79 78 115 25 36 50 77 57 92 6 15 16 25 21 22 7 -4 7 -9 0
-13 -5 -3 -21 -28 -35 -56 -47 -93 -239 -325 -427 -515 -117 -118 -246 -227
-257 -217 -2 3 -20 -11 -39 -31 -19 -19 -34 -31 -34 -25 0 14 65 74 72 67 9
-8 133 92 182 146 27 30 35 45 26 50 -9 5 -9 9 -1 14 6 4 11 2 11 -4 0 -6 5
-8 11 -4 8 5 8 9 -1 14 -8 5 -8 11 3 21 14 15 40 59 34 59 -2 0 -24 -25 -51
-55 -26 -30 -40 -52 -31 -49 34 13 1 -27 -73 -88 -42 -34 -85 -72 -95 -83 -19
-20 -19 -20 -12 0 4 15 -4 11 -32 -16 -21 -20 -74 -57 -118 -84 -44 -27 -82
-51 -85 -55 -17 -19 -252 -155 -345 -199 -38 -17 -66 -34 -63 -37 4 -3 34 9
68 26 34 17 69 29 77 26 8 -3 11 -1 8 4 -7 12 111 72 133 68 11 -3 -1 -12 -31
-26 -26 -12 -60 -30 -75 -40 -15 -10 -43 -25 -62 -32 -19 -8 -37 -16 -40 -19
-3 -3 -20 -14 -39 -24 -25 -13 -37 -15 -47 -6 -7 6 -19 9 -26 6 -8 -4 -7 -6 5
-6 36 -2 15 -28 -33 -40 -27 -7 -52 -17 -56 -22 -3 -5 -14 -9 -25 -9 -11 0
-18 -4 -15 -8 3 -5 -48 -26 -114 -47 -65 -20 -130 -43 -143 -50 -26 -13 -132
-48 -182 -60 -16 -4 -24 -10 -17 -12 12 -5 169 39 287 79 208 71 474 190 625
281 197 117 447 303 578 431 105 101 288 306 368 411 141 184 363 560 365 617
0 14 3 17 6 9 3 -8 30 46 60 120 113 281 196 592 239 894 21 150 30 598 15
760 -56 597 -249 1145 -560 1594 -36 52 -60 91 -53 87 26 -16 232 -339 295
-462 161 -318 266 -689 329 -1164 17 -129 17 -592 0 -745 -57 -506 -234 -1033
-484 -1443 -426 -697 -1016 -1156 -1878 -1462 -69 -25 -77 -29 -40 -24 25 4
53 7 63 8 9 1 23 8 29 14 19 19 40 15 34 -6 -4 -11 -1 -19 6 -20 49 -6 78 -16
78 -27 0 -7 -6 -16 -12 -19 -37 -16 60 11 142 39 302 104 673 307 920 505 77
61 85 66 76 52 -13 -22 -272 -212 -386 -283 -421 -263 -903 -432 -1440 -504
-222 -30 -225 -31 -222 -43 1 -7 3 -17 5 -24 1 -6 -7 -14 -17 -16 -15 -3 -18
0 -14 16 6 20 6 20 -28 1 -19 -10 -41 -19 -49 -19 -8 0 -15 -4 -15 -10 0 -5
-6 -10 -13 -10 -7 0 -17 -15 -22 -32 -7 -23 -16 -33 -30 -33 -14 0 -27 -14
-42 -43 -12 -24 -27 -50 -33 -58 -7 -7 -10 -14 -7 -14 3 0 -1 -24 -9 -52 -9
-38 -15 -150 -19 -388 -3 -184 -8 -413 -10 -508 l-6 -172 2496 0 2495 0 -2
2423 c-3 2275 -3 2332 -8 937 -4 -1311 -5 -1384 -8 -625 -6 1414 -6 2461 -2
3970 l5 1430 5 -1600 c5 -1485 5 -1409 8 1053 l2 2652 -5120 0 -5120 0 0
-5120z m5397 4938 c-3 -8 -6 -5 -6 6 -1 11 2 17 5 13 3 -3 4 -12 1 -19z m-780
-160 c-3 -8 -6 -5 -6 6 -1 11 2 17 5 13 3 -3 4 -12 1 -19z m318 13 c3 -5 1
-12 -5 -16 -5 -3 -10 1 -10 9 0 18 6 21 15 7z m922 -13 c-3 -8 -6 -5 -6 6 -1
11 2 17 5 13 3 -3 4 -12 1 -19z m-1077 2 c0 -5 -2 -10 -4 -10 -3 0 -8 5 -11
10 -3 6 -1 10 4 10 6 0 11 -4 11 -10z m780 0 c0 -5 -4 -10 -10 -10 -5 0 -10 5
-10 10 0 6 5 10 10 10 6 0 10 -4 10 -10z m-3370 -160 c0 -5 -4 -10 -10 -10 -5
0 -10 5 -10 10 0 6 5 10 10 10 6 0 10 -4 10 -10z m150 0 c0 -5 -5 -10 -11 -10
-5 0 -7 5 -4 10 3 6 8 10 11 10 2 0 4 -4 4 -10z m150 0 c0 -5 -4 -10 -10 -10
-5 0 -10 5 -10 10 0 6 5 10 10 10 6 0 10 -4 10 -10z m4853 -212 l262 -3 -262
-2 -263 -3 0 -151 0 -150 239 3 c132 2 237 0 234 -4 -2 -5 -79 -8 -171 -8 -92
0 -198 -3 -235 -7 l-68 -6 3 -46 3 -46 350 -3 350 -2 31 37 c29 34 33 36 57
26 30 -14 45 -57 30 -82 -12 -19 -61 -27 -76 -12 -8 8 -129 11 -380 11 l-369
0 8 -227 c4 -125 7 -234 8 -243 1 -8 -5 -15 -13 -15 -12 0 -14 39 -12 241 l2
242 -108 7 c-59 3 -172 5 -250 3 -132 -3 -143 -2 -158 17 -31 40 -35 69 -35
263 1 166 3 194 14 180 10 -14 28 -18 79 -18 52 0 68 4 76 18 10 16 10 16 11
-1 0 -16 15 -17 185 -17 l185 1 2 102 2 102 3 -102 4 -103 262 -2z m-816 140
c-2 -13 -4 -5 -4 17 -1 22 1 32 4 23 2 -10 2 -28 0 -40z m-3716 -67 c46 -46
52 -91 18 -151 -24 -43 -54 -60 -105 -60 -93 0 -152 97 -109 180 24 46 62 70
113 70 38 0 50 -5 83 -39z m4990 23 c35 -18 59 -67 59 -119 0 -53 -51 -105
-111 -112 -41 -5 -50 -2 -82 27 -20 17 -41 47 -46 67 -29 103 83 188 180 137z
m-6241 -14 c0 -5 -4 -10 -10 -10 -5 0 -10 5 -10 10 0 6 5 10 10 10 6 0 10 -4
10 -10z m160 3 c0 -5 -4 -14 -9 -21 -7 -11 -9 -11 -14 1 -3 8 -3 18 0 21 9 8
23 7 23 -1z m146 -98 c1 -87 -1 -105 -13 -105 -11 0 -14 7 -9 23 3 12 6 59 6
105 0 45 3 82 8 82 4 0 8 -47 8 -105z m159 0 c0 -65 -3 -105 -10 -105 -6 0
-10 40 -10 105 0 63 4 105 10 105 6 0 10 -42 10 -105z m167 -5 c0 -81 -3 -105
-14 -105 -7 0 -12 8 -10 20 2 11 3 60 3 108 -1 59 3 87 10 85 7 -2 11 -43 11
-108z m153 7 c0 -56 -4 -104 -10 -107 -6 -3 -9 37 -10 102 0 66 4 108 10 108
6 0 10 -41 10 -103z m155 3 c0 -55 0 -103 0 -107 0 -5 -5 -8 -12 -8 -8 0 -12
33 -12 107 -1 80 2 108 12 108 9 0 12 -27 12 -100z m5493 53 c-6 -66 -11 -76
-12 -26 -1 23 -4 48 -7 57 -4 10 -1 16 9 16 11 0 14 -10 10 -47z m153 -58 c1
-86 -2 -105 -14 -105 -10 0 -13 7 -8 23 3 12 6 59 6 105 0 45 3 82 8 82 4 0 7
-47 8 -105z m155 54 c-4 -60 -7 -60 -13 4 -4 31 -2 47 6 47 7 0 10 -18 7 -51z
m151 4 c-6 -59 -12 -69 -12 -20 0 19 -3 42 -6 51 -4 10 -1 16 9 16 11 0 13
-10 9 -47z m158 39 c0 -13 -12 -22 -22 -16 -10 6 -1 24 13 24 5 0 9 -4 9 -8z
m140 -1 c0 -6 -4 -13 -10 -16 -5 -3 -10 1 -10 9 0 9 5 16 10 16 6 0 10 -4 10
-9z m-4873 -88 c-3 -10 -5 -2 -5 17 0 19 2 27 5 18 2 -10 2 -26 0 -35z m-88
-5 c1 -5 -3 -8 -9 -8 -5 0 -10 12 -9 28 0 24 1 25 9 7 5 -11 9 -23 9 -27z
m2684 9 l42 -4 -47 -1 c-44 -2 -48 0 -47 21 1 16 3 17 6 5 3 -12 17 -18 46
-21z m-3285 -4 c-60 -2 -156 -2 -215 0 -60 1 -11 3 107 3 118 0 167 -2 108 -3z
m222 1 c-34 -7 -110 -9 -110 -2 0 5 28 7 63 7 34 -1 55 -3 47 -5z m60 2 c0 -3
-4 -8 -10 -11 -5 -3 -10 -1 -10 4 0 6 5 11 10 11 6 0 10 -2 10 -4z m253 -3
c-24 -2 -62 -2 -85 0 -24 2 -5 4 42 4 47 0 66 -2 43 -4z m4577 -68 c0 -35 -4
-45 -16 -45 -12 0 -15 6 -9 23 3 12 9 32 12 45 8 34 13 26 13 -23z m-316 20
c-4 -8 -1 -15 5 -15 6 0 11 -11 11 -25 0 -16 -6 -25 -15 -25 -11 0 -15 11 -15
40 0 22 4 40 10 40 5 0 7 -7 4 -15z m625 -47 c1 -10 -6 -18 -15 -18 -12 0 -15
6 -10 23 3 12 6 31 7 42 1 17 2 16 9 -5 4 -14 8 -33 9 -42z m-6890 0 c1 -10
-6 -18 -15 -18 -12 0 -15 6 -10 23 3 12 6 29 7 37 1 20 17 -18 18 -42z m6740
-5 c1 -7 -6 -13 -14 -13 -16 0 -18 12 -8 50 l7 25 7 -25 c4 -14 7 -31 8 -37z
m-6899 5 c0 -10 -7 -18 -15 -18 -17 0 -18 4 -8 38 4 18 8 20 14 10 5 -7 9 -21
9 -30z m7190 12 c0 -16 -4 -30 -10 -30 -11 0 -14 43 -3 53 11 12 13 8 13 -23z
m-7350 -24 c-14 -14 -24 0 -16 21 6 15 8 15 16 3 6 -9 5 -19 0 -24z m7500 14
c0 -21 -15 -27 -25 -10 -7 12 2 30 16 30 5 0 9 -9 9 -20z m150 -6 c0 -8 -7
-14 -15 -14 -15 0 -21 21 -9 33 10 9 24 -2 24 -19z m140 5 c0 -11 -4 -18 -10
-14 -5 3 -7 12 -3 20 7 21 13 19 13 -6z m-8104 -16 c-10 -10 -19 5 -10 18 6
11 8 11 12 0 2 -7 1 -15 -2 -18z m164 12 c0 -8 -4 -15 -9 -15 -13 0 -22 16
-14 24 11 11 23 6 23 -9z m8090 5 c0 -5 -4 -10 -10 -10 -5 0 -10 5 -10 10 0 6
5 10 10 10 6 0 10 -4 10 -10z m-5550 -76 c0 -8 -4 -12 -10 -9 -5 3 -10 10 -10
16 0 5 5 9 10 9 6 0 10 -7 10 -16z m-562 -1 c-10 -2 -28 -2 -40 0 -13 2 -5 4
17 4 22 1 32 -1 23 -4z m105 0 c-7 -2 -19 -2 -25 0 -7 3 -2 5 12 5 14 0 19 -2
13 -5z m340 0 c-23 -2 -64 -2 -90 0 -26 2 -7 3 42 3 50 0 71 -1 48 -3z m-55
-131 l157 3 6 30 7 30 1 -32 c1 -27 5 -33 24 -34 l22 0 -22 -9 c-20 -8 -23
-17 -23 -60 l0 -50 68 -1 c77 -1 73 -7 -8 -11 l-55 -3 4 -210 c2 -116 7 -218
12 -227 16 -31 10 -48 -16 -48 -28 0 -44 25 -26 43 7 7 11 79 11 226 l0 216
-165 -3 -165 -3 1 48 c2 48 2 48 8 10 3 -21 9 -38 14 -37 4 0 75 0 158 0 l150
0 -3 53 -3 52 -157 1 c-105 0 -158 -3 -158 -10 0 -8 -2 -8 -8 0 -7 11 -21 11
-352 13 -110 1 -200 4 -200 9 0 4 124 6 275 5 l275 -3 2 38 1 37 4 -38 4 -38
157 3z m1769 -24 c-3 -7 -5 -2 -5 12 0 14 2 19 5 13 2 -7 2 -19 0 -25z m3125
-25 c22 -20 23 -41 1 -65 -18 -21 -53 -24 -71 -6 -21 21 -15 68 11 78 32 13
38 12 59 -7z m-5959 -40 l28 -28 432 -5 c261 -3 406 -8 367 -12 -36 -4 -230
-8 -432 -8 -303 0 -371 -3 -395 -15 -39 -21 -59 -19 -77 7 -21 30 -20 44 4 68
27 27 38 25 73 -7z m-1123 -55 c13 -25 13 -31 0 -55 -30 -53 -110 -34 -110 25
0 63 79 84 110 30z m540 22 c0 -5 -5 -10 -11 -10 -5 0 -7 5 -4 10 3 6 8 10 11
10 2 0 4 -4 4 -10z m2487 -112 c-2 -18 -4 -4 -4 32 0 36 2 50 4 33 2 -18 2
-48 0 -65z m-2519 72 l62 0 0 -60 c0 -40 4 -62 13 -64 6 -2 46 -11 87 -20 41
-9 100 -29 130 -44 l55 -27 2 -60 c1 -33 4 -99 7 -147 l4 -87 -41 32 c-49 37
-149 84 -221 103 -27 7 -51 12 -53 11 -1 -2 0 -93 4 -204 l6 -201 56 -33 c193
-114 311 -237 311 -324 0 -15 -7 -42 -16 -61 -13 -27 -22 -34 -46 -34 -16 0
-27 -4 -24 -9 3 -5 -5 -12 -19 -15 -13 -3 -41 -17 -61 -31 -20 -14 -40 -22
-45 -19 -5 3 -6 -2 -2 -11 5 -13 7 -14 14 -3 10 15 12 6 3 -16 -5 -13 -9 -14
-20 -5 -11 9 -14 7 -14 -10 0 -55 -82 -149 -132 -152 -10 0 -10 -2 0 -6 21 -8
13 -21 -18 -28 -17 -4 -28 -10 -25 -15 15 -25 -303 -97 -370 -84 -30 6 -107
37 -135 55 -8 5 -22 12 -31 15 -30 10 -52 67 -64 163 l-13 96 -3 -80 c-3 -78
-3 -76 -8 35 -3 63 -5 116 -4 118 0 2 39 -25 85 -60 45 -35 115 -78 153 -95
73 -34 182 -66 195 -58 4 3 11 90 15 195 7 172 16 229 28 168 4 -21 4 -20 6 3
1 23 -10 33 -89 78 -263 152 -358 293 -348 514 3 81 8 100 37 154 18 34 43 70
54 81 44 41 141 91 196 102 110 21 101 15 101 70 0 27 -4 52 -10 55 -5 3 -10
11 -10 17 0 7 22 9 68 5 37 -4 95 -7 130 -7z m1519 -12 c-3 -8 -6 -5 -6 6 -1
11 2 17 5 13 3 -3 4 -12 1 -19z m5021 -83 c3 -76 2 -85 -13 -85 -15 0 -17 7
-11 46 3 26 6 67 6 92 0 77 13 37 18 -53z m-4171 48 c-3 -10 -5 -4 -5 12 0 17
2 24 5 18 2 -7 2 -21 0 -30z m5058 28 c7 -12 -12 -24 -25 -16 -11 7 -4 25 10
25 5 0 11 -4 15 -9z m-3658 -23 c-3 -8 -6 -5 -6 6 -1 11 2 17 5 13 3 -3 4 -12
1 -19z m150 0 c-3 -8 -6 -5 -6 6 -1 11 2 17 5 13 3 -3 4 -12 1 -19z m150 0
c-3 -8 -6 -5 -6 6 -1 11 2 17 5 13 3 -3 4 -12 1 -19z m150 0 c-3 -8 -6 -5 -6
6 -1 11 2 17 5 13 3 -3 4 -12 1 -19z m-2700 -220 c-1 -46 -3 -11 -3 77 0 88 2
125 3 83 2 -42 2 -114 0 -160z m5773 -192 c0 -259 4 -407 10 -411 16 -10 11
-53 -7 -64 -39 -21 -72 31 -38 59 13 11 15 70 15 416 0 263 3 404 10 404 7 0
10 -141 10 -404z m-866 375 c23 -25 13 -58 -21 -74 -21 -9 -27 -8 -38 6 -7 9
-10 29 -7 45 8 45 37 55 66 23z m251 -26 c0 -31 -24 -51 -49 -42 -19 8 -22 73
-3 80 26 9 52 -10 52 -38z m-3215 -1 c0 -21 -4 -33 -10 -29 -17 10 -11 65 7
65 2 0 3 -16 3 -36z m3320 22 c20 -26 8 -61 -22 -64 -24 -3 -28 0 -28 22 0 52
24 72 50 42z m159 0 c31 -37 -9 -103 -46 -80 -37 23 -24 94 17 94 10 0 23 -6
29 -14z m-3795 -31 c-4 -8 -8 -15 -10 -15 -2 0 -4 7 -4 15 0 8 4 15 10 15 5 0
7 -7 4 -15z m-1721 -36 c31 -23 36 -62 11 -97 -39 -57 -90 -48 -126 22 l-20
39 43 37 c26 22 47 34 54 28 5 -4 22 -17 38 -29z m1247 31 c0 -5 -7 -10 -15
-10 -8 0 -21 -12 -29 -27 -8 -16 -15 -23 -16 -17 0 15 39 64 51 64 5 0 9 -4 9
-10z m2230 -10 c21 -39 -32 -87 -65 -60 -18 15 -19 52 -3 68 19 19 56 14 68
-8z m113 3 c-13 -2 -35 -2 -50 0 -16 2 -5 4 22 4 28 0 40 -2 28 -4z m-4391
-35 c15 -22 22 -23 192 -26 149 -3 183 -1 212 13 51 24 79 17 79 -20 0 -24 -5
-31 -23 -33 -13 -2 -29 1 -36 7 -7 6 -96 13 -204 17 -189 7 -193 7 -213 -14
-39 -43 -99 -21 -99 35 0 46 66 60 92 21z m1895 -45 c-2 -16 -4 -5 -4 22 0 28
2 40 4 28 2 -13 2 -35 0 -50z m2949 42 c16 -25 16 -25 180 -25 137 0 174 3
220 19 60 22 80 19 89 -10 14 -43 -35 -63 -81 -33 -21 15 -50 16 -213 12 -160
-4 -193 -8 -220 -24 -37 -22 -60 -13 -76 31 -8 22 -6 29 10 41 30 23 72 17 91
-11z m-2793 -5 c-3 -11 -9 -17 -15 -14 -5 3 -4 12 3 20 16 19 18 18 12 -6z
m32 -39 c-8 -17 -20 -31 -25 -31 -16 0 -12 14 10 33 11 9 20 25 21 34 0 10 3
13 5 6 3 -6 -2 -25 -11 -42z m1368 -11 c-7 -28 -13 -25 -13 6 0 14 4 23 9 20
5 -3 7 -15 4 -26z m-1706 -2 c-3 -8 -6 -5 -6 6 -1 11 2 17 5 13 3 -3 4 -12 1
-19z m1850 0 c-3 -8 -6 -5 -6 6 -1 11 2 17 5 13 3 -3 4 -12 1 -19z m2477 -4
c8 -20 -19 -64 -39 -64 -20 0 -30 46 -15 65 17 20 46 19 54 -1z m74 -6 c15
-15 16 -58 2 -58 -5 0 -10 10 -10 22 0 20 -13 18 -16 -3 -1 -5 -2 -15 -3 -21
-1 -8 -5 -7 -11 4 -7 11 -7 25 0 42 11 29 20 32 38 14z m-223 -45 c4 -23 17
-46 33 -60 l27 -21 -21 -29 c-23 -31 -75 -43 -100 -22 -21 17 -17 57 6 69 13
7 20 21 20 40 0 65 24 80 35 23z m-147 5 c13 -13 16 -47 6 -72 -9 -25 -51 -20
-60 7 -18 52 20 99 54 65z m-4023 -88 c-6 -9 -9 -9 -16 1 -10 17 0 34 13 21 6
-6 7 -16 3 -22z m4423 6 c13 -30 -5 -60 -34 -54 -14 3 -18 11 -17 31 1 18 -3
27 -13 27 -8 0 -12 5 -9 10 3 6 19 10 34 10 20 0 31 -7 39 -24z m-7788 -12 c0
-17 -26 -19 -36 -3 -7 12 15 31 28 23 4 -3 8 -12 8 -20z m4770 11 c0 -8 -4
-15 -10 -15 -5 0 -10 7 -10 15 0 8 5 15 10 15 6 0 10 -7 10 -15z m437 -7 c-3
-8 -6 -5 -6 6 -1 11 2 17 5 13 3 -3 4 -12 1 -19z m3213 8 c0 -18 -16 -29 -30
-21 -13 8 -1 35 16 35 8 0 14 -6 14 -14z m-4756 -12 c3 -8 2 -12 -4 -9 -6 3
-10 10 -10 16 0 14 7 11 14 -7z m-2038 -46 c27 -22 39 -23 232 -26 137 -2 208
0 215 7 17 17 31 13 17 -5 -11 -12 -10 -18 4 -32 14 -14 19 -15 37 -4 18 11
20 11 17 0 -8 -22 -39 -21 -64 3 -23 22 -26 22 -229 16 -187 -6 -208 -8 -232
-27 -54 -43 -124 -10 -102 49 18 47 59 55 105 19z m4828 -7 c15 -13 51 -17
195 -19 l178 -4 30 26 c35 30 65 33 87 10 21 -20 20 -53 -1 -76 -22 -25 -47
-23 -79 7 l-26 24 -184 -4 c-168 -3 -186 -6 -212 -25 -24 -18 -33 -20 -51 -11
-31 17 -45 49 -30 68 16 19 50 33 64 25 6 -3 18 -12 29 -21z m-3947 -33 c-3
-7 -5 -2 -5 12 0 14 2 19 5 13 2 -7 2 -19 0 -25z m867 -24 c8 -22 8 -24 -8
-24 -18 0 -29 16 -21 30 9 15 22 12 29 -6z m150 -1 c8 -19 -10 -34 -31 -26 -7
3 -13 11 -13 17 0 29 34 36 44 9z m1554 -3 c1 -8 -6 -20 -16 -26 -16 -10 -18
-8 -20 18 -2 23 1 29 15 26 10 -2 19 -10 21 -18z m142 -5 c0 -8 -7 -15 -15
-15 -8 0 -15 7 -15 15 0 8 7 15 15 15 8 0 15 -7 15 -15z m3190 -16 c0 -18 -2
-19 -15 -9 -15 12 -12 30 6 30 5 0 9 -10 9 -21z m257 -121 c-2 -24 -4 -5 -4
42 0 47 2 66 4 43 2 -24 2 -62 0 -85z m-8680 25 c-2 -16 -4 -5 -4 22 0 28 2
40 4 28 2 -13 2 -35 0 -50z m7162 -105 c1 -58 -16 -72 -24 -21 -3 21 -8 45 -9
54 -2 9 1 24 7 35 10 17 11 17 18 -1 4 -11 8 -41 8 -67z m261 -4 c0 -56 -3
-74 -14 -74 -17 0 -31 127 -15 147 20 24 29 2 29 -73z m156 0 c7 -61 -4 -84
-42 -84 -12 0 -30 10 -38 22 -22 31 -21 101 2 120 45 40 67 24 78 -58z m-7536
-1433 c51 -49 54 -87 9 -125 -46 -39 -86 -31 -114 24 -21 41 -19 55 14 92 l28
33 6 405 c4 223 8 558 9 745 2 187 4 8 5 -398 l3 -738 40 -38z m7240 1439 c0
-74 -15 -96 -22 -32 -3 20 -8 44 -12 53 -6 14 15 49 30 49 2 0 4 -31 4 -70z
m385 37 c9 -36 2 -110 -12 -114 -11 -4 -23 86 -15 120 6 24 21 21 27 -6z m-55
-37 c0 -5 -5 -10 -11 -10 -5 0 -7 5 -4 10 3 6 8 10 11 10 2 0 4 -4 4 -10z
m-7783 -102 c-2 -13 -4 -3 -4 22 0 25 2 35 4 23 2 -13 2 -33 0 -45z m-537
-3268 c0 -1817 -2 -3305 -5 -3308 -6 -6 -11 2046 -8 3323 2 506 3 1455 3 2109
0 654 2 1187 5 1184 3 -3 5 -1491 5 -3308z m7618 3218 c37 -37 -9 -93 -53 -64
-33 22 -128 21 -166 -1 -34 -20 -64 -9 -64 23 0 21 43 31 73 18 10 -4 44 -9
77 -10 52 -3 62 0 78 19 l18 22 -7 -26 c-7 -31 10 -46 31 -29 19 16 19 25 -1
44 -8 9 -12 16 -7 16 5 0 14 -5 21 -12z m517 -8 c4 -6 -40 -10 -127 -9 -85 1
-120 4 -98 9 54 11 218 11 225 0z m580 0 c11 -5 16 -9 10 -9 -5 -1 -109 -3
-230 -5 -223 -5 -315 0 -315 15 0 12 509 10 535 -1z m-2400 -71 c22 -10 29
-16 15 -12 -14 3 -43 14 -65 24 -22 11 -29 16 -15 13 14 -3 43 -15 65 -25z
m2346 -19 c6 -21 8 -47 4 -57 -4 -10 -9 -37 -10 -60 -4 -70 -31 -88 -89 -58
-36 19 -46 19 -46 -1 0 -12 -10 -14 -47 -12 -35 2 -48 7 -48 18 0 11 11 15 43
14 41 -1 42 0 42 33 0 32 -1 33 -40 33 -34 0 -40 3 -40 20 0 11 6 23 14 26 8
3 20 19 26 35 17 40 34 31 41 -22 7 -54 44 -119 69 -119 58 0 67 38 15 63 -28
13 -35 22 -35 46 0 50 17 83 39 76 11 -3 22 -1 26 5 10 17 24 2 36 -40z m-661
0 c6 -12 10 -38 8 -58 -3 -34 -6 -37 -33 -37 -28 0 -30 3 -33 44 -2 24 -1 50
2 57 8 21 44 17 56 -6z m134 -27 c23 -66 21 -128 -4 -153 -32 -32 -59 -26 -77
17 -13 33 -13 41 -1 63 7 14 23 27 33 29 38 7 42 41 4 41 -19 0 -27 29 -12 43
19 20 42 4 57 -40z m614 2 c4 -46 -6 -91 -17 -79 -11 12 -22 110 -14 118 15
14 28 -3 31 -39z m-493 -23 c0 -63 -17 -72 -29 -15 -10 46 -3 77 17 70 7 -2
12 -23 12 -55z m118 8 c-1 -25 -2 -48 -2 -52 -1 -5 -7 -8 -15 -8 -8 0 -16 17
-20 46 -7 52 -2 67 22 62 13 -3 17 -13 15 -48z m-8056 -52 c-2 -13 -4 -3 -4
22 0 25 2 35 4 23 2 -13 2 -33 0 -45z m6219 6 c18 -14 18 -14 -6 -3 -31 14
-36 19 -24 19 6 0 19 -7 30 -16z m69 -34 c3 -6 -1 -7 -9 -4 -18 7 -21 14 -7
14 6 0 13 -4 16 -10z m-4113 -36 c16 -34 0 -58 -40 -62 -38 -4 -57 23 -42 62
14 37 66 37 82 0z m4168 0 c0 -2 -9 0 -20 6 -11 6 -20 13 -20 16 0 2 9 0 20
-6 11 -6 20 -13 20 -16z m-3330 -29 c-7 -8 -47 -36 -89 -62 -216 -134 -466
-335 -661 -532 -88 -89 -120 -118 -73 -66 107 119 239 246 341 329 125 102
374 281 426 306 25 12 48 26 52 31 3 5 8 9 11 9 3 0 0 -7 -7 -15z m3385 5 c3
-6 -1 -7 -9 -4 -18 7 -21 14 -7 14 6 0 13 -4 16 -10z m1293 -7 c-16 -2 -40 -2
-55 0 -16 2 -3 4 27 4 30 0 43 -2 28 -4z m382 -3 c0 -5 -20 -10 -45 -10 -25 0
-45 5 -45 10 0 6 20 10 45 10 25 0 45 -4 45 -10z m1397 -422 c-1 -79 -3 -15
-3 142 0 157 2 221 3 143 2 -79 2 -207 0 -285z m-2977 376 c0 -2 -13 2 -30 11
-16 9 -30 18 -30 21 0 2 14 -2 30 -11 17 -9 30 -18 30 -21z m1202 -21 c20 -18
24 -67 8 -107 -7 -20 -17 -26 -38 -26 -39 0 -52 17 -52 67 0 30 6 49 20 63 24
24 38 25 62 3z m-1126 -23 c24 -17 44 -33 44 -36 0 -3 -21 9 -47 27 -58 39
-58 39 -49 39 4 0 27 -14 52 -30z m1240 -26 c1 -63 -4 -84 -21 -84 -23 0 -36
117 -13 131 24 16 33 3 34 -47z m132 16 c5 -48 -7 -102 -21 -97 -7 2 -13 19
-13 38 -1 19 -5 42 -9 52 -8 19 12 50 29 44 6 -2 12 -19 14 -37z m115 26 c3
-8 -1 -20 -9 -26 -22 -19 -18 -60 6 -60 17 0 20 7 20 51 0 36 4 49 13 46 15
-5 11 -105 -5 -124 -15 -18 -65 -16 -72 3 -8 21 -8 109 1 117 12 12 41 7 46
-7z m132 -55 c0 -43 -4 -66 -12 -68 -9 -3 -13 9 -13 39 0 24 -5 49 -11 55 -16
16 -3 45 18 41 15 -3 18 -14 18 -67z m153 44 c25 -55 5 -115 -38 -115 -15 0
-32 6 -38 13 -17 21 -23 72 -13 100 9 22 17 27 44 27 26 0 36 -6 45 -25z m94
-31 c3 -59 -3 -81 -20 -70 -12 7 -26 101 -17 116 3 5 12 10 20 10 9 0 14 -17
17 -56z m-1602 -171 c0 -2 -18 10 -40 27 -22 17 -40 34 -40 37 0 2 18 -10 40
-27 22 -17 40 -34 40 -37z m81 -60 l24 -28 -30 25 c-16 14 -32 26 -34 28 -2 1
0 2 6 2 5 0 20 -12 34 -27z m879 -28 c20 -24 14 -105 -9 -128 -19 -19 -21 -19
-45 -3 -25 16 -33 44 -27 100 4 43 55 63 81 31z m146 -2 c21 -28 17 -100 -6
-123 -24 -24 -43 -25 -64 -4 -18 18 -22 95 -6 125 13 24 58 25 76 2z m144 2
c6 -8 12 -35 12 -60 0 -75 -52 -112 -86 -63 -21 30 -20 96 1 120 19 22 56 24
73 3z m108 -63 c2 -56 0 -72 -11 -72 -10 0 -16 19 -20 66 -7 70 -3 88 16 81 7
-2 13 -32 15 -75z m160 6 c3 -59 0 -68 -18 -78 -46 -25 -87 21 -77 85 8 50 24
67 61 63 31 -3 31 -3 34 -70z m138 35 c21 -49 11 -100 -23 -116 -23 -10 -28
-8 -49 16 -43 50 -23 137 32 137 19 0 29 -8 40 -37z m-8489 -295 c-1 -62 -3
-14 -3 107 0 121 2 172 3 113 2 -59 2 -158 0 -220z m110 -5 c-1 -60 -3 -11 -3
107 0 118 2 167 3 108 2 -60 2 -156 0 -215z m1607 256 c-64 -65 -230 -134
-279 -115 -29 11 -7 23 52 29 67 7 186 63 229 108 15 16 30 27 33 24 2 -3 -13
-23 -35 -46z m-1927 -21 c-2 -13 -4 -3 -4 22 0 25 2 35 4 23 2 -13 2 -33 0
-45z m1168 -9 c18 -11 158 -52 215 -63 l55 -11 3 -40 c2 -23 -1 -52 -7 -65 -8
-21 -10 -16 -10 33 l-1 57 -36 0 c-72 0 -239 58 -259 90 -6 10 22 9 40 -1z
m212 -35 c-3 -3 -12 -4 -19 -1 -8 3 -5 6 6 6 11 1 17 -2 13 -5z m-1380 -86
c-2 -13 -4 -5 -4 17 -1 22 1 32 4 23 2 -10 2 -28 0 -40z m-209 -2595 c-1
-1396 -5 -2344 -9 -2108 -13 900 -8 4645 8 4645 1 0 2 -1142 1 -2537z m7728
2455 l29 -33 -32 29 c-31 28 -38 36 -30 36 2 0 16 -15 33 -32z m146 -173 c29
-41 2 -13 -61 65 -52 63 -52 64 -6 15 25 -27 56 -63 67 -80z m-5392 91 c0 -2
-8 -10 -17 -17 -16 -13 -17 -12 -4 4 13 16 21 21 21 13z m-622 -108 c21 -21
14 -66 -13 -84 -23 -15 -27 -15 -50 0 -29 19 -32 42 -9 74 17 24 53 29 72 10z
m533 -6 c-5 -10 -18 -25 -27 -33 -11 -9 -9 -2 6 19 26 35 36 42 21 14z m6073
-34 c22 -31 20 -45 -9 -64 -25 -16 -27 -16 -50 6 -14 13 -25 31 -25 40 0 42
59 54 84 18z m390 -14 c19 -19 20 -26 4 -42 -14 -14 -48 -16 -48 -3 0 5 -10
13 -22 17 l-23 7 23 8 c12 5 22 13 22 19 0 15 27 12 44 -6z m-8327 -41 c-3
-10 -5 -4 -5 12 0 17 2 24 5 18 2 -7 2 -21 0 -30z m-110 -170 c-3 -10 -5 -2
-5 17 0 19 2 27 5 18 2 -10 2 -26 0 -35z m113 17 c0 -5 -2 -10 -4 -10 -3 0 -8
5 -11 10 -3 6 -1 10 4 10 6 0 11 -4 11 -10z m1664 -45 c-9 -14 -18 -25 -21
-25 -5 0 5 18 20 38 17 22 18 13 1 -13z m-723 2 c45 -34 43 -89 -3 -121 -30
-21 -47 -20 -75 6 -33 30 -31 80 3 107 30 24 52 26 75 8z m7388 -23 c28 -35
26 -52 -5 -86 -23 -23 -30 -25 -48 -16 -50 27 -58 66 -21 103 31 32 48 31 74
-1z m-8324 -603 c3 -5 1 -12 -5 -16 -5 -3 -10 1 -10 9 0 18 6 21 15 7z m5
-165 c0 -8 -4 -18 -10 -21 -5 -3 -10 3 -10 14 0 12 5 21 10 21 6 0 10 -6 10
-14z m-3 -169 c-6 -20 -27 -19 -27 2 0 14 5 19 15 14 9 -3 14 -10 12 -16z
m9253 -9 c0 -6 -6 -5 -15 2 -8 7 -15 14 -15 16 0 2 7 1 15 -2 8 -4 15 -11 15
-16z m-1863 -30 c-3 -8 -6 -5 -6 6 -1 11 2 17 5 13 3 -3 4 -12 1 -19z m1859
-112 c1 -17 -2 -23 -12 -19 -16 6 -16 6 -8 27 9 23 19 19 20 -8z m-9251 -9 c0
-24 -20 -21 -21 3 -1 12 4 19 10 17 6 -2 11 -11 11 -20z m9251 -174 c-3 -3
-13 -3 -22 1 -15 6 -15 8 2 27 l19 21 3 -22 c2 -12 1 -24 -2 -27z m-9246 11
c0 -8 -7 -14 -15 -14 -8 0 -15 9 -15 20 0 13 5 18 15 14 8 -4 15 -12 15 -20z
m1727 -16 c-3 -8 -6 -5 -6 6 -1 11 2 17 5 13 3 -3 4 -12 1 -19z m6039 -86 c60
-2 57 3 76 -143 9 -75 9 -103 0 -125 -12 -28 -14 -29 -85 -29 -59 0 -73 3 -79
18 -4 9 -11 77 -14 150 l-7 133 29 -2 c16 0 52 -2 80 -2z m-7766 -63 c0 -10
-7 -19 -15 -19 -9 0 -15 9 -15 25 0 18 4 23 15 19 8 -4 15 -15 15 -25z m9250
6 c0 -23 -2 -24 -21 -15 -16 9 -18 14 -8 26 17 21 29 17 29 -11z m0 -160 c0
-23 -2 -24 -21 -15 -16 9 -18 14 -8 26 17 21 29 17 29 -11z m-9256 -1 c7 -18
0 -34 -15 -34 -5 0 -9 11 -9 25 0 28 15 34 24 9z m1516 -229 c0 -18 -8 -20
-90 -22 -90 -3 -90 -3 -90 22 0 24 0 24 90 22 82 -2 90 -4 90 -22z m6283 14
c46 -2 57 -6 57 -19 0 -14 -10 -16 -60 -14 -33 1 -67 7 -75 14 -11 9 -15 9
-15 1 0 -7 -5 -9 -10 -6 -16 10 9 36 29 31 9 -3 42 -6 74 -7z m-7803 -139 c0
-10 -7 -20 -15 -24 -16 -6 -18 -2 -9 31 7 26 24 21 24 -7z m9258 -10 c-2 -30
-12 -38 -23 -20 -8 13 4 50 16 50 5 0 8 -13 7 -30z m-9261 -160 c-3 -11 -1
-20 5 -20 5 0 6 -4 3 -10 -11 -18 -25 -11 -25 13 0 22 7 37 18 37 2 0 2 -9 -1
-20z m9263 -30 c0 -5 -5 -10 -11 -10 -5 0 -7 5 -4 10 3 6 8 10 11 10 2 0 4 -4
4 -10z m-9259 -150 c15 0 10 -17 -6 -24 -12 -4 -15 2 -14 27 1 18 3 24 6 15 2
-10 9 -18 14 -18z m9259 20 c0 -5 -5 -10 -11 -10 -5 0 -7 5 -4 10 3 6 8 10 11
10 2 0 4 -4 4 -10z m-5 -31 c12 -19 -5 -23 -22 -6 -16 16 -16 17 -1 17 9 0 20
-5 23 -11z m-9245 -165 c0 -8 -7 -14 -15 -14 -8 0 -15 9 -15 20 0 13 5 18 15
14 8 -4 15 -12 15 -20z m9248 -2 c2 -7 -2 -10 -12 -6 -9 3 -16 11 -16 16 0 13
23 5 28 -10z m2 -152 c0 -13 -5 -18 -15 -14 -16 7 -19 17 -8 27 12 13 23 7 23
-13z m-9260 -10 c0 -11 -4 -20 -10 -20 -5 0 -10 9 -10 20 0 11 5 20 10 20 6 0
10 -9 10 -20z m1117 -52 c-3 -8 -6 -5 -6 6 -1 11 2 17 5 13 3 -3 4 -12 1 -19z
m6960 -30 c-3 -8 -6 -5 -6 6 -1 11 2 17 5 13 3 -3 4 -12 1 -19z m-6950 -10
c-3 -8 -6 -5 -6 6 -1 11 2 17 5 13 3 -3 4 -12 1 -19z m22 -63 c0 -5 -4 -3 -9
5 -5 8 -9 22 -9 30 0 16 17 -16 18 -35z m8111 -1 c0 -24 -1 -24 -17 -9 -14 14
-14 18 -2 26 19 12 19 12 19 -17z m-9252 -1 c-5 -25 -28 -28 -28 -4 0 12 6 21
16 21 9 0 14 -7 12 -17z m1171 -93 c0 -10 -3 -8 -9 5 -12 27 -12 43 0 25 5 -8
9 -22 9 -30z m8081 -65 c0 -18 -4 -23 -15 -19 -25 10 -19 33 13 43 1 1 2 -10
2 -24z m-9254 -21 c-5 -13 -10 -14 -18 -6 -6 6 -8 18 -4 28 5 13 10 14 18 6 6
-6 8 -18 4 -28z m9254 -134 c0 -21 -15 -27 -25 -10 -7 12 2 30 16 30 5 0 9 -9
9 -20z m-9253 -24 c-4 -9 -11 -16 -17 -16 -11 0 -14 33 -3 44 11 10 26 -11 20
-28z m9242 -160 c-5 -6 -8 12 -8 45 l2 54 7 -45 c4 -25 4 -49 -1 -54z m-9249
8 c0 -13 -4 -24 -10 -24 -5 0 -10 14 -10 31 0 17 4 28 10 24 6 -3 10 -17 10
-31z m7621 -31 c-12 -20 -14 -14 -5 12 4 9 9 14 11 11 3 -2 0 -13 -6 -23z
m-6609 -67 c15 -23 8 -46 -17 -52 -51 -13 -81 22 -50 57 19 20 52 18 67 -5z
m8235 -43 c-2 -16 -4 -5 -4 22 0 28 2 40 4 28 2 -13 2 -35 0 -50z m-8348 43
c20 -24 -4 -58 -37 -54 -27 3 -39 25 -28 54 7 18 50 18 65 0z m7385 -8 c8 -14
6 -21 -9 -33 -11 -8 -26 -14 -34 -12 -20 3 -35 31 -28 51 9 22 56 18 71 -6z
m104 -11 c4 -33 -17 -44 -50 -26 -35 18 -40 32 -15 46 35 20 62 12 65 -20z
m-834 -40 c-14 -26 -31 -50 -37 -54 -10 -6 4 22 43 84 25 40 21 17 -6 -30z
m-7567 1 c-3 -8 -6 -5 -6 6 -1 11 2 17 5 13 3 -3 4 -12 1 -19z m13 -94 c0 -21
-4 -33 -10 -29 -5 3 -10 19 -10 36 0 16 5 29 10 29 6 0 10 -16 10 -36z m9247
-262 c-1 -53 -3 -7 -3 103 0 110 2 154 3 97 2 -57 2 -147 0 -200z m-8243 232
c19 -19 20 -36 4 -52 -18 -18 -53 -14 -74 9 -18 20 -18 21 6 40 31 23 44 24
64 3z m7272 -10 c16 -23 16 -27 1 -41 -18 -18 -62 -11 -71 12 -6 16 26 55 44
55 5 0 17 -12 26 -26z m-1220 -51 c-51 -65 -94 -114 -85 -98 10 18 121 155
126 155 2 0 -16 -26 -41 -57z m414 53 c0 -2 -8 -10 -17 -17 -16 -13 -17 -12
-4 4 13 16 21 21 21 13z m-7473 -128 c-2 -13 -4 -5 -4 17 -1 22 1 32 4 23 2
-10 2 -28 0 -40z m1008 -44 c9 -9 15 -26 13 -38 -2 -17 -10 -21 -37 -21 -48 0
-65 29 -32 56 28 23 35 24 56 3z m-247 -21 c5 -33 -30 -48 -68 -28 -35 18 -36
23 -12 41 27 22 76 13 80 -13z m120 15 c32 -32 -6 -71 -48 -48 -25 13 -26 36
-2 49 23 14 36 13 50 -1z m7401 -6 c13 -25 -5 -52 -34 -52 -31 0 -52 35 -34
56 16 20 56 18 68 -4z m121 -3 c23 -42 -31 -67 -64 -30 -16 17 -16 20 -1 35
23 22 52 20 65 -5z m145 11 c12 -20 -15 -50 -45 -50 -37 0 -60 33 -33 49 23
13 70 14 78 1z m-6064 -57 c13 -16 12 -17 -3 -4 -17 13 -22 21 -14 21 2 0 10
-8 17 -17z m-2484 -55 c-2 -13 -4 -5 -4 17 -1 22 1 32 4 23 2 -10 2 -28 0 -40z
m7180 -63 c-15 -16 -22 -11 -13 10 3 9 10 13 16 10 6 -4 5 -11 -3 -20z m2070
-217 c-1 -46 -3 -9 -3 82 0 91 2 128 3 83 2 -46 2 -120 0 -165z m-8498 208
c20 -22 21 -25 6 -40 -20 -20 -45 -20 -71 -2 -19 15 -18 15 6 40 31 31 32 31
59 2z m135 -2 c10 -27 7 -43 -13 -54 -15 -7 -25 -5 -42 9 -23 19 -24 19 -5 40
23 25 51 27 60 5z m124 4 c18 -18 14 -46 -7 -58 -26 -13 -71 6 -71 31 0 32 54
51 78 27z m7276 -10 c8 -14 6 -22 -10 -39 -18 -17 -25 -19 -43 -10 -22 12 -26
27 -15 56 8 21 53 16 68 -7z m118 -3 c9 -21 9 -29 -5 -42 -23 -23 -67 -3 -67
31 0 42 54 50 72 11z m122 19 c18 -7 22 -49 5 -59 -6 -4 -26 -4 -45 -1 -25 5
-34 12 -34 27 0 26 43 45 74 33z m-1374 -16 c0 -7 -14 -29 -30 -48 -37 -43
-39 -29 -4 22 29 41 34 45 34 26z m-7153 -205 c-2 -38 -3 -7 -3 67 0 74 1 105
3 68 2 -38 2 -98 0 -135z m7708 117 c0 -8 -8 -16 -17 -18 -13 -2 -18 3 -18 18
0 15 5 20 18 18 9 -2 17 -10 17 -18z m1383 -55 c-3 -49 -9 -70 -26 -88 l-23
-24 -1 -534 -2 -534 -6 535 c-6 495 -5 537 10 555 30 35 40 62 40 109 0 25 3
46 6 46 4 0 4 -29 2 -65z m-7237 -2 c13 -16 12 -17 -3 -4 -10 7 -18 15 -18 17
0 8 8 3 21 -13z m5179 -7 c0 -3 -4 -8 -10 -11 -5 -3 -10 -1 -10 4 0 6 5 11 10
11 6 0 10 -2 10 -4z m-6275 -36 c14 -44 -48 -70 -64 -27 -11 28 3 47 35 47 14
0 25 -8 29 -20z m125 5 c20 -24 8 -50 -24 -50 -39 0 -58 31 -32 51 25 18 40
18 56 -1z m130 -4 c16 -31 2 -53 -33 -49 -38 4 -56 30 -38 52 18 22 58 20 71
-3z m7265 -15 c0 -40 -27 -56 -54 -32 -25 23 -26 30 -5 51 26 26 59 15 59 -19z
m120 14 c24 -26 13 -50 -23 -50 -42 0 -60 24 -37 50 23 25 37 25 60 0z m133
11 c20 -12 11 -55 -12 -59 -24 -5 -66 17 -66 34 0 26 51 42 78 25z m-5769 -98
c63 -47 132 -95 153 -106 21 -12 38 -25 38 -30 0 -4 -19 5 -42 20 -67 43 -288
204 -288 209 0 7 10 1 139 -93z m-329 52 c13 -14 21 -25 18 -25 -2 0 -15 11
-28 25 -13 14 -21 25 -18 25 2 0 15 -11 28 -25z m-509 -2 c13 -16 12 -17 -3
-4 -17 13 -22 21 -14 21 2 0 10 -8 17 -17z m-1771 -488 l-6 -450 -2 421 c-2
353 2 498 12 482 1 -2 -1 -205 -4 -453z m7080 412 c0 -2 -15 -16 -32 -33 l-33
-29 29 33 c28 30 36 37 36 29z m-7233 -99 c-2 -13 -4 -5 -4 17 -1 22 1 32 4
23 2 -10 2 -28 0 -40z m734 42 c45 -24 2 -70 -45 -48 -32 14 -33 36 -3 48 29
11 26 11 48 0z m282 -11 c16 -26 1 -49 -31 -49 -43 0 -60 25 -36 51 20 23 52
22 67 -2z m7258 5 c14 -13 16 -21 8 -35 -11 -21 -49 -25 -67 -7 -16 16 -15 23
4 42 20 20 33 20 55 0z m279 -3 c8 -16 6 -23 -12 -35 -30 -21 -55 -20 -68 3
-7 15 -6 23 6 35 21 22 61 20 74 -3z m-7665 -21 c0 -30 -36 -40 -60 -16 -28
28 -13 47 35 43 19 -2 25 -8 25 -27z m7519 15 c15 -39 -31 -66 -60 -34 -9 10
-14 25 -11 34 8 20 63 20 71 0z m-1265 -21 c-13 -14 -60 -58 -104 -96 -69 -61
-66 -57 20 25 97 93 134 124 84 71z m-4139 -50 c0 -2 -9 0 -20 6 -11 6 -20 13
-20 16 0 2 9 0 20 -6 11 -6 20 -13 20 -16z m4697 -76 c-2 -18 -4 -6 -4 27 0
33 2 48 4 33 2 -15 2 -42 0 -60z m-6112 52 c22 -24 14 -65 -16 -80 -26 -14
-43 -8 -65 24 -15 24 -15 28 0 51 20 30 56 33 81 5z m1525 -35 c0 -3 -22 6
-50 20 -27 14 -50 28 -50 30 0 3 23 -6 50 -20 28 -14 50 -28 50 -30z m-3113
-37 c-2 -13 -4 -5 -4 17 -1 22 1 32 4 23 2 -10 2 -28 0 -40z m3189 -6 c-5 -4
-66 26 -66 33 0 3 16 -3 35 -12 19 -9 33 -18 31 -21z m-2455 4 c16 -34 4 -70
-26 -84 -23 -11 -29 -9 -51 14 -20 19 -24 31 -19 52 8 32 21 42 58 42 19 0 31
-7 38 -24z m5899 10 c0 -6 -148 -106 -156 -106 -3 0 -18 -8 -32 -19 -15 -10
-40 -21 -57 -25 -21 -5 -8 8 48 44 42 27 80 50 82 50 3 0 26 13 53 30 45 28
62 35 62 26z m1947 -32 c15 -24 15 -29 2 -53 -18 -32 -54 -39 -80 -15 -21 19
-25 64 -7 82 22 22 66 14 85 -14z m-7196 -31 c34 -35 32 -93 -4 -131 -15 -15
-27 -36 -27 -46 0 -22 84 -142 108 -155 9 -5 127 -13 262 -17 l245 -9 -252 -5
c-245 -5 -252 -6 -273 -27 -61 -66 -152 -75 -195 -18 -33 42 -31 68 6 127 18
27 35 68 39 91 7 36 5 43 -17 60 -13 11 -29 31 -34 44 -13 36 13 91 52 107 39
16 60 12 90 -21z m1502 -52 c59 -34 153 -85 208 -112 55 -28 98 -53 96 -56
-12 -11 -427 216 -427 234 0 2 3 2 8 0 4 -2 55 -32 115 -66z m4663 14 c37 -56
11 -145 -42 -145 -33 0 -54 36 -54 92 0 37 5 50 22 62 32 23 55 20 74 -9z
m284 -1 c6 -14 10 -50 10 -79 0 -43 -4 -56 -19 -65 -28 -15 -45 -12 -70 9 -21
18 -22 23 -12 77 13 66 25 84 57 84 17 0 28 -8 34 -26z m297 14 c30 -38 21
-127 -14 -147 -10 -5 -28 -5 -44 1 -32 11 -45 49 -34 101 10 44 22 57 55 57
15 0 32 -6 37 -12z m-449 -91 c3 -85 2 -87 -20 -87 -22 0 -23 3 -22 83 0 100
0 99 22 95 14 -3 17 -17 20 -91z m278 22 c-4 -77 -7 -84 -32 -75 -14 5 -16 15
-10 52 3 29 2 43 -4 39 -12 -8 -12 -3 0 29 6 16 17 26 29 26 18 0 20 -6 17
-71z m-5575 34 c13 -16 12 -17 -3 -4 -17 13 -22 21 -14 21 2 0 10 -8 17 -17z
m83 -62 c-2 -3 -12 3 -22 13 -16 17 -16 18 5 5 12 -7 20 -15 17 -18z m5391
-81 c-4 -6 22 -10 72 -10 95 -1 223 -9 243 -17 43 -15 -60 -25 -310 -29 -278
-5 -400 2 -407 22 -5 14 80 23 254 26 68 2 123 6 123 11 0 4 7 7 16 7 8 0 12
-4 9 -10z m92 4 c-3 -3 -12 -4 -19 -1 -8 3 -5 6 6 6 11 1 17 -2 13 -5z m-6799
-80 c36 -25 28 -75 -16 -89 -57 -17 -88 77 -32 98 23 8 24 8 48 -9z m2127 -14
c6 0 2 -5 -7 -11 -12 -6 -27 -5 -50 5 l-33 14 40 -3 c22 -2 45 -4 50 -5z
m6292 -67 c-3 -10 -5 -4 -5 12 0 17 2 24 5 18 2 -7 2 -21 0 -30z m-2333 -29
c41 -40 -6 -101 -53 -68 -27 20 -27 49 1 68 28 20 33 20 52 0z m306 -50 c25
-64 6 -124 -40 -124 -35 0 -50 23 -50 79 0 45 20 71 56 71 17 0 27 -8 34 -26z
m148 -47 c3 -64 2 -68 -24 -79 -24 -11 -29 -10 -50 15 -16 19 -24 40 -24 67 0
49 22 72 64 68 l31 -3 3 -68z m143 46 c14 -36 3 -109 -17 -117 -31 -12 -63 -6
-74 13 -5 11 -10 40 -10 65 0 50 15 65 63 66 21 0 30 -6 38 -27z m257 15 c7
-7 12 -36 12 -64 0 -43 -4 -56 -22 -68 -29 -20 -34 -20 -58 4 -27 27 -29 114
-2 129 23 14 55 14 70 -1z m142 -7 c35 -66 -15 -156 -68 -122 -32 20 -31 113
1 133 22 14 56 8 67 -11z m-290 -55 c0 -61 -12 -89 -30 -70 -4 5 -11 37 -15
72 -7 62 -7 62 19 62 25 0 26 -2 26 -64z m-5990 -55 c216 -6 144 -7 -340 -7
-338 -1 -588 2 -555 6 79 9 551 9 895 1z m5900 -133 c13 -25 13 -31 0 -55 -19
-34 -45 -40 -71 -17 -24 21 -25 61 -2 86 23 25 54 19 73 -14z m-6443 -28 c11
-19 27 -30 52 -34 20 -3 191 -6 381 -6 221 0 341 -3 334 -10 -5 -5 -158 -10
-376 -12 -366 -3 -368 -3 -383 -25 -9 -12 -21 -28 -28 -35 -50 -55 -49 -52
-36 -118 9 -46 9 -64 0 -73 -6 -6 -11 -19 -11 -29 0 -28 -17 -21 -35 15 -12
25 -14 47 -9 96 l7 63 -44 41 c-24 23 -43 47 -41 54 2 10 -43 13 -211 13 -197
0 -215 -1 -231 -19 -28 -31 -55 -33 -82 -6 -30 30 -31 59 -2 79 31 22 51 20
78 -9 l23 -25 203 0 202 0 33 32 c67 63 141 66 176 8z m6838 30 c23 -26 13
-67 -21 -82 -23 -11 -29 -9 -45 11 -22 26 -24 44 -9 72 14 25 52 24 75 -1z
m-1005 -22 c25 -27 25 -33 0 -58 -25 -25 -41 -25 -72 0 -23 17 -44 20 -184 23
l-159 3 161 2 c157 2 161 2 182 27 27 31 45 32 72 3z m-3435 -128 c3 -5 1 -10
-4 -10 -6 0 -11 5 -11 10 0 6 2 10 4 10 3 0 8 -4 11 -10z m150 0 c3 -5 1 -10
-4 -10 -6 0 -11 5 -11 10 0 6 2 10 4 10 3 0 8 -4 11 -10z m155 0 c0 -5 -5 -10
-11 -10 -5 0 -7 5 -4 10 3 6 8 10 11 10 2 0 4 -4 4 -10z m945 1 c3 -5 1 -12
-5 -16 -5 -3 -10 1 -10 9 0 18 6 21 15 7z m150 -1 c3 -5 1 -10 -4 -10 -6 0
-11 5 -11 10 0 6 2 10 4 10 3 0 8 -4 11 -10z m150 1 c3 -5 1 -12 -5 -16 -5 -3
-10 1 -10 9 0 18 6 21 15 7z m142 -13 c-3 -8 -6 -5 -6 6 -1 11 2 17 5 13 3 -3
4 -12 1 -19z m937 -7 c7 -10 -33 -23 -46 -15 -5 3 -6 10 -3 15 8 12 42 12 49
0z m1790 -27 c19 -18 21 -65 4 -82 -32 -32 -63 5 -32 39 12 13 14 23 7 30 -17
17 -44 -18 -38 -49 7 -40 28 -56 54 -43 13 8 21 8 21 2 0 -16 -51 -25 -69 -14
-9 5 -20 27 -26 48 -8 34 -7 39 18 61 33 28 40 29 61 8z m-1754 -14 c0 -5 -11
-22 -24 -38 l-25 -29 -1 -563 c0 -310 -2 -566 -5 -568 -3 -3 -5 250 -5 562 0
553 -1 569 -20 593 -19 25 -27 53 -14 53 4 0 13 -8 20 -17 13 -17 13 -17 14 0
0 9 4 17 9 17 5 0 12 -8 14 -17 4 -15 6 -15 12 4 7 21 25 23 25 3z m-5310 -50
c11 -11 20 -24 20 -30 0 -17 -39 -50 -59 -50 -27 0 -44 25 -36 52 16 51 42 61
75 28z m389 6 c22 -26 9 -70 -23 -81 -24 -8 -31 -6 -47 13 -17 22 -16 43 4 70
13 16 52 15 66 -2z m5687 -1 c20 -51 -43 -98 -75 -56 -15 18 -30 20 -213 23
-148 2 -200 0 -210 -10 -20 -20 -48 -15 -48 11 l0 22 220 -3 c187 -3 222 -1
242 12 29 20 77 21 84 1z m-4408 -23 c3 -9 -3 -13 -14 -11 -11 2 -25 0 -32 -5
-19 -12 -27 1 -12 19 15 18 51 16 58 -3z m5192 -22 c0 -6 -100 -10 -280 -10
-180 0 -280 4 -280 10 0 6 100 10 280 10 180 0 280 -4 280 -10z m-5196 -34
c-3 -9 -10 -16 -15 -16 -5 0 -10 -12 -10 -27 -1 -21 -2 -23 -6 -8 -3 11 -10
26 -16 33 -13 16 8 33 30 25 7 -3 13 1 13 8 0 7 2 10 5 7 3 -3 3 -13 -1 -22z
m4710 -58 c30 -42 10 -128 -30 -128 -27 0 -54 38 -54 77 0 64 53 96 84 51z
m141 -1 c4 -13 5 -43 3 -67 -4 -52 -24 -69 -62 -52 -24 11 -26 17 -26 71 0 63
4 69 52 70 21 1 29 -5 33 -22z m140 -1 c22 -33 11 -92 -21 -113 -22 -14 -26
-14 -49 1 -27 18 -33 62 -15 110 13 35 63 36 85 2z m95 -46 c0 -38 -4 -70 -9
-70 -14 0 -21 28 -21 86 0 41 4 54 15 54 12 0 15 -14 15 -70z m150 51 c14 -27
12 -82 -4 -103 -17 -22 -49 -23 -67 -2 -21 25 -17 93 6 110 26 20 52 17 65 -5z
m-6697 -39 c50 -53 24 -132 -43 -132 -67 0 -93 79 -43 132 15 15 34 28 43 28
9 0 28 -13 43 -28z m1021 -55 c-6 -17 21 -41 36 -32 7 4 9 16 7 27 -4 12 -1
18 6 15 15 -5 12 -54 -4 -73 -13 -16 -50 -19 -65 -4 -5 5 -90 10 -197 10 -158
1 -189 -1 -203 -14 -31 -32 -84 -14 -84 29 0 47 47 59 102 25 29 -18 51 -20
192 -20 156 0 159 0 182 25 26 28 36 32 28 12z m4834 -9 c20 -20 15 -66 -8
-73 -29 -9 -80 4 -80 21 0 12 -45 14 -279 14 l-280 0 -4 -32 -5 -33 2 35 1 35
275 5 c235 4 279 7 305 22 36 21 57 22 73 6z m1287 -114 c34 -37 33 -78 -4
-115 -36 -35 -64 -37 -96 -4 -41 40 -31 104 20 133 32 18 54 14 80 -14z m-477
-10 c26 -18 28 -41 6 -72 -34 -49 -106 -6 -85 51 15 38 44 46 79 21z m-4891
-90 c8 -21 -13 -42 -28 -27 -13 13 -5 43 11 43 6 0 13 -7 17 -16z m518 -14
c-5 -8 -11 -8 -17 -2 -6 6 -7 16 -3 22 5 8 11 8 17 2 6 -6 7 -16 3 -22z m148
15 c4 -8 2 -17 -3 -20 -6 -4 -10 3 -10 14 0 25 6 27 13 6z m937 -12 c0 -20 -3
-24 -11 -16 -7 7 -9 19 -6 27 10 24 17 19 17 -11z m-783 -5 c-3 -8 -6 -5 -6 6
-1 11 2 17 5 13 3 -3 4 -12 1 -19z m1240 0 c-3 -8 -6 -5 -6 6 -1 11 2 17 5 13
3 -3 4 -12 1 -19z m163 7 c0 -8 -4 -15 -10 -15 -5 0 -10 7 -10 15 0 8 5 15 10
15 6 0 10 -7 10 -15z m140 -1 c0 -8 -5 -12 -10 -9 -6 4 -8 11 -5 16 9 14 15
11 15 -7z m-1682 -153 c-5 -24 -38 -27 -38 -3 0 10 3 21 6 25 11 11 35 -5 32
-22z m310 -7 c-4 -25 -32 -24 -36 0 -4 21 18 40 31 27 5 -5 7 -17 5 -27z m622
6 c0 -10 -5 -22 -10 -25 -13 -8 -24 20 -16 41 8 20 26 9 26 -16z m310 -1 c0
-20 -24 -26 -35 -9 -8 13 14 42 26 34 5 -3 9 -14 9 -25z m-1400 1 c0 -11 -7
-20 -15 -20 -8 0 -15 9 -15 20 0 11 7 20 15 20 8 0 15 -9 15 -20z m308 -2 c-2
-13 -7 -23 -13 -23 -5 0 -11 10 -13 23 -2 15 2 22 13 22 11 0 15 -7 13 -22z
m310 0 c-2 -13 -7 -23 -13 -23 -5 0 -11 10 -13 23 -2 15 2 22 13 22 11 0 15
-7 13 -22z m157 -3 c0 -28 -29 -25 -33 3 -3 19 0 23 15 20 10 -2 18 -12 18
-23z m463 3 c-2 -13 -7 -23 -13 -23 -5 0 -11 10 -13 23 -2 15 2 22 13 22 11 0
15 -7 13 -22z m310 0 c-2 -13 -7 -23 -13 -23 -5 0 -11 10 -13 23 -2 15 2 22
13 22 11 0 15 -7 13 -22z m162 3 c0 -25 -20 -38 -31 -20 -15 23 -10 39 11 39
13 0 20 -7 20 -19z m138 -3 c-2 -13 -7 -23 -13 -23 -5 0 -11 10 -13 23 -2 15
2 22 13 22 11 0 15 -7 13 -22z m-3394 -32 c42 -17 76 -72 76 -121 0 -30 -8
-45 -39 -76 -32 -33 -45 -39 -80 -39 -84 0 -127 45 -125 132 1 91 81 141 168
104z m5026 -1 c52 -27 76 -109 49 -167 -27 -61 -122 -87 -173 -47 -58 45 -71
114 -33 170 39 58 98 74 157 44z m-6545 -15 c3 -5 -1 -10 -10 -10 -9 0 -13 5
-10 10 3 6 8 10 10 10 2 0 7 -4 10 -10z m155 6 c0 -15 -14 -35 -21 -30 -15 9
-10 34 6 34 8 0 15 -2 15 -4z m150 -10 c0 -8 -4 -17 -9 -20 -10 -7 -23 19 -14
28 11 11 23 6 23 -8z m156 -8 c-3 -13 -6 -27 -7 -33 -1 -12 -17 25 -18 43 -1
6 6 12 15 12 12 0 15 -6 10 -22z m155 9 c-1 -4 -1 -14 -1 -22 0 -8 -4 -15 -9
-15 -10 0 -21 36 -13 45 7 7 24 2 23 -8z m154 -92 c0 -58 -3 -105 -7 -105 -5
0 -8 40 -8 89 0 49 -3 96 -6 105 -4 10 -1 16 7 16 11 0 14 -23 14 -105z m166
92 c-1 -4 -1 -50 -1 -102 0 -63 -4 -95 -11 -95 -8 0 -9 14 -5 43 3 23 2 68 -2
100 -5 31 -6 59 -3 62 7 7 23 1 22 -8z m154 -92 c0 -63 -4 -105 -10 -105 -6 0
-10 42 -10 105 0 63 4 105 10 105 6 0 10 -42 10 -105z m155 75 c0 -28 -16 -45
-17 -17 0 6 -4 20 -8 30 -5 12 -2 17 9 17 11 0 16 -9 16 -30z m5500 15 c0 -8
-4 -15 -9 -15 -5 0 -12 -8 -14 -17 -3 -10 -5 -3 -6 15 -1 22 4 32 14 32 8 0
15 -7 15 -15z m146 -1 c-3 -9 -6 -23 -6 -31 0 -22 -6 -14 -14 20 -5 21 -3 27
10 27 11 0 14 -5 10 -16z m160 0 c-3 -9 -6 -25 -6 -37 0 -19 -2 -19 -15 7 -20
38 -19 46 6 46 15 0 19 -4 15 -16z m145 3 c-1 -4 -1 -16 -1 -27 0 -11 -4 -20
-10 -20 -5 0 -10 14 -10 31 0 17 5 29 11 27 6 -2 10 -7 10 -11z m155 -3 c-3
-9 -6 -20 -6 -25 0 -6 -4 -7 -10 -4 -16 10 -12 45 6 45 11 0 14 -5 10 -16z
m144 -4 c0 -11 -4 -20 -10 -20 -5 0 -10 9 -10 20 0 11 5 20 10 20 6 0 10 -9
10 -20z m150 5 c0 -8 -4 -15 -9 -15 -13 0 -22 16 -14 24 11 11 23 6 23 -9z
m150 5 c0 -5 -7 -10 -15 -10 -8 0 -15 5 -15 10 0 6 7 10 15 10 8 0 15 -4 15
-10z m150 0 c0 -5 -4 -10 -10 -10 -5 0 -10 5 -10 10 0 6 5 10 10 10 6 0 10 -4
10 -10z m-4880 -111 c0 -20 -15 -26 -25 -9 -9 15 3 43 15 35 5 -3 10 -15 10
-26z m157 15 c8 -21 -13 -42 -28 -27 -13 13 -5 43 11 43 6 0 13 -7 17 -16z
m151 -12 c2 -14 -2 -22 -12 -22 -19 0 -29 17 -22 36 8 22 30 12 34 -14z m159
12 c8 -21 -13 -42 -28 -27 -13 13 -5 43 11 43 6 0 13 -7 17 -16z m156 -20 c-8
-20 -33 -17 -33 4 0 10 3 22 7 25 10 11 32 -13 26 -29z m152 11 c0 -11 -8 -21
-17 -23 -14 -3 -18 3 -18 23 0 20 4 26 18 23 9 -2 17 -12 17 -23z m313 -3 c2
-14 -2 -22 -12 -22 -19 0 -29 17 -22 36 8 22 30 12 34 -14z m150 0 c2 -14 -2
-22 -11 -22 -17 0 -26 19 -19 38 7 19 27 9 30 -16z m159 12 c8 -21 -13 -42
-28 -27 -13 13 -5 43 11 43 6 0 13 -7 17 -16z m153 -10 c0 -31 -23 -28 -28 4
-2 15 2 22 12 22 11 0 16 -9 16 -26z m157 10 c8 -21 -13 -42 -28 -27 -13 13
-5 43 11 43 6 0 13 -7 17 -16z m143 -9 c0 -26 -14 -33 -25 -15 -9 14 1 40 15
40 5 0 10 -11 10 -25z m-3670 -82 c0 -7 -7 -13 -16 -13 -11 0 -14 5 -10 16 3
9 6 21 6 27 0 16 20 -14 20 -30z m5800 12 c0 -16 -6 -25 -15 -25 -18 0 -19 16
-2 35 16 19 17 19 17 -10z m296 -22 c-11 -11 -19 6 -11 24 8 17 8 17 12 0 3
-10 2 -21 -1 -24z m-6881 18 c3 -5 1 -12 -5 -16 -5 -3 -10 1 -10 9 0 18 6 21
15 7z m155 -6 c0 -8 -4 -15 -10 -15 -5 0 -10 7 -10 15 0 8 5 15 10 15 6 0 10
-7 10 -15z m6128 -3 c2 -7 -3 -12 -12 -12 -9 0 -16 7 -16 16 0 17 22 14 28 -4z
m152 -3 c0 -5 -7 -9 -15 -9 -15 0 -20 12 -9 23 8 8 24 -1 24 -14z m300 6 c0
-8 -4 -15 -10 -15 -5 0 -10 7 -10 15 0 8 5 15 10 15 6 0 10 -7 10 -15z m300 0
c0 -8 -4 -15 -10 -15 -5 0 -10 7 -10 15 0 8 5 15 10 15 6 0 10 -7 10 -15z
m-4430 -136 c0 -5 -4 -9 -10 -9 -5 0 -10 7 -10 16 0 8 5 12 10 9 6 -3 10 -10
10 -16z m142 -11 c-9 -9 -12 -7 -12 12 0 19 3 21 12 12 9 -9 9 -15 0 -24z
m154 5 c-10 -10 -19 5 -10 18 6 11 8 11 12 0 2 -7 1 -15 -2 -18z m164 6 c0 -5
-4 -9 -10 -9 -5 0 -10 7 -10 16 0 8 5 12 10 9 6 -3 10 -10 10 -16z m153 15 c9
-9 -4 -35 -14 -28 -5 3 -9 12 -9 20 0 14 12 19 23 8z m149 -26 c-9 -9 -12 -7
-12 12 0 19 3 21 12 12 9 -9 9 -15 0 -24z m318 12 c0 -11 -4 -20 -10 -20 -5 0
-10 9 -10 20 0 11 5 20 10 20 6 0 10 -9 10 -20z m153 -6 c-4 -10 -9 -12 -15
-6 -12 12 -1 35 12 27 5 -3 6 -13 3 -21z m157 5 c0 -11 -4 -17 -10 -14 -5 3
-10 13 -10 21 0 8 5 14 10 14 6 0 10 -9 10 -21z m152 -11 c-9 -9 -12 -7 -12
12 0 19 3 21 12 12 9 -9 9 -15 0 -24z m158 12 c0 -11 -4 -20 -10 -20 -5 0 -10
9 -10 20 0 11 5 20 10 20 6 0 10 -9 10 -20z m142 -12 c-9 -9 -12 -7 -12 12 0
19 3 21 12 12 9 -9 9 -15 0 -24z m-1229 -163 c-7 -21 -13 -19 -13 6 0 11 4 18
10 14 5 -3 7 -12 3 -20z m617 3 c0 -16 -3 -19 -11 -11 -6 6 -8 16 -5 22 11 17
16 13 16 -11z m315 -8 c-5 -8 -11 -8 -17 -2 -6 6 -7 16 -3 22 5 8 11 8 17 2 6
-6 7 -16 3 -22z m-1545 10 c0 -5 -4 -10 -10 -10 -5 0 -10 5 -10 10 0 6 5 10
10 10 6 0 10 -4 10 -10z m150 0 c0 -5 -4 -10 -10 -10 -5 0 -10 5 -10 10 0 6 5
10 10 10 6 0 10 -4 10 -10z m160 6 c0 -3 -4 -8 -10 -11 -5 -3 -10 -1 -10 4 0
6 5 11 10 11 6 0 10 -2 10 -4z m150 -6 c0 -5 -4 -10 -10 -10 -5 0 -10 5 -10
10 0 6 5 10 10 10 6 0 10 -4 10 -10z m310 1 c0 -6 -4 -13 -10 -16 -5 -3 -10 1
-10 9 0 9 5 16 10 16 6 0 10 -4 10 -9z m310 0 c0 -6 -4 -13 -10 -16 -5 -3 -10
1 -10 9 0 9 5 16 10 16 6 0 10 -4 10 -9z m310 -7 c0 -8 -4 -12 -10 -9 -5 3
-10 10 -10 16 0 5 5 9 10 9 6 0 10 -7 10 -16z m310 0 c0 -8 -4 -12 -10 -9 -5
3 -10 10 -10 16 0 5 5 9 10 9 6 0 10 -7 10 -16z"/>
<path d="M6534 9332 c8 -253 -17 -233 297 -232 l239 1 0 54 0 54 -52 -4 c-29
-3 -117 -2 -195 1 l-143 7 1 86 c1 47 4 111 9 141 6 43 7 26 9 -82 l1 -138
144 0 c129 0 145 2 149 18 4 16 5 16 6 0 1 -14 10 -18 36 -18 l35 0 0 150 0
149 -271 0 -272 0 7 -187z m463 46 c-2 -24 -4 -7 -4 37 0 44 2 63 4 43 2 -21
2 -57 0 -80z"/>
<path d="M7844 9129 c-3 -6 -1 -16 4 -21 13 -13 45 8 36 23 -7 12 -31 11 -40
-2z"/>
<path d="M2667 9561 c-37 -62 -11 -121 53 -121 46 0 80 30 80 71 0 74 -97 110
-133 50z"/>
<path d="M7770 9616 c0 -2 7 -9 15 -16 9 -7 15 -8 15 -2 0 5 -7 12 -15 16 -8
3 -15 4 -15 2z"/>
<path d="M7689 9571 c-38 -39 -38 -74 1 -113 24 -24 36 -29 58 -24 45 11 72
50 68 99 -1 23 -8 41 -13 40 -6 -1 -17 4 -23 12 -20 24 -59 18 -91 -14z"/>
<path d="M7660 9446 c0 -2 8 -10 18 -17 15 -13 16 -12 3 4 -13 16 -21 21 -21
13z"/>
<path d="M8467 9153 c-4 -3 -7 -15 -7 -25 0 -28 34 -19 38 10 3 21 -16 31 -31
15z"/>
<path d="M2506 9112 c-2 -4 4 -9 15 -9 11 -1 17 2 14 8 -7 11 -22 12 -29 1z"/>
<path d="M1364 9079 c-4 -7 -2 -15 4 -17 7 -2 12 -8 12 -13 0 -6 -4 -7 -10 -4
-5 3 -10 -1 -10 -9 0 -9 6 -16 14 -16 19 0 38 26 34 47 -4 21 -33 29 -44 12z"/>
<path d="M1730 8690 c-91 -31 -124 -95 -85 -170 15 -29 81 -87 123 -109 l22
-12 0 156 c0 85 -1 155 -2 155 -2 -1 -28 -9 -58 -20z"/>
<path d="M1959 7803 c-1 -65 -2 -131 -3 -147 -2 -41 16 -42 58 -5 26 23 34 26
30 13 -4 -11 -14 -25 -22 -31 -10 -8 -11 -13 -4 -13 18 0 79 90 90 131 5 19 5
44 1 56 -7 20 -123 113 -140 113 -5 0 -10 -53 -10 -117z"/>
<path d="M8321 8958 c-5 -13 -7 -26 -5 -30 8 -13 34 4 34 22 0 29 -19 34 -29
8z"/>
<path d="M8570 8956 c0 -30 15 -42 24 -20 10 27 7 44 -9 44 -9 0 -15 -9 -15
-24z"/>
<path d="M8697 8973 c-11 -10 -8 -53 3 -53 6 0 10 14 10 30 0 31 -2 35 -13 23z"/>
<path d="M8832 8968 c-16 -16 -15 -58 1 -58 20 0 37 22 37 47 0 25 -19 30 -38
11z"/>
<path d="M3281 8886 c-21 -25 -9 -69 22 -86 27 -14 29 -14 48 9 10 13 19 32
19 44 0 39 -64 63 -89 33z m65 -47 c10 -17 -23 -46 -37 -32 -7 7 -9 19 -6 27
7 18 33 21 43 5z"/>
<path d="M8591 8804 c0 -11 3 -14 6 -6 3 7 2 16 -1 19 -3 4 -6 -2 -5 -13z"/>
<path d="M8296 8764 c-11 -29 -6 -44 14 -44 25 0 36 25 20 45 -16 19 -26 19
-34 -1z"/>
<path d="M2515 8630 c-8 -13 4 -32 16 -25 12 8 12 35 0 35 -6 0 -13 -4 -16
-10z"/>
<path d="M7856 8624 c-8 -22 -8 -24 8 -24 21 0 28 16 12 29 -11 9 -15 8 -20
-5z"/>
<path d="M7355 8620 c-3 -5 3 -10 15 -10 12 0 18 5 15 10 -3 6 -10 10 -15 10
-5 0 -12 -4 -15 -10z"/>
<path d="M8460 8385 c0 -8 5 -15 10 -15 6 0 10 7 10 15 0 8 -4 15 -10 15 -5 0
-10 -7 -10 -15z"/>
<path d="M8465 8330 c-8 -13 4 -32 16 -25 12 8 12 35 0 35 -6 0 -13 -4 -16
-10z"/>
<path d="M912 6888 c-18 -18 -15 -43 8 -63 35 -32 69 0 51 48 -11 29 -39 35
-59 15z"/>
<path d="M8824 8095 c-9 -23 3 -45 26 -45 22 0 25 12 10 41 -13 23 -28 25 -36
4z"/>
<path d="M8190 8070 c0 -16 4 -30 9 -30 10 0 22 40 15 52 -11 18 -24 6 -24
-22z"/>
<path d="M8313 7989 c-14 -35 -10 -49 13 -49 18 0 39 43 31 64 -10 26 -32 18
-44 -15z"/>
<path d="M2667 7963 c-13 -13 -7 -54 9 -60 24 -9 46 24 33 48 -10 19 -30 25
-42 12z"/>
<path d="M8194 7805 c-4 -23 -2 -41 5 -48 17 -17 33 5 29 43 -4 47 -25 49 -34
5z"/>
<path d="M8831 7818 c-12 -31 -4 -68 14 -68 21 0 30 59 11 78 -14 14 -16 13
-25 -10z"/>
<path d="M8290 7486 c0 -35 4 -46 16 -46 12 0 14 9 12 42 -4 59 -28 63 -28 4z"/>
<path d="M8434 7495 c-7 -28 0 -55 15 -55 13 0 25 45 17 65 -8 23 -25 18 -32
-10z"/>
<path d="M8576 7504 c-8 -22 4 -66 18 -61 18 6 20 77 3 77 -8 0 -18 -7 -21
-16z"/>
<path d="M8847 7523 c-4 -3 -7 -24 -7 -45 0 -49 23 -47 28 2 3 32 -8 56 -21
43z"/>
<path d="M8986 7523 c-13 -13 -6 -83 8 -83 18 0 25 20 19 53 -6 29 -16 41 -27
30z"/>
<path d="M1937 6984 c-9 -9 -9 -48 -1 -57 13 -13 45 14 42 36 -3 22 -28 34
-41 21z"/>
<path d="M8542 6958 c-16 -16 -15 -33 4 -48 22 -19 54 12 38 37 -14 22 -27 26
-42 11z"/>
<path d="M8940 6930 c0 -5 7 -10 15 -10 8 0 15 5 15 10 0 6 -7 10 -15 10 -8 0
-15 -4 -15 -10z"/>
<path d="M1535 6670 c-17 -18 -17 -21 -1 -45 21 -32 39 -32 61 1 16 24 16 27
-1 45 -22 24 -36 24 -59 -1z m37 -18 c-7 -2 -12 -11 -12 -20 0 -12 -3 -13 -12
-4 -14 14 8 46 25 35 8 -5 7 -8 -1 -11z"/>
<path d="M8925 6660 c-10 -32 3 -42 33 -24 25 15 25 15 8 0 -11 -9 -16 -19
-12 -23 14 -14 36 28 25 48 -13 25 -46 24 -54 -1z"/>
<path d="M2195 2270 c-8 -13 14 -42 26 -34 5 3 9 14 9 25 0 20 -24 26 -35 9z"/>
<path d="M1336 2213 c-3 -4 -6 -17 -6 -30 0 -31 34 -28 38 3 3 21 -20 39 -32
27z"/>
<path d="M9174 2186 c-9 -24 4 -48 23 -44 12 2 18 12 18 28 0 29 -32 41 -41
16z"/>
<path d="M1962 2128 c-18 -18 -15 -36 9 -49 26 -14 42 0 37 32 -3 27 -27 36
-46 17z"/>
<path d="M8152 2073 c3 -52 23 -69 31 -26 6 31 -7 73 -23 73 -7 0 -10 -18 -8
-47z"/>
<path d="M8740 2101 c0 -11 -2 -25 -5 -33 -3 -7 0 -20 5 -28 9 -13 11 -13 20
0 16 24 12 80 -5 80 -8 0 -15 -9 -15 -19z"/>
<path d="M1760 1850 c0 -5 7 -7 15 -4 8 4 15 8 15 10 0 2 -7 4 -15 4 -8 0 -15
-4 -15 -10z"/>
<path d="M7857 1764 c-15 -15 -7 -45 11 -42 9 2 17 12 17 22 0 20 -16 31 -28
20z"/>
<path d="M8142 1673 c3 -50 19 -61 29 -21 8 34 -1 68 -18 68 -11 0 -13 -11
-11 -47z"/>
<path d="M8290 1680 c0 -29 4 -40 13 -37 6 2 12 19 12 37 0 18 -6 35 -12 38
-9 2 -13 -9 -13 -38z"/>
<path d="M8427 1714 c-11 -12 -8 -72 4 -80 16 -10 30 16 27 50 -3 29 -18 43
-31 30z"/>
<path d="M8690 1681 c0 -44 11 -58 30 -36 17 20 9 69 -12 73 -15 3 -18 -4 -18
-37z"/>
<path d="M8834 1706 c-8 -22 -1 -59 13 -64 17 -5 27 22 19 53 -7 28 -24 33
-32 11z"/>
<path d="M8457 1483 c-15 -15 -7 -43 13 -43 15 0 20 7 20 25 0 24 -18 34 -33
18z"/>
<path d="M1377 1433 c-12 -12 -7 -43 7 -43 18 0 39 27 31 40 -7 11 -28 13 -38
3z"/>
<path d="M8854 1475 c-8 -21 2 -45 20 -45 19 0 29 29 15 46 -15 18 -28 18 -35
-1z"/>
<path d="M7846 1445 c-3 -9 1 -18 9 -21 18 -7 47 14 39 27 -9 15 -41 10 -48
-6z"/>
<path d="M1780 1216 c0 -2 7 -7 16 -10 8 -3 12 -2 9 4 -6 10 -25 14 -25 6z"/>
<path d="M2165 1211 c-6 -11 9 -23 19 -14 9 9 7 23 -3 23 -6 0 -12 -4 -16 -9z"/>
<path d="M8147 1084 c-10 -10 -8 -56 3 -74 14 -23 32 2 28 40 -3 33 -17 48
-31 34z"/>
<path d="M8280 1040 c0 -29 4 -40 13 -37 6 2 12 19 12 37 0 18 -6 35 -12 38
-9 2 -13 -9 -13 -38z"/>
<path d="M8416 1091 c-10 -16 6 -92 18 -88 17 6 19 72 2 86 -9 8 -16 8 -20 2z"/>
<path d="M8677 1094 c-4 -4 -7 -25 -7 -46 0 -32 3 -39 18 -36 10 2 18 14 20
28 3 27 -19 66 -31 54z"/>
<path d="M1958 1023 c-7 -30 3 -54 20 -51 11 2 18 15 20 36 3 26 0 32 -16 32
-11 0 -22 -8 -24 -17z"/>
<path d="M9098 869 c-10 -5 -23 -19 -29 -30 -14 -28 13 -69 46 -69 30 0 41 17
16 25 -19 6 -35 41 -25 57 9 14 44 -12 44 -33 0 -11 5 -17 10 -14 16 10 12 33
-10 55 -23 23 -28 24 -52 9z"/>
<path d="M8642 858 c-7 -7 -12 -20 -12 -31 0 -13 6 -18 23 -15 16 2 22 10 22
27 0 28 -15 37 -33 19z"/>
<path d="M2667 532 c-25 -28 -22 -96 5 -122 47 -44 128 -6 128 60 0 65 -92
108 -133 62z"/>
<path d="M2755 380 c-3 -5 -2 -10 4 -10 5 0 13 5 16 10 3 6 2 10 -4 10 -5 0
-13 -4 -16 -10z"/>
<path d="M7681 524 c-24 -31 -25 -39 -10 -83 12 -33 54 -62 79 -53 8 3 27 14
43 24 32 23 36 65 10 109 -15 25 -24 29 -59 29 -34 0 -47 -5 -63 -26z"/>
<path d="M7650 421 c10 -20 57 -61 70 -61 4 0 -10 18 -32 40 -45 44 -54 49
-38 21z"/>
<path d="M4120 8180 c-64 -23 -120 -49 -120 -55 0 -3 24 5 53 16 28 12 75 29
102 39 28 10 43 19 35 19 -8 0 -40 -9 -70 -19z"/>
<path d="M3645 7780 c-3 -5 -2 -10 4 -10 5 0 13 5 16 10 3 6 2 10 -4 10 -5 0
-13 -4 -16 -10z"/>
<path d="M6380 7780 c8 -5 20 -10 25 -10 6 0 3 5 -5 10 -8 5 -19 10 -25 10 -5
0 -3 -5 5 -10z"/>
<path d="M6530 7715 c36 -19 70 -34 75 -34 6 0 -19 15 -55 34 -36 19 -69 34
-75 34 -5 0 19 -15 55 -34z"/>
<path d="M4890 7645 c-299 -42 -551 -120 -835 -259 -433 -213 -793 -528 -1058
-927 -247 -373 -375 -722 -423 -1152 -21 -184 -15 -610 10 -767 96 -598 363
-1114 792 -1530 145 -140 208 -192 368 -298 286 -192 662 -344 1000 -406 721
-133 1476 25 2063 431 216 149 471 387 614 573 151 195 295 449 380 670 64
164 121 390 156 610 24 155 24 548 -1 730 -29 212 -94 465 -169 655 -173 440
-536 889 -963 1193 -132 94 -190 128 -364 216 -264 134 -514 214 -800 256
-114 17 -383 28 -327 13 17 -5 24 -33 8 -33 -5 0 -12 -8 -15 -18 -3 -9 -18
-24 -32 -33 -24 -15 -18 -16 133 -28 358 -27 680 -119 993 -282 236 -124 450
-274 606 -425 81 -79 137 -145 75 -89 -32 30 -33 30 -48 10 -15 -20 -15 -20
-9 2 5 16 2 23 -14 28 -12 4 -19 12 -16 20 3 8 -3 19 -12 26 -9 8 -14 9 -10 5
16 -19 -24 -33 -65 -23 -27 7 -41 7 -46 -1 -3 -5 -47 -11 -96 -13 -67 -2 -97
-7 -116 -21 -22 -15 -28 -15 -32 -4 -3 8 -1 17 6 19 7 2 0 4 -16 3 -22 -1 -25
-3 -12 -12 8 -6 15 -14 15 -18 0 -6 -41 20 -195 120 -213 138 -562 265 -853
310 -216 33 -501 28 -708 -12 -454 -86 -902 -314 -1205 -610 -46 -45 -69 -62
-74 -53 -5 7 -4 10 2 6 6 -4 13 0 16 8 4 9 1 12 -10 8 -8 -3 -18 -2 -22 4 -15
22 -105 75 -109 64 -7 -21 -45 -50 -56 -44 -6 4 -5 -1 2 -10 13 -15 16 -14 40
8 32 30 34 30 56 6 11 -12 14 -21 7 -26 -12 -7 -15 -26 -3 -24 14 3 72 -14 72
-20 0 -8 -47 -51 -55 -51 -3 0 -5 10 -5 23 0 14 3 18 8 10 6 -10 12 -9 28 3
15 13 16 15 2 10 -9 -3 -19 0 -22 7 -3 8 -9 7 -19 -5 -10 -13 -16 -15 -25 -6
-7 7 -12 8 -12 3 0 -6 -24 -11 -52 -13 -29 -2 -58 -8 -65 -14 -9 -7 -13 -7
-13 1 0 6 -17 11 -40 11 -33 0 -40 -3 -40 -20 0 -17 -7 -20 -40 -20 -27 0 -42
-5 -49 -18 -11 -20 -51 -27 -51 -9 0 7 -9 -3 -20 -21 -23 -37 -25 -46 -9 -36
8 4 8 0 0 -15 -13 -24 -23 -28 -15 -6 11 27 -13 16 -27 -12 -22 -44 -101 -173
-106 -173 -4 0 53 105 97 177 155 256 378 501 625 688 312 235 686 404 1077
485 106 22 328 50 396 50 39 0 42 2 28 15 -8 8 -23 15 -33 15 -14 0 -15 2 -4
9 10 7 4 12 -22 22 -43 15 -43 32 -2 40 58 12 -141 7 -235 -6z m400 -535 c9
-17 7 -22 -13 -29 -25 -10 -77 -3 -77 9 0 43 70 58 90 20z m-134 -131 c24 -19
94 -21 150 -3 49 15 70 16 172 7 105 -10 291 -49 323 -68 6 -5 25 -10 42 -11
17 -2 64 -24 106 -48 42 -25 88 -47 102 -51 27 -7 59 -52 52 -72 -3 -7 0 -13
5 -13 6 0 12 6 15 13 7 20 17 3 10 -21 -3 -13 -13 -22 -25 -22 -11 0 -34 -11
-52 -25 -18 -14 -38 -25 -43 -25 -6 0 -16 -7 -23 -15 -7 -8 -25 -15 -41 -15
-26 0 -29 -4 -29 -30 0 -17 5 -30 13 -31 10 0 10 -2 0 -6 -19 -7 -16 -23 4
-23 9 0 14 -2 11 -5 -3 -4 -18 -3 -33 1 -20 5 -23 9 -13 15 10 7 9 9 -4 9 -10
0 -51 11 -92 24 -112 37 -165 42 -64 7 101 -35 298 -132 390 -190 62 -40 72
-54 20 -28 -235 120 -388 178 -554 211 -358 72 -744 27 -1076 -125 -85 -39
-332 -185 -368 -217 -64 -58 -124 -102 -138 -102 -21 0 90 99 193 174 91 65
222 146 311 192 36 18 61 34 56 34 -9 0 -106 -42 -140 -62 -11 -5 -40 -22 -65
-35 -25 -14 -52 -30 -59 -36 -7 -5 -15 -7 -19 -3 -3 3 -2 6 4 6 16 0 73 59 73
75 0 8 -4 15 -10 15 -5 0 -10 -5 -10 -11 0 -6 -8 -18 -17 -27 -13 -13 -16 -14
-11 -2 21 57 20 60 -11 66 -16 4 -40 17 -52 30 -12 13 -32 24 -44 24 -32 0
-75 23 -74 40 1 18 17 59 18 45 1 -5 14 4 30 20 39 41 84 75 99 75 6 0 12 5
12 10 0 6 7 10 17 10 9 0 30 10 47 23 17 13 49 31 71 41 22 10 54 25 70 33 30
15 94 34 196 58 31 7 79 20 105 28 27 9 69 19 94 22 25 4 50 11 55 15 24 20
177 18 201 -1z m1849 -169 c-3 -5 -12 -10 -18 -10 -7 0 -6 4 3 10 19 12 23 12
15 0z m-300 -40 c3 -5 1 -10 -4 -10 -6 0 -11 5 -11 10 0 6 2 10 4 10 3 0 8 -4
11 -10z m378 -24 c4 -10 1 -13 -9 -9 -7 3 -14 9 -14 14 0 14 17 10 23 -5z m77
-46 c6 -11 8 -20 6 -20 -3 0 -10 9 -16 20 -6 11 -8 20 -6 20 3 0 10 -9 16 -20z
m-1060 -50 c0 -5 -7 -10 -16 -10 -8 0 -12 5 -9 10 3 6 10 10 16 10 5 0 9 -4 9
-10z m1111 -7 c13 -16 12 -17 -3 -4 -10 7 -18 15 -18 17 0 8 8 3 21 -13z
m-148 -15 c30 -24 31 -62 2 -96 -47 -56 -114 -29 -101 40 3 18 7 38 8 45 1 6
7 9 14 6 6 -2 15 0 19 6 8 15 37 14 58 -1z m-1773 -54 c14 -3 59 -9 100 -14
320 -40 617 -169 876 -381 239 -195 481 -589 511 -830 l5 -46 -118 -2 c-65 -1
-121 -4 -126 -7 -4 -3 -8 2 -8 10 0 31 -53 172 -97 260 -69 138 -136 231 -242
337 -184 183 -399 299 -666 359 -80 18 -133 23 -265 23 -258 1 -414 -35 -645
-149 -204 -100 -364 -231 -473 -384 -62 -88 -156 -277 -178 -357 l-18 -65 -43
5 c-24 2 -47 8 -51 12 -4 4 -6 171 -4 371 l2 364 -65 0 c-64 0 -86 12 -42 24
12 3 101 6 197 6 l176 0 69 56 c158 126 256 188 408 255 140 62 318 114 462
134 28 4 55 11 60 15 22 18 98 20 175 4z m-1711 -40 c2 -2 2 -7 -2 -10 -8 -9
-47 6 -47 17 0 9 37 3 49 -7z m-102 -70 c-3 -3 -12 -4 -19 -1 -8 3 -5 6 6 6
11 1 17 -2 13 -5z m-205 -79 c8 -12 1 -25 -15 -25 -7 0 -6 4 3 10 13 8 12 10
-2 10 -10 0 -18 -5 -18 -10 0 -6 -6 -5 -14 2 -8 7 -12 16 -9 20 6 10 46 5 55
-7z m69 -2 c13 -16 12 -17 -3 -4 -10 7 -18 15 -18 17 0 8 8 3 21 -13z m11 -41
c-6 -2 -9 -9 -5 -15 9 -15 11 -67 2 -62 -4 3 -9 0 -11 -7 -3 -8 -19 -1 -45 20
-49 39 -56 39 -78 6 -20 -31 -32 -25 -15 8 30 57 37 59 91 27 27 -15 49 -24
49 -19 0 6 -4 10 -9 10 -12 0 -24 37 -16 50 4 7 14 6 28 -2 14 -7 17 -13 9
-16z m3918 13 c9 -10 9 -15 1 -15 -6 0 -11 -5 -11 -11 0 -8 5 -7 16 2 13 10
17 10 25 -2 20 -31 21 -60 4 -79 -19 -21 -55 -27 -55 -9 0 5 10 9 22 7 24 -3
35 20 24 49 -6 14 -11 12 -34 -9 -43 -40 -59 -41 -77 -6 -20 41 -19 48 6 48
16 0 19 -4 14 -20 -7 -23 3 -26 30 -7 12 10 16 22 13 40 -6 30 3 35 22 12z
m-4059 -18 c-10 -9 -11 -8 -5 6 3 10 9 15 12 12 3 -3 0 -11 -7 -18z m3029 -33
c0 -2 -9 0 -20 6 -11 6 -20 13 -20 16 0 2 9 0 20 -6 11 -6 20 -13 20 -16z
m-2975 -34 c4 -6 -5 -10 -20 -10 -15 0 -24 4 -20 10 3 6 12 10 20 10 8 0 17
-4 20 -10z m2053 -360 l-3 -320 26 0 c46 0 152 -38 205 -73 l52 -35 71 72 71
72 -52 31 c-73 44 -128 68 -228 96 -82 24 -85 26 -91 58 -5 33 -12 -18 -22
-161 -2 -25 -4 73 -5 218 -2 227 0 262 13 262 8 0 15 -6 15 -13 0 -8 29 -17
83 -25 149 -24 316 -91 464 -187 l86 -57 -91 -90 c-51 -49 -92 -94 -92 -100 0
-7 4 -7 13 1 8 6 16 9 19 6 2 -3 15 7 29 22 13 14 17 23 9 18 -9 -5 -12 -5 -7
1 5 5 13 9 17 9 5 0 32 25 60 55 l52 55 -36 -51 c-20 -28 -32 -55 -28 -59 4
-5 2 -5 -4 -2 -11 7 -24 -12 -24 -35 0 -5 29 16 64 47 51 44 69 55 88 50 18
-5 35 3 68 29 25 20 50 36 55 36 17 0 56 -70 53 -93 -4 -25 -29 -39 -115 -63
-54 -15 -77 -30 -165 -107 -142 -124 -183 -157 -195 -157 -6 0 -16 -7 -23 -15
-6 -8 -15 -14 -18 -13 -20 2 -32 -3 -27 -12 4 -6 11 -7 17 -4 7 5 8 2 3 -5 -4
-7 1 -22 12 -34 19 -22 63 -93 63 -103 0 -3 -5 -2 -12 2 -8 5 -9 2 -4 -12 26
-64 50 -200 38 -220 -13 -21 -52 2 -52 31 0 42 -48 173 -80 220 -45 66 -157
163 -224 194 -81 38 -179 55 -264 46 -273 -29 -452 -216 -498 -523 -6 -43 -6
-43 -25 -23 -35 37 -17 200 32 293 6 10 5 19 -1 23 -12 7 11 43 78 123 39 46
43 54 31 70 -29 37 -210 232 -316 341 -62 63 -113 120 -113 126 0 7 6 18 14
24 11 10 23 4 58 -28 23 -23 47 -41 51 -41 14 0 67 34 67 43 0 4 3 6 8 3 11
-7 83 40 74 49 -4 4 -1 5 5 1 7 -4 22 2 34 12 11 11 49 28 84 38 35 10 61 22
58 27 -3 5 4 6 17 2 17 -5 21 -4 15 5 -5 8 -4 11 2 7 6 -4 50 5 99 18 49 14
101 25 116 25 l26 0 2 -168 1 -169 -85 -20 c-87 -22 -247 -91 -261 -113 -5 -8
17 -37 60 -80 l68 -69 26 18 c49 35 107 59 167 71 l61 12 -3 52 c-2 28 -8 114
-13 191 -14 187 -13 285 3 314 12 21 14 8 19 -115 4 -76 6 -204 6 -283 0 -125
4 -166 14 -150 1 2 0 143 -3 312 -3 170 -3 311 -1 313 2 2 35 4 73 4 l69 0 -3
-320z m-228 259 c-39 -8 -130 -26 -220 -44 -14 -3 -5 2 20 11 61 21 167 42
210 42 33 0 32 -1 -10 -9z m365 0 c20 -5 9 -6 -30 -2 -33 3 -62 7 -64 9 -8 7
63 2 94 -7z m90 -19 c25 -11 -1 -11 -35 0 -20 6 -21 8 -5 8 11 0 29 -3 40 -8z
m100 -30 c13 -5 14 -9 5 -9 -8 0 -24 4 -35 9 -13 5 -14 9 -5 9 8 0 24 -4 35
-9z m-2705 -20 c-6 -11 -13 -20 -16 -20 -2 0 0 9 6 20 6 11 13 20 16 20 2 0 0
-9 -6 -20z m1890 10 c-8 -5 -19 -10 -25 -10 -5 0 -3 5 5 10 8 5 20 10 25 10 6
0 3 -5 -5 -10z m180 5 c0 -6 -33 -19 -75 -29 -21 -5 -27 -4 -20 3 6 6 28 15
50 20 22 5 41 9 43 10 1 1 2 -1 2 -4z m-221 -20 c-9 -8 -79 -35 -79 -30 0 3
15 11 33 19 32 15 54 20 46 11z m-991 -397 l-3 -353 -115 3 c-63 2 -116 5
-116 5 -1 1 -5 145 -9 320 -4 176 -8 326 -9 335 -2 10 -14 19 -27 21 -58 9 21
20 149 20 l132 1 -2 -352z m-718 299 c0 -7 -5 -18 -12 -25 -6 -6 -10 -13 -7
-15 2 -2 21 -16 42 -31 20 -16 37 -35 37 -44 0 -14 -2 -14 -17 0 -30 26 -84
50 -99 44 -12 -5 -12 -2 -3 17 33 62 59 86 59 54z m4412 -14 c32 -30 35 -49
12 -81 -10 -15 -25 -22 -49 -22 -28 0 -37 6 -50 30 -17 32 -15 41 18 78 26 28
35 28 69 -5z m-3101 -115 c24 -30 24 -46 -1 -23 -16 15 -22 15 -35 5 -17 -15
-19 -7 -5 21 14 24 18 24 41 -3z m2431 -28 c102 -3 190 -8 193 -12 4 -4 0 -14
-9 -23 -21 -22 -20 -30 7 -43 17 -8 18 -11 5 -11 -16 -1 -17 -9 -12 -75 4 -40
4 -86 0 -100 -7 -29 2 -28 -148 -17 -5 1 -8 43 -8 95 0 76 -3 95 -16 100 -29
11 -53 6 -63 -12 -11 -21 -41 -22 -64 -4 -7 7 -16 9 -20 6 -3 -3 -3 3 0 15 3
12 1 21 -6 21 -12 0 -81 64 -81 75 0 4 8 3 18 -1 9 -5 101 -11 204 -14z
m-2510 -27 c37 -41 59 -78 51 -88 -5 -4 0 -5 9 -2 12 4 51 -26 135 -103 115
-107 212 -203 164 -164 l-23 19 -38 -44 -38 -44 -128 96 c-156 115 -180 139
-166 163 8 14 3 24 -18 48 -53 56 -56 70 -24 110 16 20 34 36 40 36 5 0 22
-12 36 -27z m-1343 -214 c17 -6 31 -15 31 -20 0 -13 -21 -11 -54 6 -33 18 -36
18 -36 6 0 -5 16 -18 35 -30 37 -22 45 -50 21 -70 -17 -14 -78 -11 -83 4 -2 7
12 9 37 7 52 -5 52 12 0 38 -41 21 -45 27 -34 54 7 19 38 20 83 5z m1382 -88
c20 -11 43 -29 50 -38 11 -13 8 -13 -16 2 -62 40 -135 98 -135 108 0 6 15 -3
33 -19 17 -17 48 -41 68 -53z m1857 69 c31 0 2 -25 -130 -115 l-142 -97 -18
24 c-21 27 -32 57 -24 65 3 3 17 -2 32 -11 25 -17 26 -17 19 3 -4 15 -2 21 9
21 8 0 21 8 28 18 14 19 85 65 104 68 7 1 25 9 40 17 16 9 38 14 49 11 11 -2
26 -4 33 -4z m1429 -12 c25 -23 30 -67 11 -86 -7 -7 -24 -12 -38 -12 -34 0
-50 17 -50 54 0 29 24 66 43 66 6 0 21 -10 34 -22z m-3417 -73 c7 -8 16 -15
21 -15 12 0 228 -138 253 -161 14 -13 17 -21 9 -31 -15 -18 -60 -148 -64 -183
-4 -28 -1 -30 36 -37 22 -4 65 -13 97 -20 l56 -12 -5 -55 c-3 -31 -8 -58 -10
-61 -10 -10 -686 -11 -697 0 -7 7 61 10 219 11 221 1 227 1 160 14 -38 7 -141
14 -229 14 -140 1 -157 3 -146 16 7 8 8 15 2 15 -5 0 -12 11 -14 25 -5 23 -2
25 33 25 22 0 45 7 54 17 11 10 42 19 84 23 44 5 53 8 27 9 l-39 1 7 50 c14
101 105 370 126 370 4 0 13 -7 20 -15z m2093 -67 c21 -46 48 -128 62 -183 28
-112 29 -118 16 -111 -5 4 -12 0 -15 -6 -3 -7 -3 -3 0 9 4 17 2 21 -10 17 -10
-4 -16 2 -19 18 -2 13 -3 6 -2 -15 3 -30 0 -37 -11 -33 -8 3 -14 2 -14 -3 0
-4 19 -13 43 -18 38 -9 32 -10 -53 -10 -184 -1 -203 -7 -40 -12 135 -5 171 -9
193 -23 14 -10 40 -18 57 -18 25 0 30 -4 27 -17 -3 -10 -8 -29 -11 -43 l-5
-25 -331 3 c-305 2 -330 4 -330 20 0 9 -3 26 -6 37 -4 17 2 22 43 33 26 8 69
16 96 19 36 4 47 9 47 22 0 27 -30 121 -55 173 -20 42 -21 49 -8 60 21 18 277
186 284 187 3 1 22 -36 42 -81z m622 -1026 c-3 -3 -7 -3 -9 -1 -10 10 -11
1085 -1 1099 7 10 11 -166 13 -539 1 -305 0 -556 -3 -559z m-1600 1073 c95
-20 165 -58 244 -131 118 -110 161 -212 161 -384 0 -100 13 -147 26 -97 3 16
8 26 11 24 7 -8 -38 -150 -58 -183 -11 -18 -17 -39 -13 -47 7 -19 -61 -112
-113 -153 -49 -39 -156 -97 -213 -117 -157 -52 -150 -50 -168 -35 -9 8 -55 27
-102 41 -110 34 -208 97 -277 178 -29 35 -49 65 -43 67 14 5 13 18 -3 34 -13
13 -47 91 -47 106 0 4 19 -22 41 -56 22 -35 42 -62 44 -60 2 2 -13 37 -33 78
l-37 74 0 150 c0 144 1 154 28 211 75 161 213 271 382 305 61 12 94 11 170 -5z
m1655 -536 c0 -472 -2 -539 -15 -539 -13 0 -15 66 -15 538 0 296 3 542 6 545
4 4 11 4 15 1 5 -3 9 -248 9 -545z m-2490 464 c0 -7 -61 31 -73 46 -7 8 7 2
31 -14 23 -15 42 -30 42 -32z m31 -20 c13 -16 12 -17 -3 -4 -10 7 -18 15 -18
17 0 8 8 3 21 -13z m-661 -72 c-49 -7 -73 -18 -66 -30 3 -4 -1 -29 -9 -57 -7
-27 -14 -42 -15 -34 -1 10 -4 9 -9 -5 -7 -17 -12 -12 -34 36 -13 31 -29 59
-35 63 -21 13 -144 9 -153 -5 -6 -11 -9 -10 -15 4 -5 14 -19 17 -73 17 -36 0
-73 5 -81 10 -10 6 79 9 260 9 151 -1 255 -5 230 -8z m2970 -30 c23 -7 23 -8
5 -12 -18 -5 -20 -15 -23 -130 -3 -156 -21 -324 -37 -346 -9 -13 -29 -17 -84
-17 -39 -1 -71 3 -71 7 0 5 -4 5 -10 2 -5 -3 -10 0 -11 7 0 7 -6 -5 -14 -27
-11 -36 -13 -16 -14 185 -1 124 -4 251 -8 283 l-5 57 123 -1 c68 -1 135 -4
149 -8z m356 -4 c1 -1 -1 -22 -6 -47 -4 -25 -9 -174 -11 -332 l-4 -288 -40 1
c-32 0 -36 2 -19 9 19 8 20 13 13 67 -4 32 -10 162 -14 288 -8 277 -6 255 -19
255 -6 0 -5 4 2 9 10 6 4 12 -20 22 l-33 14 30 7 c26 6 114 3 121 -5z m-3393
-223 c36 -7 37 -7 14 -19 -17 -8 -62 -11 -152 -7 -110 4 -133 2 -161 -13 -19
-10 -31 -22 -28 -26 3 -5 -1 -9 -9 -9 -7 0 -19 11 -25 25 -11 23 -18 26 -64
25 -29 0 -81 2 -115 6 l-63 6 -1 -93 c-1 -132 -15 -168 -20 -54 -2 49 -2 106
-1 127 l4 38 292 0 c160 0 308 -3 329 -6z m3561 -26 c13 -49 1 -218 -15 -218
-5 0 -9 49 -9 109 0 84 -3 110 -14 114 -19 7 -26 -1 -27 -32 l0 -26 -10 25
c-8 19 -6 27 7 37 28 21 61 16 68 -9z m-4459 -12 c24 -37 16 -87 -17 -105 -25
-15 -29 -14 -52 8 -17 16 -26 35 -26 54 0 62 64 90 95 43z m4770 -29 c13 -3 9
-5 -12 -6 -34 -1 -49 11 -37 31 5 8 10 7 18 -4 6 -9 20 -18 31 -21z m55 13 c0
-11 -7 -20 -15 -20 -17 0 -18 2 -9 24 9 23 24 20 24 -4z m-5063 -32 c-3 -7 -5
-2 -5 12 0 14 2 19 5 13 2 -7 2 -19 0 -25z m421 -25 c30 -41 5 -87 -45 -81
-35 4 -52 45 -35 84 11 22 17 25 40 19 15 -3 33 -13 40 -22z m4450 -7 c7 -56
-5 -76 -43 -76 -28 0 -36 4 -41 24 -9 37 -1 59 26 73 36 19 55 12 58 -21z
m187 24 c4 -6 -15 -10 -50 -10 -35 0 -54 4 -50 10 3 6 26 10 50 10 24 0 47 -4
50 -10z m-1353 -37 c-95 -2 -248 -2 -340 0 -92 1 -14 3 173 3 187 0 262 -2
167 -3z m1278 -3 c0 -5 -4 -10 -10 -10 -5 0 -10 5 -10 10 0 6 5 10 10 10 6 0
10 -4 10 -10z m-3215 -90 c-7 -12 -308 -12 -345 0 -15 5 53 8 163 9 123 1 186
-2 182 -9z m1964 6 c-11 -9 -349 -15 -349 -6 0 6 67 10 177 10 97 0 174 -2
172 -4z m-2947 -33 c-40 -2 -103 -2 -140 0 -37 2 -4 3 73 3 77 0 107 -2 67 -3z
m328 0 c46 -7 31 -9 -90 -13 -80 -3 -148 -4 -153 -2 -40 17 145 28 243 15z
m3757 -100 c-3 -10 -5 -2 -5 17 0 19 2 27 5 18 2 -10 2 -26 0 -35z m-10 -70
c-3 -10 -5 -2 -5 17 0 19 2 27 5 18 2 -10 2 -26 0 -35z m-997 -14 c0 -72 -65
-250 -131 -361 -178 -295 -405 -474 -751 -589 -413 -139 -909 -47 -1279 237
-71 54 -195 186 -242 257 -104 156 -172 325 -157 389 4 18 8 25 9 15 3 -52
168 -382 202 -402 5 -4 18 0 28 9 10 9 21 16 24 16 14 0 6 -30 -12 -47 -20
-18 -19 -19 21 -72 38 -50 191 -172 281 -225 125 -73 418 -174 448 -155 10 6
7 9 -10 9 -50 0 -179 43 -279 92 -56 28 -101 52 -99 54 2 2 42 -14 88 -35 121
-57 226 -90 347 -109 81 -13 106 -21 109 -33 6 -23 33 -29 141 -29 85 0 92 1
92 20 0 11 2 20 4 20 2 0 41 7 87 15 108 20 266 69 340 105 32 15 60 26 63 23
9 -9 41 7 76 37 19 16 38 31 43 31 4 1 10 2 15 3 25 4 144 88 192 135 62 61
95 109 67 98 -10 -4 -18 1 -22 12 -3 10 -14 26 -25 36 -11 10 -20 22 -20 27 0
16 20 8 55 -24 22 -19 39 -27 43 -21 4 5 31 46 60 90 52 79 153 297 167 361 7
36 25 44 25 11z m233 -6 c-35 -2 -91 -2 -125 0 -35 2 -7 3 62 3 69 0 97 -1 63
-3z m742 -120 c-55 -297 -184 -610 -356 -858 -362 -523 -965 -878 -1639 -966
-235 -30 -422 -22 -689 32 -630 125 -1167 494 -1493 1024 -66 107 -137 246
-179 353 -34 86 -99 314 -99 346 1 12 15 -31 31 -94 147 -558 516 -1045 1012
-1338 132 -78 218 -119 361 -173 460 -175 938 -196 1404 -63 856 244 1456 877
1629 1719 30 148 45 162 18 18z m-4478 75 c-3 -8 -6 -5 -6 6 -1 11 2 17 5 13
3 -3 4 -12 1 -19z m1513 -3 c0 -5 -257 -177 -292 -196 -10 -5 -18 -6 -18 -1 0
9 184 138 253 178 41 23 57 29 57 19z m1551 -96 c118 -83 162 -119 144 -119
-5 0 -16 6 -24 14 -33 29 -255 176 -267 176 -6 0 -17 -13 -24 -29 -6 -16 -20
-37 -31 -47 -18 -16 -18 -18 -3 -36 10 -10 15 -18 12 -18 -2 0 -15 12 -29 27
-13 14 -19 23 -13 20 6 -3 27 20 48 53 23 36 43 57 50 53 6 -3 68 -46 137 -94z
m-2373 84 c-54 -2 -142 -2 -195 0 -54 1 -10 3 97 3 107 0 151 -2 98 -3z m1052
-3 c0 -5 -3 -10 -8 -10 -4 0 -32 -21 -62 -46 -66 -54 -110 -87 -110 -81 0 2
35 33 78 68 42 35 79 67 80 71 5 12 22 10 22 -2z m-190 -45 c26 -37 28 -45 14
-45 -10 0 -25 -6 -33 -13 -30 -26 -156 -110 -144 -97 10 11 10 17 0 29 -11 14
-10 14 6 2 14 -11 20 -11 32 -1 8 7 15 17 15 22 0 6 -7 8 -15 4 -8 -3 -15 -1
-15 4 0 6 7 10 15 10 17 0 19 9 7 28 -5 8 -16 10 -28 6 -10 -4 -16 -4 -12 0 6
7 120 94 125 95 1 1 16 -19 33 -44z m-1543 3 c-3 -7 -5 -2 -5 12 0 14 2 19 5
13 2 -7 2 -19 0 -25z m2753 -3 c13 -14 21 -25 18 -25 -2 0 -15 11 -28 25 -13
14 -21 25 -18 25 2 0 15 -11 28 -25z m-1013 -17 c-20 -18 -136 -123 -258 -233
-122 -110 -225 -201 -230 -203 -5 -2 -9 2 -9 8 0 15 71 82 120 115 19 12 76
62 125 110 l90 87 -85 -76 c-47 -41 -102 -86 -123 -100 -21 -14 -50 -37 -65
-52 -15 -14 -34 -29 -44 -34 -13 -8 -15 -6 -10 13 6 25 102 121 180 180 28 21
52 42 52 46 0 3 10 12 23 19 22 14 -67 -74 -120 -116 -26 -21 -25 -21 12 2 47
29 153 117 154 129 1 5 -4 5 -11 1 -7 -4 -8 -3 -4 5 4 6 11 9 16 6 4 -3 13 2
20 10 7 8 16 13 20 10 4 -2 22 11 40 30 19 19 38 35 44 35 6 0 -12 -23 -39
-52 l-50 -52 60 51 c33 28 69 60 79 72 11 11 26 21 34 21 9 0 1 -13 -21 -32z
m-995 -363 l3 -385 -120 2 -120 2 110 3 c66 2 104 7 96 12 -11 7 -15 74 -23
317 -9 294 -7 401 7 424 3 5 15 10 25 10 19 0 20 -13 22 -385z m2065 228 c91
-87 195 -186 231 -221 l67 -63 -60 45 c-67 51 -425 395 -411 396 5 0 83 -71
173 -157z m-2800 105 c-3 -8 -6 -5 -6 6 -1 11 2 17 5 13 3 -3 4 -12 1 -19z
m4633 16 c0 -4 -5 -24 -11 -45 -9 -29 -9 -42 0 -52 9 -11 8 -17 -3 -26 -11 -9
-14 -8 -12 6 2 24 -31 28 -55 7 -25 -22 -25 -9 1 18 22 24 18 38 -11 38 -10 0
-19 7 -19 15 0 8 8 15 19 15 10 0 24 -7 31 -15 19 -22 28 -18 35 15 4 17 11
30 16 30 5 0 9 -3 9 -6z m-4710 -75 c0 -53 -22 -56 -63 -9 -37 43 -47 49 -47
25 0 -8 -5 -15 -11 -15 -6 0 -8 7 -5 16 3 9 6 22 6 31 0 31 44 9 65 -32 l20
-40 3 50 c3 46 5 48 18 31 8 -11 14 -36 14 -57z m2901 14 c13 -16 12 -17 -3
-4 -17 13 -22 21 -14 21 2 0 10 -8 17 -17z m119 -39 c25 -26 69 -62 98 -81 28
-18 52 -38 52 -43 0 -17 -103 59 -156 116 -28 30 -48 54 -45 54 4 0 27 -21 51
-46z m-44 4 l29 -33 -32 29 c-18 17 -33 31 -33 33 0 8 8 1 36 -29z m1056 -104
c-3 -103 -4 -104 -28 -104 -14 0 -25 6 -25 15 -1 8 -3 20 -4 25 -1 6 -3 44 -4
85 -1 59 -4 75 -16 75 -8 0 -15 3 -15 8 0 4 21 6 47 4 l48 -4 -3 -104z m-1061
69 c13 -16 12 -17 -3 -4 -10 7 -18 15 -18 17 0 8 8 3 21 -13z m-922 -168 c91
-23 95 -25 88 -31 -19 -19 -367 119 -367 145 0 4 48 -16 106 -45 59 -29 137
-60 173 -69z m1007 93 l29 -33 -32 29 c-18 17 -33 31 -33 33 0 8 8 1 36 -29z
m-286 18 c0 -8 -144 -82 -200 -104 -67 -26 -140 -45 -147 -39 -2 3 33 17 79
31 46 14 121 46 168 70 82 43 100 51 100 42z m510 -56 c-6 -11 -13 -20 -16
-20 -2 0 0 9 6 20 6 11 13 20 16 20 2 0 0 -9 -6 -20z m708 -77 c-21 -2 -57 -2
-80 0 -24 2 -7 4 37 4 44 0 63 -2 43 -4z m-2403 -53 c-15 -17 -16 -22 -4 -37
13 -17 13 -17 -6 -3 -11 8 -22 16 -24 17 -4 3 40 42 48 43 2 0 -4 -9 -14 -20z
m1370 0 c16 -17 16 -20 3 -15 -9 4 -19 13 -22 21 -7 19 -2 18 19 -6z m-2833
-62 c4 -25 0 -36 -21 -54 -36 -33 -46 -30 -20 6 27 36 23 43 -22 30 -48 -14
-69 -12 -69 5 0 9 9 15 23 15 12 0 38 8 57 18 19 10 38 17 41 15 4 -1 9 -17
11 -35z m4448 3 c-6 -12 -8 -31 -5 -41 4 -12 2 -20 -6 -20 -6 0 -18 -8 -25
-17 -7 -10 -14 -13 -14 -6 0 6 5 15 10 18 19 11 10 24 -25 36 -36 13 -52 34
-34 45 6 3 18 -1 27 -8 35 -31 42 -30 54 2 7 20 14 28 20 22 6 -6 6 -17 -2
-31z m-1369 12 c13 -16 12 -17 -3 -4 -10 7 -18 15 -18 17 0 8 8 3 21 -13z
m-231 2 c0 -11 -131 -91 -209 -127 -110 -51 -351 -113 -351 -90 0 4 51 18 113
30 126 26 289 90 382 151 67 44 65 43 65 36z m542 -82 c-187 -223 -472 -411
-768 -506 -322 -104 -630 -101 -963 9 -103 35 -306 127 -346 158 -11 9 21 -4
70 -28 210 -104 465 -176 619 -176 50 -1 129 -1 176 -1 162 -1 185 0 245 12
372 74 653 222 895 470 58 59 107 108 108 108 2 1 -14 -20 -36 -46z m-1642
-60 c47 -17 117 -36 155 -43 100 -18 134 -31 64 -25 -81 7 -220 50 -326 100
-51 24 -93 46 -93 50 0 3 26 -8 58 -24 31 -16 95 -42 142 -58z m-385 17 c3 -6
-1 -7 -9 -4 -18 7 -21 14 -7 14 6 0 13 -4 16 -10z m-525 -19 c0 -35 12 -51 39
-52 14 0 35 -4 46 -9 14 -6 4 -9 -36 -9 l-57 -1 -4 45 c-2 25 0 45 4 45 5 0 8
-9 8 -19z m275 -141 c-4 -6 -73 -10 -175 -10 -102 0 -171 4 -175 10 -4 7 57
10 175 10 118 0 179 -3 175 -10z m-966 -75 c-21 -11 -25 -19 -21 -44 5 -35 17
-38 50 -15 12 8 22 11 22 5 0 -11 -62 -51 -80 -51 -7 0 -10 7 -6 16 11 30 -4
64 -30 64 -13 0 -24 4 -24 10 0 16 34 29 75 29 40 0 40 0 14 -14z m4116 0 c19
-15 19 -16 -8 -42 -15 -15 -27 -23 -27 -16 0 6 7 16 15 23 26 21 17 33 -20 26
-28 -6 -35 -4 -35 9 0 20 48 20 75 0z m-2045 -15 c0 -6 -28 -10 -65 -10 -37 0
-65 4 -65 10 0 6 28 10 65 10 37 0 65 -4 65 -10z m420 -265 c0 -9 -169 -55
-264 -71 -117 -20 -385 -14 -476 9 -51 14 -41 14 155 9 216 -5 403 10 521 43
57 15 64 17 64 10z m-803 -41 c-3 -3 -12 -4 -19 -1 -8 3 -5 6 6 6 11 1 17 -2
13 -5z m2203 -20 c0 -17 -90 -108 -98 -99 -3 3 2 13 11 23 19 21 22 42 7 42
-5 0 -10 7 -10 15 0 8 -5 15 -10 15 -6 0 -13 -7 -16 -15 -7 -16 -34 -21 -34
-6 0 34 63 37 95 4 14 -14 18 -14 26 -2 5 8 9 20 9 27 0 6 5 12 10 12 6 0 10
-7 10 -16z m-3672 -26 c-3 -29 -7 -33 -32 -33 -16 0 -31 6 -34 13 -3 11 0 12
17 3 17 -9 22 -9 27 2 3 8 4 18 3 23 -3 16 1 24 12 24 6 0 9 -14 7 -32z m2022
-50 c-54 -14 -328 -21 -390 -9 -51 9 -47 10 45 7 55 -2 143 -1 195 3 52 4 115
8 140 8 l45 1 -35 -10z m1622 -40 c-7 -7 -12 -8 -12 -2 0 14 12 26 19 19 2 -3
-1 -11 -7 -17z m-1834 -100 c-2 -13 -10 -23 -18 -23 -8 0 -16 10 -18 23 -3 17
2 22 18 22 16 0 21 -5 18 -22z m-1328 -174 c0 -14 -3 -15 -17 -3 -10 7 -20 15
-22 16 -2 2 5 3 17 3 14 0 22 -6 22 -16z m2635 -10 c18 -7 45 -55 45 -80 0
-25 -30 -54 -55 -54 -52 0 -81 93 -39 125 22 16 26 17 49 9z m-2686 -14 c27
-14 34 -39 11 -37 -10 1 -16 5 -14 9 3 5 -2 11 -10 14 -9 3 -16 10 -16 15 0
12 7 11 29 -1z m-4 -78 c-7 -8 -35 7 -35 18 0 6 7 6 20 -2 10 -7 17 -14 15
-16z m35 8 c0 -5 -5 -10 -11 -10 -5 0 -7 5 -4 10 3 6 8 10 11 10 2 0 4 -4 4
-10z m1364 -35 c41 -41 20 -105 -34 -105 -58 0 -79 83 -28 108 32 15 44 14 62
-3z m-770 -141 c22 -21 20 -86 -2 -114 -34 -42 -92 -3 -92 61 0 23 42 69 64
69 8 0 22 -7 30 -16z m734 -11 c-10 -2 -26 -2 -35 0 -10 3 -2 5 17 5 19 0 27
-2 18 -5z m753 -25 c7 -18 19 -36 25 -41 26 -15 -14 -71 -42 -60 -19 7 -18 23
1 23 8 0 15 9 15 20 0 11 -6 20 -14 20 -22 0 -47 45 -33 59 19 19 34 12 48
-21z m-717 -100 c35 -50 8 -138 -42 -138 -47 0 -78 89 -48 135 21 33 68 34 90
3z m966 -33 c-14 -8 -29 -14 -35 -14 -5 0 1 6 15 14 14 8 30 14 35 14 6 0 -1
-6 -15 -14z m-115 -45 c-27 -12 -43 -12 -25 0 8 5 22 9 30 9 10 0 8 -3 -5 -9z
m-128 -41 c-266 -88 -624 -132 -895 -110 -81 7 -176 16 -212 22 -93 14 -311
61 -306 66 2 3 40 -3 83 -11 201 -41 264 -48 513 -53 335 -7 540 18 810 97
101 29 105 21 7 -11z"/>
<path d="M4394 6472 c3 -5 0 -13 -6 -15 -9 -4 -10 -6 -1 -6 17 -1 25 16 12 25
-7 4 -9 3 -5 -4z"/>
<path d="M7011 6584 c-22 -28 -23 -45 -3 -51 16 -6 54 35 50 54 -5 27 -25 26
-47 -3z"/>
<path d="M3950 5954 c0 -9 5 -14 12 -12 18 6 21 28 4 28 -9 0 -16 -7 -16 -16z"/>
<path d="M5729 5473 c-13 -16 -12 -17 4 -4 9 7 17 15 17 17 0 8 -8 3 -21 -13z"/>
<path d="M5686 5441 c-10 -10 -13 -22 -8 -25 5 -3 14 6 20 19 14 30 11 31 -12
6z"/>
<path d="M7436 5961 c-23 -25 -14 -51 17 -51 33 0 54 26 40 48 -15 25 -37 26
-57 3z"/>
<path d="M6903 5640 c0 -41 2 -58 4 -37 2 20 2 54 0 75 -2 20 -4 3 -4 -38z"/>
<path d="M4258 5754 c6 -11 19 -27 28 -35 16 -13 16 -12 6 7 -6 11 -19 27 -28
35 -16 13 -16 12 -6 -7z"/>
<path d="M7584 5546 c-10 -26 1 -51 23 -54 28 -4 50 32 32 54 -15 18 -48 18
-55 0z"/>
<path d="M4168 5083 c6 -2 18 -2 25 0 6 3 1 5 -13 5 -14 0 -19 -2 -12 -5z"/>
<path d="M4263 5083 c26 -2 68 -2 95 0 26 2 4 3 -48 3 -52 0 -74 -1 -47 -3z"/>
<path d="M4133 5043 c15 -2 37 -2 50 0 12 2 0 4 -28 4 -27 0 -38 -2 -22 -4z"/>
<path d="M6123 4983 c70 -2 184 -2 255 0 70 1 12 3 -128 3 -140 0 -198 -2
-127 -3z"/>
<path d="M5125 5356 c-160 -51 -277 -183 -304 -346 -5 -30 -9 -47 -10 -37 -1
15 -3 15 -21 -3 -22 -22 -27 -46 -7 -33 24 15 37 11 37 -12 0 -32 47 -161 75
-206 41 -64 165 -159 207 -159 7 0 -10 13 -38 28 -56 29 -114 75 -114 90 0 12
131 137 150 144 13 4 13 8 -2 24 -28 31 -58 106 -58 145 0 83 42 151 114 185
61 29 117 30 172 5 110 -50 153 -173 100 -287 -13 -29 -30 -54 -37 -56 -11 -4
60 -78 124 -128 26 -21 37 -50 18 -50 -5 0 -12 -8 -15 -17 -15 -45 81 81 113
147 33 70 36 82 36 170 0 87 -3 101 -32 161 -62 125 -151 201 -278 234 -71 18
-175 19 -230 1z"/>
<path d="M5681 4974 c0 -11 3 -14 6 -6 3 7 2 16 -1 19 -3 4 -6 -2 -5 -13z"/>
<path d="M5717 4973 c-11 -10 -8 -51 3 -58 6 -4 10 8 10 29 0 37 -2 41 -13 29z"/>
<path d="M5423 4933 c-3 -10 -15 -31 -26 -46 -10 -16 -17 -30 -14 -33 2 -3 13
10 24 28 23 39 34 68 27 68 -2 0 -7 -8 -11 -17z"/>
<path d="M5100 4866 c0 -2 8 -10 18 -17 15 -13 16 -12 3 4 -13 16 -21 21 -21
13z"/>
<path d="M5132 4812 c-8 -6 -14 -43 -17 -113 l-4 -104 14 55 c15 57 30 170 24
170 -2 0 -10 -4 -17 -8z"/>
<path d="M5330 4811 c0 -17 49 -214 55 -219 11 -12 -4 101 -27 186 -9 37 -28
59 -28 33z"/>
<path d="M5666 4622 l-19 -27 24 22 c12 12 21 24 18 27 -2 2 -13 -8 -23 -22z"/>
<path d="M5455 4605 c-22 -14 -48 -25 -57 -25 -10 0 -18 -5 -18 -11 0 -6 9 -8
23 -4 24 8 97 52 97 60 0 7 -1 7 -45 -20z"/>
<path d="M2844 4994 c-27 -41 7 -82 40 -49 22 22 20 52 -4 65 -16 9 -22 6 -36
-16z"/>
<path d="M5805 3790 c-3 -6 1 -7 9 -4 18 7 21 14 7 14 -6 0 -13 -4 -16 -10z"/>
<path d="M5008 3683 c6 -2 18 -2 25 0 6 3 1 5 -13 5 -14 0 -19 -2 -12 -5z"/>
<path d="M4505 4500 c3 -5 8 -10 11 -10 2 0 4 5 4 10 0 6 -5 10 -11 10 -5 0
-7 -4 -4 -10z"/>
<path d="M4470 4470 c0 -5 5 -10 11 -10 5 0 7 5 4 10 -3 6 -8 10 -11 10 -2 0
-4 -4 -4 -10z"/>
<path d="M6530 2904 c0 -36 17 -64 40 -64 16 0 20 7 20 33 0 37 -15 57 -42 57
-13 0 -18 -8 -18 -26z"/>
<path d="M4460 2665 c-13 -35 -13 -48 5 -71 13 -16 16 -17 25 -4 14 20 8 92
-7 98 -7 2 -17 -8 -23 -23z"/>
<path d="M5222 2508 c2 -39 7 -54 19 -56 12 -2 18 7 22 32 8 48 -1 76 -25 76
-17 0 -19 -6 -16 -52z"/>
<path d="M3778 7624 c-38 -20 -36 -28 2 -9 17 9 30 18 30 20 0 7 -1 6 -32 -11z"/>
<path d="M3539 7473 c-13 -16 -12 -17 4 -4 16 13 21 21 13 21 -2 0 -10 -8 -17
-17z"/>
<path d="M5236 7402 c-3 -5 6 -12 20 -15 15 -3 23 0 21 7 -5 14 -33 20 -41 8z"/>
<path d="M3380 7359 l-35 -31 32 22 c29 19 50 40 41 40 -2 0 -19 -14 -38 -31z"/>
<path d="M5245 7335 c-31 -25 -28 -33 4 -15 10 5 21 16 25 25 7 19 7 19 -29
-10z"/>
<path d="M5885 7320 c-3 -5 -1 -10 4 -10 6 0 11 5 11 10 0 6 -2 10 -4 10 -3 0
-8 -4 -11 -10z"/>
<path d="M4592 7279 c6 -16 12 -28 15 -26 7 7 -8 57 -18 57 -4 0 -3 -14 3 -31z"/>
<path d="M4550 7290 c0 -5 5 -10 11 -10 5 0 7 5 4 10 -3 6 -8 10 -11 10 -2 0
-4 -4 -4 -10z"/>
<path d="M5847 7293 c-10 -9 -9 -23 2 -23 5 0 11 7 15 15 5 15 -5 20 -17 8z"/>
<path d="M5228 7263 c12 -2 30 -2 40 0 9 3 -1 5 -23 4 -22 0 -30 -2 -17 -4z"/>
<path d="M5880 7250 c-19 -4 -21 -7 -9 -12 9 -3 22 -2 30 2 19 13 8 18 -21 10z"/>
<path d="M9334 7218 c-16 -31 -16 -32 5 -49 35 -28 81 -4 81 41 0 50 -61 56
-86 8z"/>
<path d="M4611 7230 c0 -8 5 -25 12 -37 9 -16 16 -20 27 -13 13 8 13 10 -2 10
-9 0 -21 12 -26 28 -6 15 -11 20 -11 12z"/>
<path d="M1313 7204 c-8 -23 9 -48 36 -52 20 -3 22 0 19 30 -2 25 -8 34 -26
36 -14 2 -25 -3 -29 -14z"/>
<path d="M5840 7199 c0 -12 24 -22 45 -17 12 2 7 7 -14 15 -18 6 -31 7 -31 2z"/>
<path d="M1157 7123 c-12 -11 -8 -40 7 -52 12 -10 17 -8 26 9 18 34 -8 68 -33
43z"/>
<path d="M3980 7025 c0 -8 4 -15 10 -15 5 0 7 7 4 15 -4 8 -8 15 -10 15 -2 0
-4 -7 -4 -15z"/>
<path d="M3920 7008 c0 -9 10 -24 22 -32 25 -18 78 -22 78 -6 0 6 -15 10 -34
10 -25 0 -39 7 -50 22 -13 18 -16 19 -16 6z"/>
<path d="M6502 6990 c-14 -39 4 -52 30 -20 23 29 23 50 -1 50 -12 0 -23 -11
-29 -30z"/>
<path d="M6581 6983 c-1 -23 -54 -73 -77 -73 -7 0 -19 9 -26 20 -7 11 -16 20
-19 20 -12 0 -4 -35 11 -48 8 -8 9 -11 3 -7 -7 3 -13 1 -13 -5 0 -6 10 -8 28
-4 64 16 109 61 99 100 -4 17 -5 16 -6 -3z"/>
<path d="M3940 6920 c0 -11 27 -20 61 -20 19 0 29 5 29 15 0 12 -4 13 -19 5
-24 -12 -34 -13 -27 -1 3 5 -6 9 -19 9 -14 0 -25 -4 -25 -8z"/>
<path d="M7620 6766 c0 -2 8 -10 18 -17 15 -13 16 -12 3 4 -13 16 -21 21 -21
13z"/>
<path d="M7667 6705 c10 -13 22 -25 26 -25 4 0 0 11 -10 25 -10 13 -22 25 -26
25 -4 0 0 -11 10 -25z"/>
<path d="M3530 6641 c0 -6 4 -13 10 -16 6 -3 7 1 4 9 -7 18 -14 21 -14 7z"/>
<path d="M3430 6615 c-13 -14 -21 -28 -17 -31 7 -7 46 35 47 49 0 12 -5 8 -30
-18z"/>
<path d="M3395 6530 c3 -5 8 -10 11 -10 2 0 4 5 4 10 0 6 -5 10 -11 10 -5 0
-7 -4 -4 -10z"/>
<path d="M3176 6461 c-4 -6 -4 -15 -1 -21 3 -6 -1 -7 -9 -4 -10 4 -16 1 -16
-8 0 -8 6 -15 14 -15 18 0 36 31 26 46 -5 9 -10 10 -14 2z"/>
<path d="M910 6390 c0 -23 5 -30 19 -30 20 0 37 32 26 50 -3 5 -15 10 -26 10
-14 0 -19 -7 -19 -30z"/>
<path d="M2542 6215 c-30 -62 -27 -71 4 -12 14 27 24 51 22 53 -3 2 -14 -17
-26 -41z"/>
<path d="M2476 6158 c3 -5 10 -6 15 -3 13 9 11 12 -6 12 -8 0 -12 -4 -9 -9z"/>
<path d="M2503 6135 c-3 -9 -3 -18 -1 -21 3 -3 8 4 11 16 6 23 -1 27 -10 5z"/>
<path d="M9103 5033 c-15 -5 -17 -23 -4 -23 5 0 11 7 15 15 3 8 4 15 3 14 -1
0 -8 -3 -14 -6z"/>
<path d="M1443 4997 c2 -24 3 -24 20 -10 9 9 17 21 17 27 0 6 -5 4 -10 -4 -9
-13 -11 -13 -19 -1 -7 10 -9 7 -8 -12z"/>
<path d="M1230 4771 c0 -6 9 -9 20 -8 11 1 20 5 20 9 0 4 -9 8 -20 8 -11 0
-20 -4 -20 -9z"/>
<path d="M1326 4290 c-4 -250 -6 -614 -4 -808 2 -298 5 -354 18 -362 18 -11
90 -24 96 -17 3 3 -11 21 -31 39 l-38 34 -3 490 c-4 589 -13 985 -23 1039 -4
22 -11 -160 -15 -415z"/>
<path d="M7880 2881 c0 -6 4 -12 8 -15 5 -3 9 1 9 9 0 8 -4 15 -9 15 -4 0 -8
-4 -8 -9z"/>
<path d="M906 2705 c-6 -17 13 -65 26 -65 14 0 21 28 14 55 -7 28 -31 34 -40
10z"/>
<path d="M1176 2514 c-8 -21 11 -45 30 -37 22 8 18 53 -5 53 -10 0 -22 -7 -25
-16z"/>
<path d="M9323 2523 c-7 -2 -13 -16 -13 -29 0 -30 36 -34 45 -4 10 32 -3 45
-32 33z"/>
<path d="M5781 2029 c-65 -13 -74 -19 -16 -13 28 4 54 10 60 15 5 5 7 9 5 8
-3 -1 -25 -5 -49 -10z"/>
<path d="M6635 1895 c-16 -7 -23 -14 -15 -14 8 0 26 6 40 14 32 18 14 18 -25
0z"/>
</g>
</svg>
